<svg xmlns="http://www.w3.org/2000/svg" xmlns:xlink="http://www.w3.org/1999/xlink" viewBox="0 0 506.68 379.31"><defs><style>.cls-1{isolation:isolate;}.cls-2{fill:url(#Áåçûìÿííûé_ãðàäèåíò_109);}.cls-3{fill:url(#Áåçûìÿííûé_ãðàäèåíò_109-2);}.cls-4{fill:url(#Áåçûìÿííûé_ãðàäèåíò_109-3);}.cls-10,.cls-101,.cls-106,.cls-11,.cls-111,.cls-112,.cls-114,.cls-12,.cls-120,.cls-121,.cls-122,.cls-123,.cls-13,.cls-14,.cls-15,.cls-16,.cls-17,.cls-18,.cls-19,.cls-20,.cls-21,.cls-22,.cls-23,.cls-24,.cls-25,.cls-26,.cls-27,.cls-28,.cls-29,.cls-31,.cls-33,.cls-35,.cls-40,.cls-41,.cls-42,.cls-43,.cls-44,.cls-45,.cls-46,.cls-48,.cls-49,.cls-5,.cls-50,.cls-55,.cls-6,.cls-66,.cls-67,.cls-69,.cls-7,.cls-70,.cls-71,.cls-72,.cls-73,.cls-74,.cls-75,.cls-76,.cls-77,.cls-78,.cls-79,.cls-8,.cls-80,.cls-89,.cls-9,.cls-91,.cls-92{fill-rule:evenodd;}.cls-5{fill:url(#Áåçûìÿííûé_ãðàäèåíò_118);}.cls-6{fill:url(#Áåçûìÿííûé_ãðàäèåíò_118-2);}.cls-7{fill:url(#Áåçûìÿííûé_ãðàäèåíò_118-3);}.cls-8{fill:url(#Áåçûìÿííûé_ãðàäèåíò_51);}.cls-9{fill:url(#Áåçûìÿííûé_ãðàäèåíò_47);}.cls-10{fill:url(#Áåçûìÿííûé_ãðàäèåíò_24);}.cls-11{fill:url(#Áåçûìÿííûé_ãðàäèåíò_41);}.cls-12{fill:url(#Áåçûìÿííûé_ãðàäèåíò_24-2);}.cls-13{fill:url(#Áåçûìÿííûé_ãðàäèåíò_41-2);}.cls-14{fill:url(#Áåçûìÿííûé_ãðàäèåíò_24-3);}.cls-15{fill:url(#Áåçûìÿííûé_ãðàäèåíò_41-3);}.cls-16{fill:url(#Áåçûìÿííûé_ãðàäèåíò_24-4);}.cls-17{fill:url(#Áåçûìÿííûé_ãðàäèåíò_24-5);}.cls-18{fill:url(#Áåçûìÿííûé_ãðàäèåíò_41-4);}.cls-19{fill:url(#Áåçûìÿííûé_ãðàäèåíò_24-6);}.cls-20{fill:url(#Áåçûìÿííûé_ãðàäèåíò_24-7);}.cls-21{fill:url(#Áåçûìÿííûé_ãðàäèåíò_24-8);}.cls-22{fill:url(#Áåçûìÿííûé_ãðàäèåíò_24-9);}.cls-23{fill:url(#Áåçûìÿííûé_ãðàäèåíò_24-10);}.cls-24{fill:url(#Áåçûìÿííûé_ãðàäèåíò_24-11);}.cls-25{fill:url(#Áåçûìÿííûé_ãðàäèåíò_41-5);}.cls-26{fill:url(#Áåçûìÿííûé_ãðàäèåíò_35);}.cls-27{fill:url(#Áåçûìÿííûé_ãðàäèåíò_24-12);}.cls-28{fill:url(#Áåçûìÿííûé_ãðàäèåíò_41-6);}.cls-114,.cls-29{fill:#ad8ea9;}.cls-29,.cls-39,.cls-51,.cls-52,.cls-53,.cls-93,.cls-94,.cls-97{opacity:0.8;}.cls-100,.cls-101,.cls-102,.cls-103,.cls-114,.cls-29,.cls-30,.cls-32,.cls-34,.cls-36,.cls-37,.cls-38,.cls-39,.cls-47,.cls-51,.cls-52,.cls-53,.cls-54,.cls-58,.cls-59,.cls-60,.cls-74,.cls-81,.cls-82,.cls-83,.cls-84,.cls-85,.cls-90,.cls-93,.cls-94,.cls-97{mix-blend-mode:multiply;}.cls-100,.cls-101,.cls-30,.cls-36,.cls-37,.cls-38,.cls-47,.cls-54,.cls-81,.cls-82,.cls-83,.cls-84,.cls-85,.cls-90{opacity:0.91;}.cls-30{fill:url(#Áåçûìÿííûé_ãðàäèåíò_73);}.cls-31{fill:url(#Áåçûìÿííûé_ãðàäèåíò_133);}.cls-32{fill:url(#Áåçûìÿííûé_ãðàäèåíò_73-2);}.cls-33{fill:url(#Áåçûìÿííûé_ãðàäèåíò_133-2);}.cls-34{fill:url(#Áåçûìÿííûé_ãðàäèåíò_73-3);}.cls-35{fill:url(#Áåçûìÿííûé_ãðàäèåíò_40);}.cls-36{fill:url(#Áåçûìÿííûé_ãðàäèåíò_73-4);}.cls-37{fill:url(#Áåçûìÿííûé_ãðàäèåíò_73-5);}.cls-38{fill:url(#Áåçûìÿííûé_ãðàäèåíò_73-6);}.cls-39{fill:url(#Áåçûìÿííûé_ãðàäèåíò_153);}.cls-40{fill:url(#Áåçûìÿííûé_ãðàäèåíò_68);}.cls-41{fill:url(#Áåçûìÿííûé_ãðàäèåíò_93);}.cls-42{fill:#b53d27;}.cls-43{fill:url(#Áåçûìÿííûé_ãðàäèåíò_26);}.cls-44{fill:url(#Áåçûìÿííûé_ãðàäèåíò_26-2);}.cls-45{fill:url(#Áåçûìÿííûé_ãðàäèåíò_93-2);}.cls-46{fill:url(#Áåçûìÿííûé_ãðàäèåíò_184);}.cls-101,.cls-47{fill:#935b9d;}.cls-48{fill:url(#Áåçûìÿííûé_ãðàäèåíò_184-2);}.cls-49{fill:#d2726c;}.cls-50{fill:url(#Áåçûìÿííûé_ãðàäèåíò_40-2);}.cls-51{fill:url(#Áåçûìÿííûé_ãðàäèåíò_153-2);}.cls-52{fill:url(#Áåçûìÿííûé_ãðàäèåíò_285);}.cls-53{fill:url(#Áåçûìÿííûé_ãðàäèåíò_285-2);}.cls-54{fill:url(#Áåçûìÿííûé_ãðàäèåíò_73-7);}.cls-55{fill:url(#Áåçûìÿííûé_ãðàäèåíò_16);}.cls-56{fill:url(#Áåçûìÿííûé_ãðàäèåíò_145);}.cls-57{fill:url(#Áåçûìÿííûé_ãðàäèåíò_145-2);}.cls-109,.cls-58,.cls-59,.cls-60{opacity:0.5;}.cls-58{fill:url(#Áåçûìÿííûé_ãðàäèåíò_2);}.cls-59{fill:url(#Áåçûìÿííûé_ãðàäèåíò_2-2);}.cls-60{fill:url(#Áåçûìÿííûé_ãðàäèåíò_2-3);}.cls-61{fill:url(#Áåçûìÿííûé_ãðàäèåíò_145-3);}.cls-62{fill:url(#Áåçûìÿííûé_ãðàäèåíò_145-4);}.cls-63{fill:url(#Áåçûìÿííûé_ãðàäèåíò_151);}.cls-64{fill:url(#Áåçûìÿííûé_ãðàäèåíò_152);}.cls-104,.cls-105,.cls-107,.cls-108,.cls-110,.cls-65,.cls-77,.cls-79,.cls-80,.cls-87,.cls-88,.cls-98,.cls-99{opacity:0.7;}.cls-104,.cls-105,.cls-107,.cls-108,.cls-109,.cls-110,.cls-65,.cls-77,.cls-79,.cls-80,.cls-86,.cls-87,.cls-88,.cls-95,.cls-96,.cls-98,.cls-99{mix-blend-mode:screen;}.cls-65{fill:url(#Áåçûìÿííûé_ãðàäèåíò_179);}.cls-66{fill:url(#Áåçûìÿííûé_ãðàäèåíò_33);}.cls-67{fill:url(#Áåçûìÿííûé_ãðàäèåíò_77);}.cls-68{fill:url(#Áåçûìÿííûé_ãðàäèåíò_153-3);}.cls-69{fill:url(#Áåçûìÿííûé_ãðàäèåíò_68-2);}.cls-70{fill:url(#Áåçûìÿííûé_ãðàäèåíò_132);}.cls-71{fill:url(#Áåçûìÿííûé_ãðàäèåíò_124);}.cls-72{fill:#50182a;}.cls-73{fill:#4b1124;}.cls-74{fill:#9a2463;opacity:0.6;}.cls-75{fill:url(#Áåçûìÿííûé_ãðàäèåíò_133-3);}.cls-76{fill:#755689;}.cls-113,.cls-77{fill:#fff;}.cls-78{fill:url(#Áåçûìÿííûé_ãðàäèåíò_133-4);}.cls-79{fill:url(#Áåçûìÿííûé_ãðàäèåíò_179-2);}.cls-80{fill:url(#Áåçûìÿííûé_ãðàäèåíò_179-3);}.cls-81{fill:url(#Áåçûìÿííûé_ãðàäèåíò_73-8);}.cls-82{fill:url(#Áåçûìÿííûé_ãðàäèåíò_73-9);}.cls-83{fill:url(#Áåçûìÿííûé_ãðàäèåíò_73-10);}.cls-84{fill:#93789d;}.cls-85{fill:url(#Áåçûìÿííûé_ãðàäèåíò_73-11);}.cls-86{opacity:0.33;fill:url(#Áåçûìÿííûé_ãðàäèåíò_167);}.cls-87{fill:url(#Áåçûìÿííûé_ãðàäèåíò_172);}.cls-88{fill:url(#Áåçûìÿííûé_ãðàäèåíò_172-2);}.cls-89{fill:url(#Áåçûìÿííûé_ãðàäèåíò_177);}.cls-90{fill:url(#Áåçûìÿííûé_ãðàäèåíò_73-12);}.cls-91{fill:url(#Áåçûìÿííûé_ãðàäèåíò_68-3);}.cls-92{fill:url(#Áåçûìÿííûé_ãðàäèåíò_84);}.cls-93{fill:url(#Áåçûìÿííûé_ãðàäèåíò_153-4);}.cls-94{fill:url(#Áåçûìÿííûé_ãðàäèåíò_153-5);}.cls-95{opacity:0.2;fill:url(#Áåçûìÿííûé_ãðàäèåíò_176);}.cls-114,.cls-96{opacity:0.4;}.cls-96{fill:url(#Áåçûìÿííûé_ãðàäèåíò_163);}.cls-97{fill:url(#Áåçûìÿííûé_ãðàäèåíò_153-6);}.cls-98{fill:url(#Áåçûìÿííûé_ãðàäèåíò_179-4);}.cls-99{fill:url(#Áåçûìÿííûé_ãðàäèåíò_179-5);}.cls-100{fill:url(#Áåçûìÿííûé_ãðàäèåíò_73-13);}.cls-102{fill:url(#Áåçûìÿííûé_ãðàäèåíò_73-14);}.cls-103{fill:url(#Áåçûìÿííûé_ãðàäèåíò_73-15);}.cls-104{fill:url(#Áåçûìÿííûé_ãðàäèåíò_179-6);}.cls-105{fill:url(#Áåçûìÿííûé_ãðàäèåíò_179-7);}.cls-106{fill:url(#Áåçûìÿííûé_ãðàäèåíò_201);}.cls-107{fill:url(#Áåçûìÿííûé_ãðàäèåíò_179-8);}.cls-108{fill:url(#Áåçûìÿííûé_ãðàäèåíò_208);}.cls-109{fill:url(#Áåçûìÿííûé_ãðàäèåíò_210);}.cls-110{fill:url(#Áåçûìÿííûé_ãðàäèåíò_210-2);}.cls-111{fill:#633640;}.cls-112{fill:url(#Áåçûìÿííûé_ãðàäèåíò_123);}.cls-115{fill:#79598a;}.cls-116{fill:url(#Áåçûìÿííûé_ãðàäèåíò_123-2);}.cls-117{fill:url(#Áåçûìÿííûé_ãðàäèåíò_123-3);}.cls-118{fill:url(#Áåçûìÿííûé_ãðàäèåíò_123-4);}.cls-119{fill:url(#Áåçûìÿííûé_ãðàäèåíò_123-5);}.cls-120{fill:url(#Áåçûìÿííûé_ãðàäèåíò_123-6);}.cls-121{fill:url(#Áåçûìÿííûé_ãðàäèåíò_123-7);}.cls-122{fill:url(#Áåçûìÿííûé_ãðàäèåíò_170);}.cls-123{fill:url(#Áåçûìÿííûé_ãðàäèåíò_170-2);}</style><radialGradient id="Áåçûìÿííûé_ãðàäèåíò_109" cx="215.89" cy="132.1" r="163.71" gradientUnits="userSpaceOnUse"><stop offset="0" stop-color="#98ffef"/><stop offset="0.98" stop-color="#77daff"/></radialGradient><radialGradient id="Áåçûìÿííûé_ãðàäèåíò_109-2" cx="420.63" cy="106.42" r="54.91" xlink:href="#Áåçûìÿííûé_ãðàäèåíò_109"/><radialGradient id="Áåçûìÿííûé_ãðàäèåíò_109-3" cx="30.05" cy="104.49" r="33.99" gradientTransform="translate(88.48 8.49) rotate(45)" xlink:href="#Áåçûìÿííûé_ãðàäèåíò_109"/><linearGradient id="Áåçûìÿííûé_ãðàäèåíò_118" x1="221.22" y1="111.06" x2="221.22" y2="66.71" gradientUnits="userSpaceOnUse"><stop offset="0.02" stop-color="#f0ecf4"/><stop offset="1" stop-color="#fff"/></linearGradient><linearGradient id="Áåçûìÿííûé_ãðàäèåíò_118-2" x1="82.14" y1="108.28" x2="112.24" y2="108.28" xlink:href="#Áåçûìÿííûé_ãðàäèåíò_118"/><linearGradient id="Áåçûìÿííûé_ãðàäèåíò_118-3" x1="321.07" y1="43.49" x2="321.07" y2="14.04" xlink:href="#Áåçûìÿííûé_ãðàäèåíò_118"/><linearGradient id="Áåçûìÿííûé_ãðàäèåíò_51" x1="41.16" y1="210.47" x2="41.16" y2="52.15" gradientTransform="matrix(-1, 0, 0, 1, 401.39, 0)" gradientUnits="userSpaceOnUse"><stop offset="0.02" stop-color="#8c74b1"/><stop offset="1" stop-color="#dcd8e9"/></linearGradient><linearGradient id="Áåçûìÿííûé_ãðàäèåíò_47" x1="44.66" y1="351.27" x2="44.66" y2="93.25" gradientTransform="matrix(-1, 0, 0, 1, 401.39, 0)" gradientUnits="userSpaceOnUse"><stop offset="0.02" stop-color="#8268aa"/><stop offset="1" stop-color="#a9a1ca"/></linearGradient><linearGradient id="Áåçûìÿííûé_ãðàäèåíò_24" x1="15.51" y1="358.12" x2="506.68" y2="358.12" gradientUnits="userSpaceOnUse"><stop offset="0" stop-color="#948abc"/><stop offset="0.98" stop-color="#b7a9ce"/></linearGradient><linearGradient id="Áåçûìÿííûé_ãðàäèåíò_41" x1="-105.29" y1="326.13" x2="385.89" y2="326.13" gradientTransform="matrix(-1, 0, 0, 1, 401.39, 0)" gradientUnits="userSpaceOnUse"><stop offset="0.02" stop-color="#d8cfe4"/><stop offset="1" stop-color="#f5f4f9"/></linearGradient><linearGradient id="Áåçûìÿííûé_ãðàäèåíò_24-2" x1="71.3" y1="306.38" x2="451.06" y2="306.38" xlink:href="#Áåçûìÿííûé_ãðàäèåíò_24"/><linearGradient id="Áåçûìÿííûé_ãðàäèåíò_41-2" x1="-49.67" y1="288.8" x2="330.09" y2="288.8" xlink:href="#Áåçûìÿííûé_ãðàäèåíò_41"/><linearGradient id="Áåçûìÿííûé_ãðàäèåíò_24-3" x1="106.57" y1="275.64" x2="419.19" y2="275.64" xlink:href="#Áåçûìÿííûé_ãðàäèåíò_24"/><linearGradient id="Áåçûìÿííûé_ãðàäèåíò_41-3" x1="-17.79" y1="266.33" x2="294.82" y2="266.33" xlink:href="#Áåçûìÿííûé_ãðàäèåíò_41"/><linearGradient id="Áåçûìÿííûé_ãðàäèåíò_24-4" x1="128.17" y1="257.75" x2="394.87" y2="257.75" xlink:href="#Áåçûìÿííûé_ãðàäèåíò_24"/><linearGradient id="Áåçûìÿííûé_ãðàäèåíò_24-5" x1="144.76" y1="244.53" x2="381.58" y2="244.53" xlink:href="#Áåçûìÿííûé_ãðàäèåíò_24"/><linearGradient id="Áåçûìÿííûé_ãðàäèåíò_41-4" x1="19.81" y1="239.38" x2="256.64" y2="239.38" xlink:href="#Áåçûìÿííûé_ãðàäèåíò_41"/><linearGradient id="Áåçûìÿííûé_ãðàäèåíò_24-6" x1="154.18" y1="345.81" x2="132.7" y2="185.64" gradientTransform="matrix(-1, 0, 0, 1, 401.39, 0)" xlink:href="#Áåçûìÿííûé_ãðàäèåíò_24"/><linearGradient id="Áåçûìÿííûé_ãðàäèåíò_24-7" x1="155.74" y1="350.1" x2="133.16" y2="181.77" gradientTransform="matrix(-1, 0, 0, 1, 401.39, 0)" xlink:href="#Áåçûìÿííûé_ãðàäèåíò_24"/><linearGradient id="Áåçûìÿííûé_ãðàäèåíò_24-8" x1="154.92" y1="349.01" x2="132.37" y2="180.85" gradientTransform="matrix(-1, 0, 0, 1, 401.39, 0)" xlink:href="#Áåçûìÿííûé_ãðàäèåíò_24"/><linearGradient id="Áåçûìÿííûé_ãðàäèåíò_24-9" x1="156.93" y1="347.12" x2="134.55" y2="180.2" gradientTransform="matrix(-1, 0, 0, 1, 401.39, 0)" xlink:href="#Áåçûìÿííûé_ãðàäèåíò_24"/><linearGradient id="Áåçûìÿííûé_ãðàäèåíò_24-10" x1="156.5" y1="343.09" x2="134.67" y2="180.26" gradientTransform="matrix(-1, 0, 0, 1, 401.39, 0)" xlink:href="#Áåçûìÿííûé_ãðàäèåíò_24"/><linearGradient id="Áåçûìÿííûé_ãðàäèåíò_24-11" x1="157.84" y1="347.05" x2="135.25" y2="178.62" gradientTransform="matrix(-1, 0, 0, 1, 401.39, 0)" xlink:href="#Áåçûìÿííûé_ãðàäèåíò_24"/><linearGradient id="Áåçûìÿííûé_ãðàäèåíò_41-5" x1="33.71" y1="228.95" x2="244.84" y2="228.95" xlink:href="#Áåçûìÿííûé_ãðàäèåíò_41"/><linearGradient id="Áåçûìÿííûé_ãðàäèåíò_35" x1="95.68" y1="183.54" x2="95.68" y2="55.07" gradientTransform="matrix(-1, 0, 0, 1, 401.39, 0)" gradientUnits="userSpaceOnUse"><stop offset="0" stop-color="#b2a5c9"/><stop offset="0.98" stop-color="#fdfdfd"/></linearGradient><linearGradient id="Áåçûìÿííûé_ãðàäèåíò_24-12" x1="160.59" y1="358.32" x2="136.24" y2="176.72" gradientTransform="matrix(-1, 0, 0, 1, 401.39, 0)" xlink:href="#Áåçûìÿííûé_ãðàäèåíò_24"/><linearGradient id="Áåçûìÿííûé_ãðàäèåíò_41-6" x1="6.56" y1="250.14" x2="273.22" y2="250.14" xlink:href="#Áåçûìÿííûé_ãðàäèåíò_41"/><linearGradient id="Áåçûìÿííûé_ãðàäèåíò_73" x1="103.28" y1="234.08" x2="207.23" y2="234.08" gradientUnits="userSpaceOnUse"><stop offset="0.02" stop-color="#d1a1d6"/><stop offset="0.99" stop-color="#bd89c4"/></linearGradient><linearGradient id="Áåçûìÿííûé_ãðàäèåíò_133" x1="182.3" y1="250.37" x2="182.3" y2="234.72" gradientUnits="userSpaceOnUse"><stop offset="0" stop-color="#aea8c2"/><stop offset="0.98" stop-color="#8c74b1"/></linearGradient><linearGradient id="Áåçûìÿííûé_ãðàäèåíò_73-2" x1="175.9" y1="242.91" x2="188.21" y2="242.91" xlink:href="#Áåçûìÿííûé_ãðàäèåíò_73"/><linearGradient id="Áåçûìÿííûé_ãðàäèåíò_133-2" x1="108.55" y1="319.03" x2="108.55" y2="302.01" xlink:href="#Áåçûìÿííûé_ãðàäèåíò_133"/><linearGradient id="Áåçûìÿííûé_ãðàäèåíò_73-3" x1="102.53" y1="310.52" x2="114.56" y2="310.52" xlink:href="#Áåçûìÿííûé_ãðàäèåíò_73"/><linearGradient id="Áåçûìÿííûé_ãðàäèåíò_40" x1="181.64" y1="140.68" x2="181.64" y2="120.08" gradientUnits="userSpaceOnUse"><stop offset="0.02" stop-color="#ff9f7a"/><stop offset="1" stop-color="#ffb06d"/></linearGradient><linearGradient id="Áåçûìÿííûé_ãðàäèåíò_73-4" x1="169.43" y1="139.8" x2="171.08" y2="130.46" xlink:href="#Áåçûìÿííûé_ãðàäèåíò_73"/><linearGradient id="Áåçûìÿííûé_ãðàäèåíò_73-5" x1="188.71" y1="127.36" x2="189.41" y2="123.36" xlink:href="#Áåçûìÿííûé_ãðàäèåíò_73"/><linearGradient id="Áåçûìÿííûé_ãðàäèåíò_73-6" x1="190.47" y1="129.24" x2="190.98" y2="126.31" xlink:href="#Áåçûìÿííûé_ãðàäèåíò_73"/><linearGradient id="Áåçûìÿííûé_ãðàäèåíò_153" x1="178.62" y1="140.9" x2="182.1" y2="121.14" gradientUnits="userSpaceOnUse"><stop offset="0.01" stop-color="#b060f4"/><stop offset="1" stop-color="#ffeadb"/></linearGradient><linearGradient id="Áåçûìÿííûé_ãðàäèåíò_68" x1="168.04" y1="143.72" x2="168.04" y2="132.63" gradientTransform="translate(-9.13 9.18) rotate(-3.85)" gradientUnits="userSpaceOnUse"><stop offset="0.02" stop-color="#e1dbeb"/><stop offset="0.17" stop-color="#e7e2f1"/><stop offset="0.56" stop-color="#f0ecfb"/><stop offset="1" stop-color="#f3f0fe"/></linearGradient><radialGradient id="Áåçûìÿííûé_ãðàäèåíò_93" cx="160.45" cy="136.23" r="5.82" gradientTransform="translate(-9.13 9.18) rotate(-3.85)" gradientUnits="userSpaceOnUse"><stop offset="0" stop-color="#4b3272"/><stop offset="0.99" stop-color="#432160"/></radialGradient><linearGradient id="Áåçûìÿííûé_ãðàäèåíò_26" x1="191.09" y1="264.86" x2="191.09" y2="254.34" gradientUnits="userSpaceOnUse"><stop offset="0" stop-color="#ffb827"/><stop offset="1" stop-color="#ff6b22"/></linearGradient><linearGradient id="Áåçûìÿííûé_ãðàäèåíò_26-2" x1="118.1" y1="336.95" x2="118.1" y2="322.66" xlink:href="#Áåçûìÿííûé_ãðàäèåíò_26"/><radialGradient id="Áåçûìÿííûé_ãðàäèåíò_93-2" cx="121.38" cy="208.37" r="61.76" gradientTransform="matrix(1, 0, 0, 1, 0, 0)" xlink:href="#Áåçûìÿííûé_ãðàäèåíò_93"/><linearGradient id="Áåçûìÿííûé_ãðàäèåíò_184" x1="101.02" y1="322.16" x2="134.63" y2="322.16" gradientUnits="userSpaceOnUse"><stop offset="0.01" stop-color="#570e33"/><stop offset="1" stop-color="#8d4009"/></linearGradient><linearGradient id="Áåçûìÿííûé_ãðàäèåíò_184-2" x1="173.49" y1="252.69" x2="208.55" y2="252.69" xlink:href="#Áåçûìÿííûé_ãðàäèåíò_184"/><linearGradient id="Áåçûìÿííûé_ãðàäèåíò_40-2" x1="154.99" y1="82.21" x2="154.99" y2="37.41" xlink:href="#Áåçûìÿííûé_ãðàäèåíò_40"/><linearGradient id="Áåçûìÿííûé_ãðàäèåíò_153-2" x1="154.43" y1="80.93" x2="154.43" y2="56.82" xlink:href="#Áåçûìÿííûé_ãðàäèåíò_153"/><linearGradient id="Áåçûìÿííûé_ãðàäèåíò_285" x1="168.4" y1="63.4" x2="171.22" y2="47.41" gradientUnits="userSpaceOnUse"><stop offset="0" stop-color="#ffeadb"/><stop offset="0.99" stop-color="#b060f4"/></linearGradient><linearGradient id="Áåçûìÿííûé_ãðàäèåíò_285-2" x1="163.05" y1="66.92" x2="164.52" y2="58.56" xlink:href="#Áåçûìÿííûé_ãðàäèåíò_285"/><linearGradient id="Áåçûìÿííûé_ãðàäèåíò_73-7" x1="152.08" y1="78.38" x2="154.7" y2="63.51" xlink:href="#Áåçûìÿííûé_ãðàäèåíò_73"/><linearGradient id="Áåçûìÿííûé_ãðàäèåíò_16" x1="154.26" y1="70.96" x2="154.26" y2="34.09" gradientUnits="userSpaceOnUse"><stop offset="0.01" stop-color="#721d3b"/><stop offset="1" stop-color="#a63624"/></linearGradient><linearGradient id="Áåçûìÿííûé_ãðàäèåíò_145" x1="162.82" y1="59.66" x2="164.68" y2="49.16" gradientUnits="userSpaceOnUse"><stop offset="0.01" stop-color="#ae3438"/><stop offset="0.99" stop-color="#e06e31"/></linearGradient><linearGradient id="Áåçûìÿííûé_ãðàäèåíò_145-2" x1="166.6" y1="53.03" x2="167.59" y2="47.43" xlink:href="#Áåçûìÿííûé_ãðàäèåíò_145"/><linearGradient id="Áåçûìÿííûé_ãðàäèåíò_2" x1="160.75" y1="37.98" x2="161.41" y2="34.21" gradientUnits="userSpaceOnUse"><stop offset="0.01" stop-color="#be6888"/><stop offset="1" stop-color="#8e81f4"/></linearGradient><linearGradient id="Áåçûìÿííûé_ãðàäèåíò_2-2" x1="150.59" y1="72.42" x2="156.59" y2="38.39" xlink:href="#Áåçûìÿííûé_ãðàäèåíò_2"/><linearGradient id="Áåçûìÿííûé_ãðàäèåíò_2-3" x1="156.91" y1="41.73" x2="157.47" y2="38.55" xlink:href="#Áåçûìÿííûé_ãðàäèåíò_2"/><linearGradient id="Áåçûìÿííûé_ãðàäèåíò_145-3" x1="160.17" y1="41.62" x2="173.49" y2="41.62" xlink:href="#Áåçûìÿííûé_ãðàäèåíò_145"/><linearGradient id="Áåçûìÿííûé_ãðàäèåíò_145-4" x1="150.88" y1="36.35" x2="160.79" y2="36.35" xlink:href="#Áåçûìÿííûé_ãðàäèåíò_145"/><linearGradient id="Áåçûìÿííûé_ãðàäèåíò_151" x1="161.15" y1="50.15" x2="162.81" y2="40.74" gradientUnits="userSpaceOnUse"><stop offset="0.01" stop-color="#ae3438"/><stop offset="0.99" stop-color="#b54f31"/></linearGradient><linearGradient id="Áåçûìÿííûé_ãðàäèåíò_152" x1="140.49" y1="46.48" x2="141.87" y2="38.66" gradientUnits="userSpaceOnUse"><stop offset="0.01" stop-color="#e06e31"/><stop offset="0.99" stop-color="#ae3438"/></linearGradient><linearGradient id="Áåçûìÿííûé_ãðàäèåíò_179" x1="160.17" y1="44.86" x2="173.69" y2="44.86" gradientUnits="userSpaceOnUse"><stop offset="0"/><stop offset="0.08" stop-color="#081a1c"/><stop offset="0.34" stop-color="#1f676b"/><stop offset="0.57" stop-color="#32a3ab"/><stop offset="0.77" stop-color="#3fcfd8"/><stop offset="0.91" stop-color="#47eaf5"/><stop offset="1" stop-color="#4af4ff"/></linearGradient><radialGradient id="Áåçûìÿííûé_ãðàäèåíò_33" cx="119.51" cy="168.69" r="9.01" xlink:href="#Áåçûìÿííûé_ãðàäèåíò_133"/><radialGradient id="Áåçûìÿííûé_ãðàäèåíò_77" cx="121.86" cy="108.16" r="40.64" gradientUnits="userSpaceOnUse"><stop offset="0" stop-color="#543c79"/><stop offset="0.99" stop-color="#432160"/></radialGradient><linearGradient id="Áåçûìÿííûé_ãðàäèåíò_153-3" x1="122.97" y1="168.81" x2="138.5" y2="80.74" xlink:href="#Áåçûìÿííûé_ãðàäèåíò_153"/><linearGradient id="Áåçûìÿííûé_ãðàäèåíò_68-2" x1="147.93" y1="78.84" x2="147.93" y2="75.38" gradientTransform="matrix(1, 0, 0, 1, 0, 0)" xlink:href="#Áåçûìÿííûé_ãðàäèåíò_68"/><linearGradient id="Áåçûìÿííûé_ãðàäèåíò_132" x1="96.74" y1="219.36" x2="168.44" y2="219.36" gradientTransform="matrix(1, -0.07, 0.07, 1, -14.56, 6.6)" gradientUnits="userSpaceOnUse"><stop offset="0.01" stop-color="#570e33"/><stop offset="1" stop-color="#893100"/></linearGradient><linearGradient id="Áåçûìÿííûé_ãðàäèåíò_124" x1="112.07" y1="198.26" x2="168.44" y2="198.26" gradientTransform="matrix(1, -0.07, 0.07, 1, -14.56, 6.6)" gradientUnits="userSpaceOnUse"><stop offset="0" stop-color="#8d4009"/><stop offset="0.99" stop-color="#cc5a33"/></linearGradient><linearGradient id="Áåçûìÿííûé_ãðàäèåíò_133-3" x1="143.64" y1="224.03" x2="143.64" y2="216.08" xlink:href="#Áåçûìÿííûé_ãðàäèåíò_133"/><linearGradient id="Áåçûìÿííûé_ãðàäèåíò_133-4" x1="138.98" y1="234.91" x2="138.98" y2="229.49" xlink:href="#Áåçûìÿííûé_ãðàäèåíò_133"/><linearGradient id="Áåçûìÿííûé_ãðàäèåíò_179-2" x1="155.12" y1="210.07" x2="167.17" y2="210.07" xlink:href="#Áåçûìÿííûé_ãðàäèåíò_179"/><linearGradient id="Áåçûìÿííûé_ãðàäèåíò_179-3" x1="150.48" y1="233.63" x2="160.7" y2="233.63" xlink:href="#Áåçûìÿííûé_ãðàäèåíò_179"/><linearGradient id="Áåçûìÿííûé_ãðàäèåíò_73-8" x1="162.52" y1="113.28" x2="162.75" y2="111.99" xlink:href="#Áåçûìÿííûé_ãðàäèåíò_73"/><linearGradient id="Áåçûìÿííûé_ãðàäèåíò_73-9" x1="134.69" y1="181.26" x2="151.07" y2="88.36" xlink:href="#Áåçûìÿííûé_ãðàäèåíò_73"/><linearGradient id="Áåçûìÿííûé_ãðàäèåíò_73-10" x1="141.21" y1="91.2" x2="143.99" y2="75.46" xlink:href="#Áåçûìÿííûé_ãðàäèåíò_73"/><linearGradient id="Áåçûìÿííûé_ãðàäèåíò_73-11" x1="181.81" y1="186.43" x2="202.01" y2="186.43" xlink:href="#Áåçûìÿííûé_ãðàäèåíò_73"/><linearGradient id="Áåçûìÿííûé_ãðàäèåíò_167" x1="157.14" y1="165.96" x2="208.38" y2="165.96" gradientUnits="userSpaceOnUse"><stop offset="0"/><stop offset="0.08" stop-color="#11121c"/><stop offset="0.34" stop-color="#42476b"/><stop offset="0.57" stop-color="#6971ab"/><stop offset="0.77" stop-color="#858fd8"/><stop offset="0.91" stop-color="#97a2f5"/><stop offset="1" stop-color="#9da9ff"/></linearGradient><linearGradient id="Áåçûìÿííûé_ãðàäèåíò_172" x1="123.13" y1="302.87" x2="123.13" y2="250.25" gradientUnits="userSpaceOnUse"><stop offset="0" stop-color="#4af4ff"/><stop offset="0.09" stop-color="#47eaf5"/><stop offset="0.23" stop-color="#3fcfd8"/><stop offset="0.43" stop-color="#32a3ab"/><stop offset="0.66" stop-color="#1f676b"/><stop offset="0.92" stop-color="#081a1c"/><stop offset="1"/></linearGradient><linearGradient id="Áåçûìÿííûé_ãðàäèåíò_172-2" x1="202.82" y1="226.82" x2="202.82" y2="171.68" xlink:href="#Áåçûìÿííûé_ãðàäèåíò_172"/><linearGradient id="Áåçûìÿííûé_ãðàäèåíò_177" x1="144.39" y1="189.43" x2="144.39" y2="171.7" gradientUnits="userSpaceOnUse"><stop offset="0" stop-color="#f4867c"/><stop offset="0.98" stop-color="#ff9f68"/></linearGradient><linearGradient id="Áåçûìÿííûé_ãðàäèåíò_73-12" x1="142.71" y1="189.87" x2="145.77" y2="172.52" xlink:href="#Áåçûìÿííûé_ãðàäèåíò_73"/><linearGradient id="Áåçûìÿííûé_ãðàäèåíò_68-3" x1="143.92" y1="174.04" x2="143.92" y2="171.39" gradientTransform="matrix(1, 0, 0, 1, 0, 0)" xlink:href="#Áåçûìÿííûé_ãðàäèåíò_68"/><linearGradient id="Áåçûìÿííûé_ãðàäèåíò_84" x1="156.37" y1="173.35" x2="156.37" y2="80.14" gradientUnits="userSpaceOnUse"><stop offset="0" stop-color="#644e85"/><stop offset="0.99" stop-color="#4b2b67"/></linearGradient><linearGradient id="Áåçûìÿííûé_ãðàäèåíò_153-4" x1="147.56" y1="169.95" x2="154.99" y2="127.77" xlink:href="#Áåçûìÿííûé_ãðàäèåíò_153"/><linearGradient id="Áåçûìÿííûé_ãðàäèåíò_153-5" x1="147.7" y1="169.97" x2="151.52" y2="148.25" xlink:href="#Áåçûìÿííûé_ãðàäèåíò_153"/><linearGradient id="Áåçûìÿííûé_ãðàäèåíò_176" x1="144.39" y1="101.66" x2="178.48" y2="101.66" gradientUnits="userSpaceOnUse"><stop offset="0"/><stop offset="0.08" stop-color="#071c1c"/><stop offset="0.34" stop-color="#1c6b6b"/><stop offset="0.57" stop-color="#2dabab"/><stop offset="0.77" stop-color="#39d8d8"/><stop offset="0.91" stop-color="#40f5f5"/><stop offset="1" stop-color="#43ffff"/></linearGradient><linearGradient id="Áåçûìÿííûé_ãðàäèåíò_163" x1="141.53" y1="132.64" x2="143.47" y2="121.64" gradientUnits="userSpaceOnUse"><stop offset="0" stop-color="#6a6f77"/><stop offset="0.15" stop-color="#61656d"/><stop offset="0.42" stop-color="#484b51"/><stop offset="0.76" stop-color="#1f2123"/><stop offset="1"/></linearGradient><linearGradient id="Áåçûìÿííûé_ãðàäèåíò_153-6" x1="136.89" y1="172.85" x2="140.88" y2="150.27" xlink:href="#Áåçûìÿííûé_ãðàäèåíò_153"/><linearGradient id="Áåçûìÿííûé_ãðàäèåíò_179-4" x1="157.11" y1="97.89" x2="178.21" y2="97.89" xlink:href="#Áåçûìÿííûé_ãðàäèåíò_179"/><linearGradient id="Áåçûìÿííûé_ãðàäèåíò_179-5" x1="164.71" y1="164.96" x2="208.36" y2="164.96" xlink:href="#Áåçûìÿííûé_ãðàäèåíò_179"/><linearGradient id="Áåçûìÿííûé_ãðàäèåíò_73-13" x1="122.05" y1="319.49" x2="122.06" y2="319.49" xlink:href="#Áåçûìÿííûé_ãðàäèåíò_73"/><linearGradient id="Áåçûìÿííûé_ãðàäèåíò_73-14" x1="101.02" y1="323.56" x2="134.63" y2="323.56" xlink:href="#Áåçûìÿííûé_ãðàäèåíò_73"/><linearGradient id="Áåçûìÿííûé_ãðàäèåíò_73-15" x1="173.49" y1="253.97" x2="208.55" y2="253.97" xlink:href="#Áåçûìÿííûé_ãðàäèåíò_73"/><linearGradient id="Áåçûìÿííûé_ãðàäèåíò_179-6" x1="194.63" y1="255.33" x2="205.88" y2="255.33" xlink:href="#Áåçûìÿííûé_ãðàäèåíò_179"/><linearGradient id="Áåçûìÿííûé_ãðàäèåíò_179-7" x1="125.76" y1="324.57" x2="132.24" y2="324.57" xlink:href="#Áåçûìÿííûé_ãðàäèåíò_179"/><linearGradient id="Áåçûìÿííûé_ãðàäèåíò_201" x1="143.35" y1="128.14" x2="170.93" y2="128.14" gradientUnits="userSpaceOnUse"><stop offset="0" stop-color="#d40e27"/><stop offset="1" stop-color="#ff4025"/></linearGradient><linearGradient id="Áåçûìÿííûé_ãðàäèåíò_179-8" x1="161.16" y1="134.27" x2="164.48" y2="115.43" xlink:href="#Áåçûìÿííûé_ãðàäèåíò_179"/><linearGradient id="Áåçûìÿííûé_ãðàäèåíò_208" x1="122.48" y1="143.16" x2="122.48" y2="100.08" gradientUnits="userSpaceOnUse"><stop offset="0"/><stop offset="0.08" stop-color="#1c090d"/><stop offset="0.34" stop-color="#6b2233"/><stop offset="0.57" stop-color="#ab3651"/><stop offset="0.77" stop-color="#d84567"/><stop offset="0.91" stop-color="#f54e74"/><stop offset="1" stop-color="#ff5179"/></linearGradient><linearGradient id="Áåçûìÿííûé_ãðàäèåíò_210" x1="105.24" y1="311.23" x2="105.24" y2="256.33" gradientUnits="userSpaceOnUse"><stop offset="0" stop-color="#ff5179"/><stop offset="0.09" stop-color="#f54e74"/><stop offset="0.23" stop-color="#d84567"/><stop offset="0.43" stop-color="#ab3651"/><stop offset="0.66" stop-color="#6b2233"/><stop offset="0.92" stop-color="#1c090d"/><stop offset="1"/></linearGradient><linearGradient id="Áåçûìÿííûé_ãðàäèåíò_210-2" x1="180.2" y1="238.35" x2="180.2" y2="196.65" xlink:href="#Áåçûìÿííûé_ãðàäèåíò_210"/><radialGradient id="Áåçûìÿííûé_ãðàäèåíò_123" cx="261.02" cy="290.15" r="156.74" gradientUnits="userSpaceOnUse"><stop offset="0" stop-color="#ff5627"/><stop offset="1" stop-color="#e03347"/></radialGradient><radialGradient id="Áåçûìÿííûé_ãðàäèåíò_123-2" cx="467.15" cy="234.35" r="18.21" xlink:href="#Áåçûìÿííûé_ãðàäèåíò_123"/><radialGradient id="Áåçûìÿííûé_ãðàäèåíò_123-3" cx="453.38" cy="193.35" r="11.61" gradientTransform="translate(272.18 -260.93) rotate(45)" xlink:href="#Áåçûìÿííûé_ãðàäèåíò_123"/><radialGradient id="Áåçûìÿííûé_ãðàäèåíò_123-4" cx="415.35" cy="233.8" r="8.88" xlink:href="#Áåçûìÿííûé_ãðàäèåíò_123"/><radialGradient id="Áåçûìÿííûé_ãðàäèåíò_123-5" cx="398.2" cy="200.27" r="7.63" gradientTransform="translate(259.89 -219.86) rotate(45)" xlink:href="#Áåçûìÿííûé_ãðàäèåíò_123"/><radialGradient id="Áåçûìÿííûé_ãðàäèåíò_123-6" cx="390.02" cy="213.35" r="5.97" xlink:href="#Áåçûìÿííûé_ãðàäèåíò_123"/><radialGradient id="Áåçûìÿííûé_ãðàäèåíò_123-7" cx="340.8" cy="180.61" r="4.97" xlink:href="#Áåçûìÿííûé_ãðàäèåíò_123"/><linearGradient id="Áåçûìÿííûé_ãðàäèåíò_170" x1="408.5" y1="103.52" x2="408.5" y2="99.8" gradientUnits="userSpaceOnUse"><stop offset="0" stop-color="#e03347"/><stop offset="1" stop-color="#ff5627"/></linearGradient><linearGradient id="Áåçûìÿííûé_ãðàäèåíò_170-2" x1="374.26" y1="136.71" x2="374.26" y2="129.29" xlink:href="#Áåçûìÿííûé_ãðàäèåíò_170"/></defs><title>ca</title><g class="cls-1"><g id="Layer_2" data-name="Layer 2"><g id="career"><circle class="cls-2" cx="234.85" cy="163.71" r="163.71"/><circle class="cls-3" cx="426.99" cy="117.02" r="54.91"/><circle class="cls-4" cx="33.99" cy="111.06" r="33.99" transform="translate(-68.57 56.56) rotate(-45)"/><path class="cls-5" d="M148.44,111.06H294s.92-7.69-7.35-11.25-16.24,8.9-16.24,8.9-7-36-42.21-41.54-43,40.38-43,40.38-1.37-6.1-5.15-5.63-5.83,7.26-5.83,7.26S159.27,96.25,148.44,111.06Z"/><path class="cls-6" d="M112.24,111.06H82.14S102.13,98.56,112.24,111.06Z"/><path class="cls-7" d="M244.85,42.65l152.44.84S394,33,378.05,41.15c0,0-4.93-26.53-29.37-27.1S317.61,41,317.61,41s-7.39-6.26-14.78-5.88-8.72,6.07-8.72,6.07S283.5,18.79,268.72,17.27,244.85,42.65,244.85,42.65Z"/><polygon class="cls-8" points="332.27 52.15 332.45 204.25 367.25 210.47 388.19 86.37 332.27 52.15"/><polygon class="cls-9" points="417 351.27 398.95 93.25 369.81 112.13 299.26 171.7 296.48 189.43 417 351.27"/><polygon class="cls-10" points="498.86 379.31 506.68 336.95 15.51 336.94 19.64 371.84 498.86 379.31"/><polygon class="cls-11" points="506.68 336.95 450.57 318.94 74.9 315.3 15.51 336.94 506.68 336.95"/><polygon class="cls-12" points="450.57 318.94 451.06 293.82 71.3 293.82 74.9 315.3 450.57 318.94"/><polygon class="cls-13" points="71.3 293.82 108.64 283.78 418.91 283.78 451.06 293.82 71.3 293.82"/><polygon class="cls-14" points="108.5 283.78 106.57 267.5 419.19 268.72 418.91 283.78 108.5 283.78"/><polygon class="cls-15" points="106.57 267.5 131.15 264.82 394.88 263.94 419.19 268.72 106.57 267.5"/><polygon class="cls-16" points="394.88 263.94 394.84 250.64 128.18 251.2 129.48 264.86 394.88 263.94"/><polygon class="cls-17" points="381.58 249.92 381.58 240.47 144.76 239.14 145.09 249.92 381.58 249.92"/><polygon class="cls-18" points="381.58 240.47 367.69 239.14 156.88 238.28 144.76 239.14 381.58 240.47"/><polygon class="cls-19" points="367.69 239.14 367.69 229.09 156.55 230.18 156.84 238.28 367.69 239.14"/><polygon class="cls-20" points="356.13 230.79 356.13 220.65 168.46 221.25 168.84 232.1 356.13 230.79"/><polygon class="cls-21" points="348.86 214.75 349.59 223.15 178.47 223.15 178.39 213.7 348.86 214.75"/><polygon class="cls-22" points="338.62 207.49 338.84 216.45 186.62 217.65 186.33 207.49 338.62 207.49"/><polygon class="cls-23" points="331.78 202.25 332.27 209.82 194.39 210.47 194.39 201.32 331.78 202.25"/><polygon class="cls-24" points="325.28 197.22 325.65 203.3 200.93 201.38 200.93 196.47 325.28 197.22"/><polygon class="cls-25" points="156.55 230.18 168.75 229 356.13 227.73 367.69 229.09 156.55 230.18"/><polygon class="cls-26" points="212.47 191.67 373.62 86.07 332.27 52.15 338.17 52.55 398.95 93.25 311.69 185.36 311.69 185.36 311.69 189.43 311.52 193.21 302.36 195.2 212.47 191.67"/><polygon class="cls-27" points="318.2 198.09 318.2 191.67 207.23 191.67 207.23 198.06 318.2 198.09"/><polygon class="cls-28" points="394.84 250.64 381.58 249.07 142.59 249.92 128.18 251.2 394.84 250.64"/><polygon class="cls-29" points="170.89 267.1 180.2 266.33 204.6 266.33 193.86 267.87 193.63 283.78 158.67 293.82 159.48 316.21 117.83 336.95 117.83 372.21 33.99 372.21 36.44 336.95 121.26 315.84 123.13 293.82 169.4 283.78 170.89 267.1"/><path class="cls-30" d="M198,226.82s-5.08,3.41-6,4.37a45.62,45.62,0,0,0-3.49,5.76c.29-1.27,10.07-43.19,9.37-45.6s-11.28-1.11-16.07,5.3c.82-3.49,8.44-15.24,8.44-15.24-4.73.49-26.54,5.2-26.54,5.2C159,187.84,145.5,194,145.5,194c-1.84,12.54-12.24,43.69-16.54,56.26a25.12,25.12,0,0,0-4.48,4.09c-1.93,2.52-8.59,38.14-7.19,48.53a12.31,12.31,0,0,0-3.5,1.23,10.25,10.25,0,0,0-2.15,2.31c1.73-10.19,6.34-38.26,6.19-48.5a12.71,12.71,0,0,0-14.55-1.58c.7-1.4,4.9-5.43,7.71-11s9.94-50.89,9.94-50.89l-1.28-3,2.55-14.84,37.66-13.91a29.63,29.63,0,0,1,4.07-.94l-5.26,6.38s-1.84,2.9,13,2.73S207.23,169,207.23,169,191.91,215.33,198,226.82Z"/><path class="cls-31" d="M188.7,241.15l-.49,1.73h0l-.05.19s.19,4.18-1.57,6.21a3,3,0,0,1-2.08,1.08s-.15-.3-.4-.77c-.8-1.45-2.51-4.47-3.35-4.77a18.46,18.46,0,0,0-4.26-.35s-.7-1.23-.58-1.7,1-.87,1-.87l1-3.29.47-1.56,9.47-2.34s-.05.63-.11,1.51-.13,2.24-.1,3.25a4.83,4.83,0,0,0,.21,1.67Z"/><path class="cls-32" d="M188.21,242.89l-.05.19s.19,4.18-1.57,6.21l-2.48.31c-.8-1.45-2.51-4.47-3.35-4.77a18.46,18.46,0,0,0-4.26-.35s-.7-1.23-.58-1.7,1-.87,1-.87l1-3.29,5.53-2.23,4.3-.16c-.07,1-.13,2.24-.1,3.25v0s-1.4,2.42-7.79,2.49l-1.41.55s8,1.59,9.79.33Z"/><path class="cls-33" d="M114.2,318.63c-1.23,1.54-11.4-1.82-11.4-1.82l-.27-5.92L113,302l-.17,4.55s1.18,0,1.31.39-1,2.55-1,2.55S115.42,317.1,114.2,318.63Z"/><path class="cls-34" d="M114.2,318.63c-1.23,1.54-11.4-1.82-11.4-1.82l-.27-5.92L113,302l-.17,4.55a19.92,19.92,0,0,1-7.08,7.3c.45-.2,7.48-3.54,8.39-6.91.14.36-1,2.55-1,2.55S115.42,317.1,114.2,318.63Z"/><path class="cls-35" d="M197.19,127.46s.47.71.23,1.07-1.55.46-3.61.9h0l-.39.08-.28.07-.14,0c-1.43.33-3.1.75-4.86,1.33a31.61,31.61,0,0,0-9.06,5.07l1,.35a31.59,31.59,0,0,0,4.47-1,18.38,18.38,0,0,0,2.69-1.62s3.47-.35,5,1.38l-.46,1.26a16.3,16.3,0,0,0-7.32,1.32,57.42,57.42,0,0,1-7,2.95.88.88,0,0,1-.33,0,6.36,6.36,0,0,1-.61-.23l-.37-.18c-1.09-.51-2.58-1.37-3.66-1.91l-.45-.23a.33.33,0,0,1-.12-.05l-.3-.12h0a.75.75,0,0,0-.23-.07.38.38,0,0,0-.17,0,9,9,0,0,0-1.9.5c-.93.3-2,.7-2.78,1l-1.08.41,1.84-8.16.7-.24.41-.14.41-.14c1-.34,2.27-.79,3-1.08,1.31-.54,8.35-8.1,10.06-8.84a27.07,27.07,0,0,1,6-1,1.67,1.67,0,0,1-.24,1.07,36.79,36.79,0,0,1-3.55,1.61h0a13.55,13.55,0,0,0-1.75.82,14.24,14.24,0,0,0-1.63,1.77A22.65,22.65,0,0,1,186.1,123a5.41,5.41,0,0,1,.55-.12c2.81-.5,8.9.49,8.9.49s.29,1.25-.19,1.68a9.84,9.84,0,0,1,2.34.65C198.1,126.05,197.79,127.11,197.19,127.46Z"/><path class="cls-36" d="M172.71,138.44a6,6,0,0,0-1.54-.65,9,9,0,0,0-1.9.5c-.93.3-2,.7-2.78,1l1.74-8.08.23-1,2.12.22h0C172,132.64,172.71,138.44,172.71,138.44Z"/><path class="cls-37" d="M195.61,124.46a56.14,56.14,0,0,0-7.16,0,22.3,22.3,0,0,0-5.95,1.81s6.56-2.54,12.86-1.21A1.32,1.32,0,0,0,195.61,124.46Z"/><path class="cls-38" d="M197.19,127.46a25.65,25.65,0,0,0-7.25-.72,13.34,13.34,0,0,0-5.69,1.4,42.88,42.88,0,0,1,7.22-1C194.19,127.11,197.19,127.46,197.19,127.46Z"/><path class="cls-39" d="M193,129.62c-1.43.33-3.1.75-4.86,1.33a31.61,31.61,0,0,0-9.06,5.07s-2.12,3.24-2,4.61a6.36,6.36,0,0,1-.61-.23l-.37-.18c-1.09-.51-2.58-1.37-3.66-1.91l-.45-.23a.33.33,0,0,1-.12-.05l-.3-.12h0a1.19,1.19,0,0,0-.23-.07.38.38,0,0,0-.17,0,9,9,0,0,0-1.9.5l-1.32-7,.41-.14.41-.14c1-.34,2.27-.79,3-1.08,1.31-.54,8.35-8.1,10.06-8.84l-.62.93,1.87.49,1,.25a13.55,13.55,0,0,0-1.75.82,14.24,14.24,0,0,0-1.63,1.77A22.65,22.65,0,0,1,186.1,123c0,.5.09,1.59.55,1.77,0,0,0,1.94.67,2.29,0,0,0,2.68,1.73,2.89A14.8,14.8,0,0,0,193,129.62Z"/><path class="cls-40" d="M167.79,130.25l2.16-.2s1.35,6.24-1.48,10.37l-2.94,1.05S168.28,132.62,167.79,130.25Z"/><path class="cls-41" d="M161.1,130l7.35.18s0,9.26-3.3,13.21l-6.48.43S160.65,133.68,161.1,130Z"/><path class="cls-42" d="M190.69,263.51l-3.45-.26-2-.15s.22-.45.55-1c.63-1,1.66-2.47,2.6-2.48.75,0,1.35,1,1.75,2h0A15.23,15.23,0,0,1,190.69,263.51Z"/><path class="cls-43" d="M208.55,254.34h0a4.26,4.26,0,0,1-.26.62c-4.15,9-17.59,8.54-17.59,8.54s-1.36-1.84-2-1.75c-.37.05-1,.85-1.46,1.49-.33.47-.58.87-.58.87-4.29,1.67-12.26,0-12.26,0l-.77-3L186,256.27l5.88-.5Z"/><path class="cls-42" d="M121.26,333.7l-4.29-.25-1.82-.1a7.58,7.58,0,0,1,.1-.77c.22-1.24.9-3.5,2.85-2.77a4.93,4.93,0,0,1,2.68,2.52A5.85,5.85,0,0,1,121.26,333.7Z"/><path class="cls-44" d="M134.63,322.66c-1.4,9.81-13.37,11-13.37,11a5.44,5.44,0,0,0-3.43-1.23l-.86,1-1.89,2.17c-4.68,2.69-13.09.47-13.09.47l-.42-2.64v-.4l2.52-4.31L121,325.37Z"/><path class="cls-45" d="M208.41,171.68c-.54,3.92-2.55,11-4.71,20.19-2.84,12-5.49,33.55-5.65,34.88v.07s-5.08,3.41-6,4.37a45.62,45.62,0,0,0-3.49,5.76h0v0c-4.21,4.55-11.77,2.52-11.77,2.52l.3-1.15c2.92-6.54,4-38.19,4.78-41.7s8.44-15.24,8.44-15.24c-4.73.49-26.54,5.2-26.54,5.2C159,187.84,145.5,194,145.5,194c-1.63,11.08-9.95,36.73-14.83,51.2h0c-.64,1.89-1.21,3.59-1.71,5.05a.63.63,0,0,0,0,.14c-1.12,3.28-1.82,5.24-1.82,5.24-4.34,11.86-9.32,44-9.77,47,0,.07,0,.14,0,.22a12.31,12.31,0,0,0-3.5,1.23,10.25,10.25,0,0,0-2.15,2.31c-.93,1.24-1.7,2.47-1.7,2.47-2.93,2.63-8,2.35-8,2.35l-.27-1.83c-3-22.59.88-51.67,1.58-53.07s4.28-4.83,7-9.77c.24-.41.47-.84.68-1.26,2.8-5.61,9.94-50.89,9.94-50.89l-1.28-3,2.55-14.84,37.66-13.91a29.63,29.63,0,0,1,4.07-.94l.78-.12h.07c14.61-2,35.84,3.33,41.92,6.07l.05,0a3.78,3.78,0,0,1,1.63,1.05A6.46,6.46,0,0,1,208.41,171.68Z"/><path class="cls-46" d="M134.63,322.66c-1.17,7.59-12.61,10.26-12.61,10.26s-.53-.27-1.24-.59c-1-.46-2.46-1-3.13-.81a16.49,16.49,0,0,0-2.4,1.06c-.87.45-1.59.87-1.59.87a27.23,27.23,0,0,1-12.09,0,7,7,0,0,1-.53-2.8c.14-1.23,1.76-13.84,1.76-13.84s6.15-.1,8.07-1.68c.44-.36,2.27,2.88,2.57,2.39,1-1.64-.26-7.35-.26-7.35s5.35,6.59,8.87,9.32h0a6,6,0,0,0,1.77,1.06,12.21,12.21,0,0,0,6.66-.24A5.35,5.35,0,0,1,134.63,322.66Z"/><path class="cls-47" d="M153.19,176.21c-2.44,4.57-2.53,6.08-2.53,6.08s7.68,3.74,13.05,4.32C159,187.84,145.5,194,145.5,194c-1.63,11.08-9.95,36.73-14.83,51.2h0a137.9,137.9,0,0,0-20.36,1.36c.24-.41.47-.84.68-1.26,2.8-5.61,9.94-50.89,9.94-50.89l-1.28-3,2.55-14.84,37.66-13.91a29.63,29.63,0,0,1,4.07-.94l.78-.12,0,.12-1.32.78S155.63,171.64,153.19,176.21Z"/><path class="cls-48" d="M208.55,254.34a4,4,0,0,1-.27.63,11.92,11.92,0,0,1-5.33,5c-4.41,2.29-12.5,1.87-12.5,1.87l-.34-.23h0a6.18,6.18,0,0,0-1.4-.75c-.17.05-2.1,1.05-2.1,1.05-.27.06-.56.1-.85.14-5.7.84-12.12-1-12.12-1-.93-5.49,2.87-16.64,2.87-16.64s4.69-1.29,6.56-.59,2.9,3.63,3.95,3.63c.83,0,1.15-4.44,1.15-4.44a41,41,0,0,0,5.3,6.25,9.27,9.27,0,0,0,2.92,1.92c3.5,1.22,9,1.17,9,1.17A3.53,3.53,0,0,1,208.55,254.34Z"/><path class="cls-49" d="M169.79,62.48A30.92,30.92,0,0,0,171,65.69c.47.86.68,1.24.66,1.46A2.27,2.27,0,0,1,170.07,69C168.79,69.34,169.79,62.48,169.79,62.48Z"/><path class="cls-50" d="M171.07,57.22s-1.4,3.45-1.35,4.68.74,3.08.73,3.72c0,2.88-1.34,10.13-5.16,14.3a8,8,0,0,1-.64.66A21.59,21.59,0,0,1,157.11,78v1.57s-2.37,0-5.57.19c-4,.28-9.28.94-12.78,2.5a34.16,34.16,0,0,0,1.74-3.38,29.53,29.53,0,0,0,2.08-6,16.57,16.57,0,0,0,.3-1.85h0a13,13,0,0,0,.07-2.15,17,17,0,0,0-1.21-5.24,32.93,32.93,0,0,1-3-12.54S145.32,40.52,153,37.8s17.57,9.5,17.57,9.5A37.17,37.17,0,0,1,171.07,57.22Z"/><path class="cls-51" d="M165.29,79.92l1.54,1-15.29-1.22-11-.88a29.53,29.53,0,0,0,2.08-6,16.57,16.57,0,0,0,.3-1.85h0l16-4.75s-.21-5.28,1.28-7.26A5.6,5.6,0,0,1,164,56.82c-2.63,1-3.84,5.66-3.84,5.66l2.67-.41a7.82,7.82,0,0,1,2.7-3.33,11.28,11.28,0,0,1-1.35,7.64c.22-.08,3.5-1.31,4.11,1.12s-3.41,12.15-3.41,12.15Z"/><path class="cls-52" d="M171.18,52.55a26.55,26.55,0,0,0-2.51,4.73,2,2,0,0,0,2.4-.06l-1.35,4.67-2.82,1.24S168.73,51,170.6,47.3A27.81,27.81,0,0,1,171.18,52.55Z"/><path class="cls-53" d="M162.83,62.07a8.57,8.57,0,0,0-1,4.64s.42-3.24,1.87-4.64c0,0-.57,1.49,0,2.32,0,0,2.57-2.63,1.77-5.65A9.86,9.86,0,0,0,162.83,62.07Z"/><path class="cls-54" d="M157.11,78l.43-7s-4.86-1-15,1.86a15.26,15.26,0,0,0,.37-4,17,17,0,0,0-1.21-5.24l3.84-1.67,14.16,4.55s.49,2.82,2.14,2.55c0,0-.24,6.44,2.77,11.58A21.59,21.59,0,0,1,157.11,78Z"/><path class="cls-55" d="M171.18,52.55a26.84,26.84,0,0,0-.58-5.25s-1.4,5.25-2.51,9.51a46.8,46.8,0,0,0-1.34,7.94l-.64.36s.81-7.19-.53-8.24-6.54,1.75-5.84,9.58c0,0-8.53,4.66-17.42,4.51a7.38,7.38,0,0,0-.06-3.16c-.83-3.76-5.52-10.64-5-22.37l-2.34-1.65c.26.09,3,1,9-2.15,6.3-3.27,15.59-7.71,16.87-7.53s5.84,4.2,5.84,4.2,5.72,3.45,6.77,4.74S171.18,52.55,171.18,52.55Z"/><path class="cls-56" d="M169.86,50.07s-2.41,3-8.31,3.71c0,0-3.27,2-3.91,5,0,0,1.93-3.12,4.55-3.49s5.69-.1,6.53-.84Z"/><path class="cls-57" d="M170.43,47.93s-3.37,3.52-6.68,4.6c0,0,4.15-1,6.11-2.46Z"/><path class="cls-58" d="M166.63,38.3A46.17,46.17,0,0,0,155,37s4.69-1.46,5.8-2.86C160.79,34.1,163.07,34.86,166.63,38.3Z"/><path class="cls-59" d="M173.4,43a4.06,4.06,0,0,1-.7,3,23.51,23.51,0,0,0-4.55-4.56,14.57,14.57,0,0,0-5-2,15,15,0,0,1,5.12,3.25,18.71,18.71,0,0,1-12.81,6.35s2.89-1.71,3.68-3.41a35.79,35.79,0,0,0-11.56,4s-3-2.06-3.55-3.24l.79-2.15L142,46.44a12.88,12.88,0,0,1-4.77-1c-.52,11.73,4.17,18.61,5,22.37a7.38,7.38,0,0,1,.06,3.16c8.89.15,17.42-4.51,17.42-4.51-.7-7.83,4.5-10.63,5.84-9.58s.53,8.24.53,8.24l.64-.36a46.8,46.8,0,0,1,1.34-7.94c1.11-4.26,2.51-9.51,2.51-9.51a26.84,26.84,0,0,1,.58,5.25S174.46,44.32,173.4,43Zm-14.48,8.7a16.28,16.28,0,0,1-4.66-.76c5-.42,6.55-2,6.55-2S160.56,51.56,158.92,51.74Z"/><path class="cls-60" d="M151.54,40.79A4.33,4.33,0,0,1,155,38.65c2.58-.3,7.84.89,7.84.89S153.33,40.35,151.54,40.79Z"/><path class="cls-61" d="M160.17,37.18s8.38-.52,13.23,5.86a3.54,3.54,0,0,1-.7,3A29.53,29.53,0,0,0,160.17,37.18Z"/><path class="cls-62" d="M150.88,38.6s9-2.12,9.91-4.5C160.79,34.1,158.92,33.77,150.88,38.6Z"/><path class="cls-63" d="M159.16,45.74s-1.93,2.75-3.68,3.41c0,0,10.73-1.1,12.81-6.35a4.93,4.93,0,0,0-4.54-1.58C160.91,41.75,159.16,45.74,159.16,45.74Z"/><path class="cls-64" d="M134.92,43.78A8.49,8.49,0,0,0,142,46.44l5.7-6.74S139.05,44.87,134.92,43.78Z"/><path class="cls-65" d="M160.17,37.18s8.56,2.79,12.53,8.89l-1.52,6.48s3-5.25,2.43-9.47C173.61,43.08,170.43,37.63,160.17,37.18Z"/><path class="cls-66" d="M109.23,176.21A79.6,79.6,0,0,0,125.64,174c7.59-2,2.45-11.95,2.45-11.95l-5.25-.92Z"/><path class="cls-67" d="M174.23,105a111.43,111.43,0,0,1-7.6,16.5c-3.39,5.84-6.69,24.87-6.16,26.36.41,1.17,2.25,2.79,3.09,3.89l.1.13a2,2,0,0,1,.31.62c.18,1-2.19,4-2.1,4.48a15.88,15.88,0,0,0,1.18,2.16c.42.71.89,1.47,1.26,2.08l0,0c.46.72.78,1.24.78,1.24l-5.25.24c-12.38,14.35-39.71,13.95-39.71,13.95l.7-8.23c-3.85,4.09-12.45,8.23-12.45,8.23s13.69-28.06,13.53-46c0-.24,0-.38,0-.38a28.89,28.89,0,0,0-.25-3.32c-2.45-17.52-1.57-34-1-34.57s.58-.35,4.79-2.1A26.85,26.85,0,0,0,127.88,89l.17-.09h0a104.59,104.59,0,0,0,9-6V79.76c8.75-5.48,20-1.81,20-1.81a84.39,84.39,0,0,1,20.73,2.39C179.28,87.92,177.07,97.16,174.23,105Z"/><path class="cls-68" d="M121,168.46l-.22-.12c5-9.59,6.35-25.28,7.7-40.46.7-7.94,1.37-15.44,2.53-21.52,3.29-17.35,10.19-25.07,10.26-25.14l.18.17c-.06.07-6.92,7.75-10.2,25-1.15,6.07-1.82,13.56-2.52,21.49C127.33,143.11,125.93,158.82,121,168.46Z"/><path class="cls-69" d="M138.75,78.84l1.25-2.1S151.45,73,157.11,78C157.11,78,147.65,75,138.75,78.84Z"/><path class="cls-70" d="M167.07,201.83s.92,11.79-2.06,19.95l-4.31.28s-4.26,16.11-10,23.14c0,0-25.7-1.95-46.67-7.71L97.19,232s6.39-29,12.52-43.3C109.71,188.67,140,199.13,167.07,201.83Z"/><path class="cls-71" d="M109.71,188.67s27.48,9.18,45.41,9.41c0,0,4.19,1.37,11.95,3.75,0,0-25.08-1.86-47.47-9.61Z"/><path class="cls-72" d="M148.06,188.73s2.89,2.28,1,9.8a5,5,0,0,0,3.81.3s.14-8.26-.77-11.38Z"/><path class="cls-73" d="M104,237.49s10.29-26.22,13.74-44.33l2,1.38s1.09,11.64-.18,19.1l1.51,1.19s1.43-16.22-1.48-22.61l-9.89-3.55s-5.17,10.86-12.52,43.3Z"/><path class="cls-72" d="M126.36,193.4s.54.93,4.68,1.62c0,0,3.48-6.33,6.08-7.78l0-6.06S129.79,186.88,126.36,193.4Z"/><path class="cls-74" d="M158.78,226.39,109.71,230,104,237.49,97.19,232l5.48-22s-1.45,13.84-.53,14.21c2.45,1,8.72-9.66,11-15.89a133.55,133.55,0,0,0,4.57-15.14l2,1.38a81.46,81.46,0,0,1-.18,19.1l1.51,1.19a204.13,204.13,0,0,0,39.62,7.23Z"/><path class="cls-75" d="M141.75,216.08l5,1.14a13.81,13.81,0,0,1-1.52,6.81l-4.79-.88V221.8l.87-5.34Z"/><path class="cls-76" d="M141.75,216.08a9.92,9.92,0,0,1-1.27,7.07V221.8l.87-5.34Z"/><path class="cls-77" d="M141.93,216.22s.15,2.87,1.24,3.51a3.12,3.12,0,0,0,3,.32c.63-.42.62-2.7.62-2.7Z"/><polygon class="cls-74" points="136.85 229.49 132.76 235.31 138.02 236.2 141.2 231.11 136.85 229.49"/><path class="cls-78" d="M135.94,234.18a15.26,15.26,0,0,0,2.73-4.69l3.36,1a8.29,8.29,0,0,1-2.25,4.44Z"/><path class="cls-76" d="M138.67,229.49h-1.82l-1.46,4.43.55.26S138.36,231.69,138.67,229.49Z"/><path class="cls-79" d="M155.12,198.08l10.28,3.6a31.37,31.37,0,0,1-4.7,20.38c1.87-.09,4.31-.28,4.31-.28s2.7-6.3,2.06-19.95Z"/><path class="cls-80" d="M150.66,245.2l-.18-2.65s6.74-10.86,10.22-20.49C160.7,222.06,157.4,236.2,150.66,245.2Z"/><path class="cls-81" d="M163.52,112.13c-.55.35-1.14.68-1.78,1Z"/><path class="cls-82" d="M166.63,121.45c-3.39,5.84-6.69,24.87-6.16,26.36-1.47,4.24-8.76,11.3-8.76,11.3,9.29-2.18,11.85-7.41,11.85-7.41l.1.13a2,2,0,0,1,.31.62c.18,1-2.19,4-2.1,4.48a15.88,15.88,0,0,0,1.18,2.16l-5.91,3.35,7.17-1.27,0,0c.46.72.78,1.24.78,1.24l-5.25.24c-12.38,14.35-39.71,13.95-39.71,13.95l.7-8.23c-3.85,4.09-12.45,8.23-12.45,8.23s13.69-28.06,13.53-46c.08,2.37.65,15,3.94,15,2.92,0,11.56-16.55,15.87-25.54,4.39-9.18,6.73-32.18,6.73-32.18l-.54,16.21a37.35,37.35,0,0,1,8.43-13L174.23,105A111.43,111.43,0,0,1,166.63,121.45Z"/><path class="cls-83" d="M137.09,79.76v3.15a104.59,104.59,0,0,1-9,6l13.26-7.58A36.92,36.92,0,0,1,157.11,78S145.84,74.28,137.09,79.76Z"/><path class="cls-84" d="M117.5,264.86s-6.78,31.76-15,46C102.53,310.9,115.43,273.4,117.5,264.86Z"/><path class="cls-85" d="M190.25,181.41l11.76-5.2s-2.71,10.79-4.13,12.46-11.86-1.25-16.07,8A110.79,110.79,0,0,1,190.25,181.41Z"/><path class="cls-86" d="M163.93,161.74a67.93,67.93,0,0,0-6.79,8.59s26.93,1.06,51.24-1.58C208.38,168.75,191.9,159.48,163.93,161.74Z"/><path class="cls-87" d="M129,250.25a.63.63,0,0,0,0,.14c-1.12,3.28-1.82,5.24-1.82,5.24-4.34,11.86-9.32,44-9.77,47,0,.07,0,.14,0,.22s1.54-36.46,6.35-46.4C123.64,256.47,125.86,251.52,129,250.25Z"/><path class="cls-88" d="M208.41,171.68c-.54,3.92-2.55,11-4.71,20.19-2.84,12-5.49,33.55-5.65,34.88v.07C193.91,203,206.92,174.82,208.41,171.68Z"/><path class="cls-89" d="M152.89,186.08l-1.49,2.66-.39.69-2.95-.27-1-.46-5.47-.16-.83.69-3.61-.34-1-1.09,1-.56,0-6.06L135.9,178a42.9,42.9,0,0,1,2-5.17l3.17-1.14,9.17,1.65S153,180.57,152.89,186.08Z"/><path class="cls-90" d="M152,187.64l-1,1.79-2.95-.27-1-.46-5.47-.16-.83.69-3.61-.34-1-1.09,1-.56,0-6.06L135.9,178a42.9,42.9,0,0,1,2-5.17l3.17-1.14,9.17,1.65s-2.21,2.45-9.85,2.86l-1.29.42v10.82l2.19.39.41-.39h6.33l.94.65Z"/><path class="cls-91" d="M137.18,172.69v.89a41.26,41.26,0,0,0,13.48-.24l-.16-2A72,72,0,0,1,137.18,172.69Z"/><path class="cls-92" d="M175.62,100.84S164.5,112,158,126.69q-.59,1.32-1.11,2.76c-3.64,10-5.14,23.69-4.38,38.83v.05c0,.84.09,1.68.14,2.52,0,0-9.32,3.85-15.82,2,0,0-5.13-27.33-.34-41.12h0c.06-.07.27-.36.61-.84l.29-.4c2.7-3.9,10.7-16.2,12.29-27.94,0,0,7.54-19.35,22-22.07h0a18.88,18.88,0,0,1,6.16-.11A41.23,41.23,0,0,1,175.62,100.84Z"/><path class="cls-93" d="M156.91,129.45c-3.64,10-5.14,23.69-4.38,38.83v.05a21.44,21.44,0,0,0,.14,2.52s-5.66-14.72-6.12-23.47,10.56-19.23,10.56-19.23Z"/><path class="cls-94" d="M152.67,170.85s-5.86-14.45-6.12-23.47c0,0,3,10.77,5.79,13Z"/><path class="cls-95" d="M177.84,80.34s-4.37-3.89-17.14,8.54-16.31,34.67-16.31,34.67,8.41-.86,19.13-9.73,13.65-18.11,13.65-18.11S179.59,84.19,177.84,80.34Z"/><path class="cls-96" d="M136.51,131.72s2.59,1,6.84-1.67a12.29,12.29,0,0,0,5.15-7.52S141.88,121.56,136.51,131.72Z"/><path class="cls-97" d="M137.18,172.69s-2.77-12.19-.67-23.19c0,0,2.27,18.63,4.81,23.84A9.64,9.64,0,0,1,137.18,172.69Z"/><path class="cls-98" d="M157.11,78s14.13.75,18.16,4.26c0,0,1.24,11.36-2.56,18.92a176.16,176.16,0,0,1-10.08,16.73s7.3-11.3,12.2-16.2c0,0,4.7-6.64,3-21.32A69.46,69.46,0,0,0,157.11,78Z"/><path class="cls-99" d="M208.36,168.74c-.7-.21-23.6-7.36-43.65-7.12h.07c14.61-2,35.84,3.33,41.92,6.07l.05,0C207.29,168,207.83,168.38,208.36,168.74Z"/><path class="cls-100" d="M122.06,319.5h0Z"/><path class="cls-101" d="M148.5,128.15l-10,12.48s7.29,6,14.67,5.24l1.78-9Z"/><path class="cls-102" d="M134.63,322.66c-1.4,9.81-13.37,11-13.37,11l-4.29-.25-1.89,2.17c-4.68,2.69-13.09.47-13.09.47l-.42-2.64a7,7,0,0,1-.53-2.8c.14-1.23,1.76-13.84,1.76-13.84s6.15-.1,8.07-1.68c.44-.36,2.27,2.88,2.57,2.39,1-1.64-.26-7.35-.26-7.35s5.35,6.59,8.87,9.32c-.25-.11-4.43-2.11-5.28-1.85-.69.2,1.37,4.67,4.25,7.73a11.18,11.18,0,0,0,2.66,2.16C127.81,329.82,133.49,326.8,134.63,322.66Z"/><path class="cls-103" d="M208.55,254.34a4,4,0,0,1-.27.63c-4.15,9-17.59,8.54-17.59,8.54l-3.45-.26c-.33.47-.58.87-.58.87-4.29,1.67-12.26,0-12.26,0l-.77-3c-.93-5.49,2.87-16.64,2.87-16.64s4.69-1.29,6.56-.59,2.9,3.63,3.95,3.63c.83,0,1.15-4.44,1.15-4.44a41,41,0,0,0,5.3,6.25c-.27,0-3.22-.18-4.76,1.57-.73.83.79,2.93,3.14,4.87,2.82,2.32,6.85,4.42,9.62,3.83a10.61,10.61,0,0,0,7.08-5.25Z"/><path class="cls-104" d="M194.63,254.34a14.37,14.37,0,0,0,6.39,2.34,5.26,5.26,0,0,0,4.86-2.71S202.2,256,194.63,254.34Z"/><path class="cls-105" d="M132.18,322.16a10.28,10.28,0,0,1-6.42,4.65S133,328.37,132.18,322.16Z"/><path class="cls-106" d="M170.9,116s-.06.17-.2.49c-1.37,3.38-4.6,9.34-5.12,12.51,0,0-5.84,11.45-17.87,13.43L143.35,137l6.47-10.29S161.37,125,166.74,120c0,0,2.35-3.53,3.81-6.18A3.87,3.87,0,0,1,170.9,116Z"/><path class="cls-107" d="M170.7,116.53c-1.37,3.38-4.6,9.34-5.12,12.51,0,0-10.28,5-10.59,4.06s4.6-5.6,9.66-9.55A20.39,20.39,0,0,0,170.7,116.53Z"/><path class="cls-108" d="M120.05,100.08s.83,16.38,4.16,23.47-3.82,19.61-3.82,19.61a100,100,0,0,0,1.53-13C122,124.87,119.13,110,120.05,100.08Z"/><path class="cls-109" d="M103.28,256.33s-1.7,36.95.79,40.2c0,0,2.37.27,6-7.78,0,0-5,16.64-8,22.48C102,311.23,97.85,289.14,103.28,256.33Z"/><path class="cls-110" d="M177,238.35a71.88,71.88,0,0,0,5.73-18.74c1.8-10.93-.95-23-.95-23S180.2,224,177,238.35Z"/><polygon class="cls-111" points="48.04 327.42 39.78 262.35 43.91 262.35 50.59 327.42 48.04 327.42"/><polygon class="cls-111" points="474.15 333.16 482.41 268.09 478.28 268.09 471.6 333.16 474.15 333.16"/><path class="cls-112" d="M481.56,274.74l-4.34,34.2s-32.83,1.36-81.88,2.38c-72.77,1.52-181.24,2.3-271.26-3.22q-5.77-.35-11.43-.73-11.94-.83-23.32-1.81c-15.94-1.37-31-3-44.7-4.92l-4.16-32.77h.08l.25,0,.2,0,.52,0,.29,0c3.14.28,11.75,1,25.19,1.94l1.5.11h0c9,.62,20.1,1.34,33,2.08q8.31.47,17.64,1c65.14,3.37,166.32,6.69,286.78,4.05C430.41,276.6,455.66,275.82,481.56,274.74Z"/><path class="cls-113" d="M226.45,302.48l1.9-4.31a12,12,0,0,0,5.8,1.61c1.68,0,2.28-.36,2.28-1,0-2.2-9.71-.42-9.71-7,0-3.26,2.74-5.91,8.18-5.91a13.93,13.93,0,0,1,6.62,1.53l-1.78,4.28a10.92,10.92,0,0,0-4.89-1.3c-1.73,0-2.28.5-2.28,1.1,0,2.11,9.7.35,9.7,6.82,0,3.21-2.73,5.92-8.17,5.92A15.68,15.68,0,0,1,226.45,302.48Z"/><path class="cls-113" d="M247.58,290.93h-5.14v-4.59h16.2v4.59H253.5v13h-5.92Z"/><path class="cls-113" d="M271.24,300.83h-6.67l-1.17,3.06h-6l7.67-17.55h5.82l7.67,17.55h-6.12Zm-1.63-4.26-1.7-4.42-1.71,4.42Z"/><path class="cls-113" d="M287,299.47H285.4v4.42h-5.91V286.34h8.45c4.88,0,8,2.55,8,6.62a5.87,5.87,0,0,1-3.31,5.51l3.69,5.42H290Zm.55-8.57H285.4V295h2.16c1.63,0,2.41-.78,2.41-2.05S289.19,290.9,287.56,290.9Z"/><path class="cls-113" d="M301.72,290.93h-5.14v-4.59h16.2v4.59h-5.14v13h-5.92Z"/><path class="cls-114" d="M89.33,305.56c-15.94-1.37-31-3-44.7-4.92l-4.16-32.77h.08l.25,0L68.5,270h0Z"/><path class="cls-114" d="M124.08,308.1q-5.77-.35-11.43-.73l-11.11-35.25q8.31.47,17.64,1Z"/><path class="cls-114" d="M481.56,274.74l-4.34,34.2s-32.83,1.36-81.88,2.38L406,277.13C430.41,276.6,455.66,275.82,481.56,274.74Z"/><polygon class="cls-115" points="462.21 227.96 450.64 198.25 451.39 198.39 413.55 237.74 413.2 238.1 412.97 237.66 395.08 203.44 395.6 203.45 388.43 215.47 388.28 215.72 388.04 215.56 338.74 182.64 338.58 182.53 338.69 182.38 374.19 132.95 374.19 132.94 374.2 132.94 408.49 101.65 408.5 101.67 399.43 100.08 408.5 101.64 408.53 101.65 408.51 101.67 374.32 133.07 374.33 133.05 338.99 182.59 338.95 182.33 388.35 215.09 387.95 215.18 395.08 203.15 395.36 202.68 395.61 203.16 413.61 237.32 413.03 237.24 450.74 197.77 451.22 197.26 451.48 197.92 463.14 227.6 462.21 227.96"/><circle class="cls-116" cx="462.67" cy="240.47" r="18.21"/><circle class="cls-117" cx="451.06" cy="198.09" r="11.61" transform="translate(-7.96 376.97) rotate(-45)"/><circle class="cls-118" cx="413.17" cy="237.49" r="8.88"/><circle class="cls-119" cx="395.34" cy="203.78" r="7.63" transform="translate(-28.3 339.24) rotate(-45)"/><path class="cls-120" d="M394.16,215.68a6,6,0,1,1-6-6A6,6,0,0,1,394.16,215.68Z"/><path class="cls-121" d="M343.81,182.49a5,5,0,1,1-5-5A5,5,0,0,1,343.81,182.49Z"/><path class="cls-122" d="M410.36,101.66a1.86,1.86,0,1,1-1.86-1.86A1.86,1.86,0,0,1,410.36,101.66Z"/><path class="cls-123" d="M378,133a3.71,3.71,0,1,1-3.71-3.71A3.71,3.71,0,0,1,378,133Z"/><path class="cls-113" d="M464.2,234.85v10.27h-3.46v-7.66H459v-2.61Z"/><path class="cls-113" d="M454.23,199v2h-6v-1.55l2.69-2.49c.51-.48.59-.77.59-1s-.25-.59-.72-.59a1.22,1.22,0,0,0-1.1.7l-1.9-.95a3.44,3.44,0,0,1,3.23-1.73c1.77,0,3,.92,3,2.34a2.94,2.94,0,0,1-1.27,2.37l-1.07,1Z"/><path class="cls-113" d="M415.65,238.46c0,1-.84,2.09-2.79,2.09a5.14,5.14,0,0,1-2.4-.55l.7-1.51a3.36,3.36,0,0,0,1.63.44c.46,0,.79-.16.79-.47s-.2-.42-.72-.42h-.81v-1.26l.9-.91h-2.17v-1.55h4.54v1.26l-1.14,1.15A1.74,1.74,0,0,1,415.65,238.46Z"/><path class="cls-113" d="M397,205.22h-.6V206h-1.48v-.77h-2.34v-1l1.92-2.78h1.56l-1.7,2.56H395v-.69h1.43V204h.6Z"/><path class="cls-113" d="M390,216.36c0,.72-.55,1.42-1.84,1.42a3.42,3.42,0,0,1-1.59-.37l.46-1a2.16,2.16,0,0,0,1.07.29c.31,0,.54-.11.54-.31s-.13-.29-.62-.29h-1.17l.21-2.45h2.68v1h-1.57l0,.4h.2C389.56,215.07,390,215.64,390,216.36Z"/><path class="cls-113" d="M340.18,183.11a1.28,1.28,0,0,1-1.41,1.22,1.54,1.54,0,0,1-1.66-1.7,1.79,1.79,0,0,1,1.92-1.92,2,2,0,0,1,1.07.27l-.42.82a1,1,0,0,0-.63-.19.71.71,0,0,0-.75.59A1.2,1.2,0,0,1,339,182,1.12,1.12,0,0,1,340.18,183.11Zm-1.13.06a.36.36,0,1,0-.71,0,.36.36,0,0,0,.71,0Z"/></g></g></g></svg>