<svg xmlns="http://www.w3.org/2000/svg" viewBox="0 0 2874 1288.6"><defs><style>.cls-1{fill:#ebf3fa;}.cls-2{fill:#8fb2ff;}.cls-3{fill:#fcecdb;}.cls-4{fill:#699dee;}.cls-5{fill:#548ee2;}.cls-6{fill:#f4d2b8;}.cls-7{fill:#ea7147;}.cls-8{fill:#568cdb;}.cls-9{fill:#f99746;}.cls-10{fill:#ed7d2b;}.cls-11{fill:#233862;}.cls-12{fill:#152a49;}.cls-13{fill:#ffb27d;}.cls-14{fill:#163560;}.cls-15{fill:#f9ddbf;}.cls-16{fill:#f2d1b6;}.cls-17{fill:#f2ccaa;}.cls-18{fill:#2b478b;}.cls-19,.cls-28{fill:#fff;}.cls-20{fill:#e8945b;}.cls-21{fill:#efc59e;}.cls-22,.cls-23{fill:#bdd1f9;}.cls-23{opacity:0.5;}.cls-24{fill:#ed985f;}.cls-25{fill:#2c3a64;}.cls-26{fill:#ed975d;}.cls-27{fill:#2e3552;}.cls-28{opacity:0.9;}</style></defs><title>Asset 1</title><g id="Layer_2" data-name="Layer 2"><g id="_лой_1" data-name="‘лой_1"><path class="cls-1" d="M151.7,1280.74s-267.6-321.28-92-649.49c256.09-478.57,579.93-22,564.93-360.29S1185.74-29.57,1419.23,68.58s225,184.82,707.06,145.9S2709.49,420,2613.88,652.06c-112.43,273,533.72,269.7,120.32,629.57Z"/><path class="cls-2" d="M1057.47,385.92h197V1278.4H1137.45V563.25h-3.51l-79.47,715.15H939.92l-81.8-715.15V1278.4H741.05V385.92H939.81l67.83,635.16Z"/><path class="cls-2" d="M1543.12,1278.4H1332.17V385.92h191.25q86.92,0,118.22,35.93,27.83,33.63,27.82,122.86V667.57q0,59.11-20.29,82.87t-78.23,35.35q59.11,9.3,82.87,41.15t23.76,93.31v185.44q0,144.91-73,165.75Q1580.21,1278.4,1543.12,1278.4Zm-80-790.49V738.27h32q48,0,48-69.54V550.5q0-62.58-46.85-62.59Zm0,354.68v329.17h30.55q52.89,0,52.9-69.54V916.77q0-74.16-56.42-74.18Z"/><path class="cls-2" d="M2115.69,1278.4H1980.08l-19.7-222.54H1854.9l-23.18,222.54H1712.34l102-892.48h199.36ZM1910.54,508.78l-42.89,430h81.14Z"/><path class="cls-3" d="M2076.76,1064h317a46.39,46.39,0,0,1,46.39,46.39v26.2a47.45,47.45,0,0,1-47.45,47.45H2076.76a0,0,0,0,1,0,0V1064A0,0,0,0,1,2076.76,1064Z"/><path class="cls-4" d="M2711.18,1113.39v18.06a55.09,55.09,0,0,1-6.66,26.45C2696,1173.53,2680.17,1184,2662,1184H2067a7.39,7.39,0,0,1-7.13-7.63v-2.7a7.38,7.38,0,0,1,7.13-7.62h362.71a49.27,49.27,0,0,0,5.09-8.19,51.52,51.52,0,0,0,5.32-23v-23a51,51,0,0,0-1.47-12.21,49.22,49.22,0,0,0-8.41-17.83H2067a7.39,7.39,0,0,1-7.13-7.63v-2.69A7.39,7.39,0,0,1,2067,1064h598c21.07,0,38.85,15.12,44.36,35.78A52.46,52.46,0,0,1,2711.18,1113.39Z"/><path class="cls-5" d="M2709.4,1099.78H2438.68a49.22,49.22,0,0,0-8.41-17.83H2067a7.39,7.39,0,0,1-7.13-7.63v-2.69A7.39,7.39,0,0,1,2067,1064h598C2686.11,1064,2703.89,1079.12,2709.4,1099.78Z"/><polygon class="cls-6" points="2076.76 1124.02 2120.81 1126.04 2076.76 1127.25 2076.76 1124.02"/><polygon class="cls-6" points="2076.76 1142.85 2181.57 1144.87 2076.76 1146.09 2076.76 1142.85"/><path class="cls-7" d="M2018.86,1183.79H2329a44.81,44.81,0,0,1,44.81,44.81v6.49a42.08,42.08,0,0,1-42.08,42.08H2018.86a0,0,0,0,1,0,0v-93.37A0,0,0,0,1,2018.86,1183.79Z" transform="translate(4392.69 2460.95) rotate(180)"/><path class="cls-3" d="M2315.13,1183.79h353.49a43.75,43.75,0,0,1,43.75,43.75v6.84a42.78,42.78,0,0,1-42.78,42.78H2315.13a0,0,0,0,1,0,0v-93.37a0,0,0,0,1,0,0Z" transform="translate(5027.5 2460.95) rotate(180)"/><rect class="cls-7" x="2285.28" y="1263.19" width="445.51" height="13.96" rx="6.5" transform="translate(5016.07 2540.35) rotate(180)"/><rect class="cls-7" x="2285.28" y="1183.79" width="445.51" height="13.96" rx="6.5" transform="translate(5016.07 2381.54) rotate(180)"/><polygon class="cls-6" points="2712.37 1230.47 2664.21 1232.04 2712.37 1232.99 2712.37 1230.47"/><polygon class="cls-6" points="2712.37 1208.98 2597.79 1210.55 2712.37 1211.5 2712.37 1208.98"/><path class="cls-4" d="M2599,1210.24a21.69,21.69,0,0,1,6.54,10.61,18,18,0,0,1,.51,3.69c.27,8.76,0,28.59,0,28.59l14.49-9.92,14.46,9.92v-26.88c0-5.08-1.24-10-3.54-13.26-1.12-1.57-2.47-2.75-4-2.75Z"/><path class="cls-8" d="M2599,1210.24a21.69,21.69,0,0,1,6.54,10.61l29,.39s-1.14-9.44-7.14-11Z"/><path class="cls-3" d="M2030.12,927.07h306.38a49,49,0,0,1,49,49v38a50.16,50.16,0,0,1-50.16,50.16H2030.12a0,0,0,0,1,0,0V927.07A0,0,0,0,1,2030.12,927.07Z"/><path class="cls-9" d="M2385.71,980.29v29.53c-.07,12.61-5.92,23.55-14.5,29.4a25.37,25.37,0,0,1-14.31,4.51H2020.76c-3.94,0-7.13,3.81-7.13,8.52v3.48c0,4.71,3.19,8.52,7.13,8.52h580.69c16.66,0,31.38-9.89,40.28-25a66.63,66.63,0,0,0,8.9-33.71V982.22a63.86,63.86,0,0,0-4.59-24c-7.47-18.44-23.28-31.16-41.59-31.16H2020.76c-3.94,0-7.13,3.81-7.13,8.51v3.48c0,4.71,3.19,8.52,7.13,8.52h337.17c8.06,0,15.35,4.1,20.44,10.65A36.26,36.26,0,0,1,2385.71,980.29Z"/><path class="cls-10" d="M2013.63,1052.25v3.48c0,4.71,3.19,8.52,7.13,8.52h580.69c16.66,0,31.38-9.89,40.28-25H2371.21a25.37,25.37,0,0,1-14.31,4.51H2020.76C2016.82,1043.73,2013.63,1047.54,2013.63,1052.25Z"/><polygon class="cls-6" points="2030.12 995.66 2073.21 997.96 2030.12 999.35 2030.12 995.66"/><polygon class="cls-6" points="2030.12 964.09 2132.63 966.39 2030.12 967.78 2030.12 964.09"/><path class="cls-9" d="M2332.13,965.93s-6.77,4.35-9,11.5a15.23,15.23,0,0,0-.7,4c-.37,9.5,0,31,0,31l-20-10.75-19.93,10.75V983.29c0-5.51,1.71-10.87,4.89-14.38,1.53-1.7,3.4-3,5.51-3Z"/><path class="cls-10" d="M2332.13,965.93s-6.77,4.35-9,11.5l-40,.43s1.57-10.24,9.83-11.93Z"/><path class="cls-11" d="M1379.7,1230.26s10.59,9.67,8.52,16.54-11.63,11.46-12.92,19.85-6.46,13-11.11,13H1342s-3.43-5.91,4.84-7.69,11.39-11.65,10.88-20.81a161.4,161.4,0,0,1,.77-21.38l17.58-4.07Z"/><path class="cls-12" d="M1278.64,1234.37s3.82,41-.84,43.26l-59.54-.13s0-6.87,9.57-8.4,26.36-7.12,29.2-19.59S1278.64,1234.37,1278.64,1234.37Z"/><path class="cls-13" d="M1192.88,925.83s-4.61,20.42-3.29,26,15.64,14.49,21,12.85.74-29.65-8.48-34.26Z"/><path class="cls-14" d="M1289.64,586.11c-13.47-7-24.26-2.6-24.26-2.6-41.22-4.84-53.25,43.23-52.69,59.77s2.45,34.31-16,55.79c-53.17,62.07,58.19,64.81,58.19,64.81.94-49.59,60.39-31.5,57.78-26.47C1388.9,755.7,1320.28,602,1289.64,586.11Z"/><path class="cls-15" d="M1232.21,702.12s-22.47,4-27.68,23.45c-5.14,19.16-13.63,86.69-14.29,116.76-.58,26.71-.65,91.4-.65,91.4s8.56,4.29,21,0l26-132.4Z"/><path class="cls-16" d="M1210.83,893s4.48-73.78.75-110.05c-3-29,33.36,55.77,30.88,71.18S1210.83,893,1210.83,893Z"/><path class="cls-15" d="M1337.25,757.91a277.92,277.92,0,0,1,0,32.41c-.69,11.72-12.55,27.41-14.23,31.29-4.22,9.74-9,11.32-9,11.32l-36.82,9-12.94,3.17-40.81-12.19s-18.6-51.89-11.13-81.1,18.87-49.49,18.87-49.49,27.67-6.65,76.67-2.77Z"/><path class="cls-17" d="M1326.48,794.76c-.7,11.72-1.78,22.63-3.46,26.51-4.22,9.74-9,11.32-9,11.32l-36.82,9-16-4.7s53.37-8.09,47.45-54Z"/><path class="cls-11" d="M1226.07,840.47s-20.21,62.92-21.51,84.34,38.64,304.29,40.25,314.16c1.51,9.31,13.06,15.24,13.06,15.24a17.51,17.51,0,0,0,12.9,1c10.52-3,13.85-6.53,13.85-6.53s15.73-201.74,6-273.81a1142.92,1142.92,0,0,1-9.85-134.39Z"/><path class="cls-18" d="M1311.71,838.59s30.83,41.37,33.71,69.34,4.51,126.2,10.63,153.46,23.65,83.84,23.65,168.87c0,0-21.38,16.66-24.1,11.18-15.21-30.62-67.34-141.92-69.83-162.42-1.75-14.51-17-110.55-50.43-166.91-8-13.52,4.92-67.33,4.92-67.33Z"/><path class="cls-11" d="M1222.84,830.76s8.12,6.42,24.24,6.74c19.25.39,67-4.91,67-4.91a39.64,39.64,0,0,1,2,12.18s-58.27,14.7-92,2.15C1224,846.92,1219.69,838.72,1222.84,830.76Z"/><path class="cls-19" d="M1242.46,854.09c-4.85,0-8.79-4.46-8.79-9.94s3.94-9.94,8.79-9.94,8.78,4.46,8.78,9.94S1247.3,854.09,1242.46,854.09Zm0-17c-3.24,0-5.88,3.15-5.88,7s2.64,7,5.88,7,5.87-3.15,5.87-7S1245.7,837.12,1242.46,837.12Z"/><rect class="cls-10" x="1271.76" y="773.09" width="79.16" height="108.36" transform="translate(-220.88 1064.53) rotate(-41.05)"/><path class="cls-13" d="M1300.58,842.33s-23.37,2.06-23.3,7.25,7.41,14.25,10.87,14.25c7.91,0,16.58-11.84,16.58-11.84Z"/><path class="cls-15" d="M1307.89,699.57s29.21,1.71,40.4,28.93,32.44,72.9,32.44,80.59-11.87,31.38-75.59,45c0,0-6.59-6.93-6.19-12.41,0,0,39.78-34.17,39.67-38.16-.2-7.55-6.52-17.52-41.44-52.46C1287.68,741.57,1307.89,699.57,1307.89,699.57Z"/><path class="cls-13" d="M1297.07,842.82a53.13,53.13,0,0,0-8.75-1.2c-3.46,0-7.62-.7-7.64.47,0,2.16,6.92,2.9,6.92,3.89S1297.07,842.82,1297.07,842.82Z"/><path class="cls-13" d="M1291.12,698.81c-2.18-4.08-8.4-24.85-8.36-35.63l-1.85.31-31.07,5.21s.71,8.29.73,16.09v.2c0,6.78-.09,10.11,1.27,18.51.61,3.79-.68,31,12.33,29C1268.81,731.84,1292.55,701.51,1291.12,698.81Z"/><path class="cls-20" d="M1249.84,668.7s.71,8.29.73,16.09c17.39-.41,26.58-13.85,30.34-21.3Z"/><path class="cls-13" d="M1244,678.42s41.14.68,41.17-24.95,5.36-42.79-20.91-44.31-31.38,8.26-33.47,16.81S1233.33,677.59,1244,678.42Z"/><path class="cls-14" d="M1245.55,608.53s11.27,30.07,28.56,34.51,24.78-.18,24.78-.18a49,49,0,0,1-16-28.93S1254.05,594.22,1245.55,608.53Z"/><path class="cls-14" d="M1248.35,611s-8.36,3.12-11.79,9.22a41.35,41.35,0,0,0-5.57,23.52s-8.48-20.43,1-32C1242.16,599.46,1248.35,611,1248.35,611Z"/><path class="cls-21" d="M1260.6,733.06s26.8-29.43,27.88-41.28a30.33,30.33,0,0,1,14.94,7.46s-6,19.34-13.84,24.69a49.29,49.29,0,0,1-10.13-2.68,84.73,84.73,0,0,0,5,7.53S1272.15,735.7,1260.6,733.06Z"/><path class="cls-21" d="M1250.69,693.39s.55,16.83,9.91,39.67c0,0-12.69-2.49-19.17-11.48,0,0,2-4.8,3.78-5.9,0,0-3.81-1.54-6.21.68,0,0-1.4-10.51.07-13.7S1247.07,695.94,1250.69,693.39Z"/><path class="cls-11" d="M1262.62,733.07a2,2,0,1,0-2,2A2,2,0,0,0,1262.62,733.07Z"/><path class="cls-11" d="M1251.68,761.7a2,2,0,1,0-2,2A2,2,0,0,0,1251.68,761.7Z"/><path class="cls-11" d="M1249.48,795.33a2,2,0,1,0-2,2A2,2,0,0,0,1249.48,795.33Z"/><rect class="cls-18" x="444.32" y="900.09" width="360.69" height="376.54" rx="25.07"/><rect class="cls-22" x="464.87" y="925.77" width="319.57" height="59.82" rx="11.02"/><rect class="cls-22" x="478.09" y="1024.23" width="48.52" height="38.16" rx="11.52"/><path class="cls-22" d="M489.62,1086.66h25.47a11.52,11.52,0,0,1,11.52,11.52v15.11a11.53,11.53,0,0,1-11.53,11.53H489.62a11.52,11.52,0,0,1-11.52-11.52v-15.11A11.52,11.52,0,0,1,489.62,1086.66Z"/><rect class="cls-22" x="478.09" y="1149.09" width="48.52" height="38.16" rx="11.52"/><rect class="cls-22" x="478.09" y="1211.52" width="48.52" height="38.16" rx="11.52"/><rect class="cls-22" x="539.35" y="1024.23" width="48.52" height="48.52" rx="11.52"/><rect class="cls-23" x="539.35" y="1083.77" width="48.52" height="48.52" rx="11.52"/><rect class="cls-23" x="539.35" y="1143.31" width="48.52" height="48.52" rx="11.52"/><rect class="cls-23" x="539.35" y="1202.85" width="48.52" height="48.52" rx="11.52"/><rect class="cls-22" x="603.47" y="1024.23" width="48.52" height="48.52" rx="11.52"/><rect class="cls-23" x="603.47" y="1083.77" width="48.52" height="48.52" rx="11.52"/><rect class="cls-23" x="603.47" y="1143.31" width="48.52" height="48.52" rx="11.52"/><rect class="cls-23" x="603.47" y="1202.85" width="48.52" height="48.52" rx="11.52"/><rect class="cls-7" x="665.31" y="1024.23" width="48.52" height="48.52" rx="11.52"/><rect class="cls-23" x="665.31" y="1083.77" width="48.52" height="48.52" rx="11.52"/><rect class="cls-22" x="723.42" y="1084.06" width="48.52" height="48.52" rx="11.52"/><rect class="cls-22" x="723.42" y="1024.51" width="48.52" height="48.52" rx="11.52"/><rect class="cls-23" x="665.31" y="1143.31" width="48.52" height="48.52" rx="11.52"/><rect class="cls-23" x="665.31" y="1202.85" width="48.52" height="48.52" rx="11.52"/><rect class="cls-22" x="723.42" y="1143.6" width="48.52" height="108.06" rx="11.52"/><path class="cls-18" d="M569.12,955.2V947l1.17-3.11a2.49,2.49,0,0,1,1.94,1.94v10.88l-.78.78Zm2.33,3.11.78.78V970a2.49,2.49,0,0,1-1.94,1.94l-1.17-3.11v-8.16Z"/><path class="cls-18" d="M582.72,947.82v7.38l-2.33,2.33-.78-.78v-10.1Zm-3.11,21.37v-10.1l.78-.78,2.33,2.33V968Zm13.6,2.72H581.56a2.51,2.51,0,0,1-1.95-1.94l3.11-1.17h9.33ZM592.05,947h-9.29l-3.11-1.17a2.51,2.51,0,0,1,2-1.94h11.61Zm.78,8.16V947l1.16-3.11a2.48,2.48,0,0,1,1.94,1.94v10.88l-.77.78Zm2.33,3.11.77.78V970a2.48,2.48,0,0,1-1.94,1.94l-1.16-3.11v-8.16Z"/><path class="cls-18" d="M606.43,947.82v7.38l-2.34,2.33-.77-.78v-10.1Zm-3.11,21.37v-10.1l.77-.78,2.34,2.33V968Zm13.6,2.72H605.26a2.49,2.49,0,0,1-1.94-1.94l3.11-1.17h9.32ZM615.75,947h-9.29l-3.1-1.17a2.48,2.48,0,0,1,1.94-1.94h11.62Zm.78,8.16V947l1.16-3.11a2.51,2.51,0,0,1,1.95,1.94v10.88l-.78.78Zm2.33,3.11.78.78V970a2.51,2.51,0,0,1-1.95,1.94l-1.16-3.11v-8.16Z"/><path class="cls-18" d="M630.13,947.82v7.38l-2.33,2.33-.78-.78v-10.1ZM627,969.19v-10.1l.78-.78,2.33,2.33V968Zm13.6,2.72H629A2.51,2.51,0,0,1,627,970l3.11-1.17h9.32ZM639.45,947h-9.28l-3.11-1.17a2.51,2.51,0,0,1,1.94-1.94h11.62Zm.78,8.16V947l1.17-3.11a2.51,2.51,0,0,1,1.94,1.94v10.88l-.78.78Zm2.33,3.11.78.78V970a2.51,2.51,0,0,1-1.94,1.94l-1.17-3.11v-8.16Z"/><path class="cls-18" d="M653.83,947.82v7.38l-2.33,2.33-.78-.78v-10.1Zm-3.11,21.37v-10.1l.78-.78,2.33,2.33V968Zm13.6,2.72H652.67a2.51,2.51,0,0,1-1.95-1.94l3.11-1.17h9.33ZM663.16,947h-9.29l-3.11-1.17a2.51,2.51,0,0,1,2-1.94h11.61Zm.78,8.16V947l1.16-3.11a2.49,2.49,0,0,1,1.94,1.94v10.88l-.77.78Zm2.33,3.11.77.78V970a2.49,2.49,0,0,1-1.94,1.94l-1.16-3.11v-8.16Z"/><path class="cls-18" d="M677.54,947.82v7.38l-2.34,2.33-.77-.78v-10.1Zm-3.11,21.37v-10.1l.77-.78,2.34,2.33V968Zm13.6,2.72H676.37a2.48,2.48,0,0,1-1.94-1.94l3.11-1.17h9.32ZM686.86,947h-9.29l-3.1-1.17a2.48,2.48,0,0,1,1.94-1.94H688Zm.78,8.16V947l1.16-3.11a2.51,2.51,0,0,1,2,1.94v10.88l-.78.78Zm2.33,3.11.78.78V970a2.51,2.51,0,0,1-2,1.94l-1.16-3.11v-8.16Z"/><path class="cls-18" d="M701.24,947.82v7.38l-2.33,2.33-.78-.78v-10.1Zm-3.11,21.37v-10.1l.78-.78,2.33,2.33V968Zm13.6,2.72H700.07a2.51,2.51,0,0,1-1.94-1.94l3.11-1.17h9.32ZM710.56,947h-9.28l-3.11-1.17a2.51,2.51,0,0,1,1.94-1.94h11.62Zm.78,8.16V947l1.17-3.11a2.51,2.51,0,0,1,1.94,1.94v10.88l-.78.78Zm2.33,3.11.78.78V970a2.51,2.51,0,0,1-1.94,1.94l-1.17-3.11v-8.16Z"/><path class="cls-18" d="M724.94,947.82v7.38l-2.33,2.33-.78-.78v-10.1Zm-3.11,21.37v-10.1l.78-.78,2.33,2.33V968Zm13.6,2.72H723.77a2.51,2.51,0,0,1-1.94-1.94l3.11-1.17h9.33ZM734.27,947H725l-3.11-1.17a2.51,2.51,0,0,1,1.94-1.94h11.62Zm.77,8.16V947l1.17-3.11a2.51,2.51,0,0,1,1.94,1.94v10.88l-.78.78Zm2.33,3.11.78.78V970a2.51,2.51,0,0,1-1.94,1.94L735,968.8v-8.16Z"/><path class="cls-18" d="M748.64,947.82v7.38l-2.33,2.33-.78-.78v-10.1Zm-3.11,21.37v-10.1l.78-.78,2.33,2.33V968Zm13.6,2.72H747.48a2.51,2.51,0,0,1-2-1.94l3.11-1.17H758ZM758,947h-9.29l-3.11-1.17a2.51,2.51,0,0,1,1.95-1.94h11.61Zm.78,8.16V947l1.16-3.11a2.48,2.48,0,0,1,1.94,1.94v10.88l-.77.78Zm2.33,3.11.77.78V970a2.48,2.48,0,0,1-1.94,1.94l-1.16-3.11v-8.16Z"/><path class="cls-11" d="M1670.91,438.26s3.56,42.49-6.12,41.85-28.79-19.35-67.36-16.31-85.76,11.48-114.29-39,36.48-65,36.48-65l151.29,78.47Z"/><polygon class="cls-18" points="1588.92 435.15 1783.27 451.13 1787.31 442.48 1600.98 304.94 1412.76 282.95 1409.14 290.69 1588.92 435.15 1588.92 435.15"/><path class="cls-9" d="M1721.18,581.52a7.53,7.53,0,1,0-5.17,9.31,7.55,7.55,0,0,0,5.17-9.31Z"/><path class="cls-9" d="M1714.7,583.61c7.8-.61,9.62,70.32,9.62,70.32s-5.08,2.39-7.58,1.83-3.78-10.14-3.78-10.14l-.24,10s-8.55.3-11.51-1.78c0,0,1.16-69.31,13.49-70.27Z"/><polygon class="cls-9" points="1717.24 585.2 1715.84 430.24 1714.83 429.49 1613.31 354.39 1609.66 359.33 1710.17 433.68 1712.44 584.94 1717.24 585.2"/><path class="cls-11" d="M241.34,1278.5s0-11.77,1.67-15.68,7.82-19.83,7.82-19.83h24s4.47,14.53,4.75,19.27,0,16.24,0,16.24Z"/><path class="cls-11" d="M393.88,1278.5s0-11.77-1.68-15.68-7.82-19.83-7.82-19.83h-24s-4.47,14.53-4.75,19.27,0,16.24,0,16.24Z"/><path class="cls-13" d="M297.63,618.34s-.85,26.18-4.2,37.92L266.9,674.77l99.87,14.94L343,656.8s-7.19-35.11-3.42-48.1S297.63,618.34,297.63,618.34Z"/><path class="cls-24" d="M297.48,622s7.9,19,22.78,18.59,18.26-17.24,18.26-17.24Z"/><path class="cls-25" d="M288.6,606.56s-4.8-24-8.15-31.25-6.15-39.67,31-41.34c0,0,14.24,1.67,22.07-3.08,0,0,0,4.75-2,6.43a24.71,24.71,0,0,1,22.91,8.1c10.06,11.18-6.7,50.29-5.87,59.51Z"/><path class="cls-13" d="M318.55,633.2c-10.78-.19-30.62-14.54-30.62-32.32V573.15c0-6.49,4.53-11.8,10.06-11.8h41.12c5.53,0,10.06,5.31,10.06,11.8v26.16C349.17,618,330.91,633.42,318.55,633.2Z"/><path class="cls-25" d="M287.93,588s.06-16.66,13.26-19.22,42.74,8.12,46.93-4-57.1-12-60.19-4.19S287.93,588,287.93,588Z"/><path class="cls-18" d="M244.35,871.17s4.2,128.36-2.08,201.59,0,175.17,0,175.17,20.1,11.08,41.89,0c0,0,23.9-141.49,23.75-175.17-.16-35.86,26-196,26-196Z"/><path class="cls-18" d="M393,1247.92s-20.1,11.09-41.89,0c0,0-23.89-141.48-23.74-175.16.07-15.14-4.56-52.46-9.93-90.51-7.35-52.06-16.08-105.48-16.08-105.48L394.45,871s-7.67,128.58-1.39,201.81S393,1247.92,393,1247.92Z"/><path class="cls-15" d="M393.34,892.52s-39.69,7.69-75.89,7.69c-15.79,0-32.95-1.74-46.61-3.56-15.1-2-25.93-4.13-25.93-4.13s-8,.71-3.29-39c3.61-30.19,2.48-57.44,1.67-85.48-.09-3.12,0-6.81.17-10.92,1.54-32.69,11.43-91.55,19-94.71,0,0,11.2-4.16,31-6.19,0,.38,11.49,17.18,25.13,19.06C327,672,333.68,669.11,343,656.8a266.1,266.1,0,0,1,38.24,7.38s1.43,6.23,6.81,114.41C390.14,821.44,404.76,892.67,393.34,892.52Z"/><path class="cls-11" d="M327.38,1072.76c.07-15.14-4.56-52.46-9.93-90.51,5.57-22.73,19.15-44.6,19.15-44.6C353.78,985.84,327.38,1072.76,327.38,1072.76Z"/><path class="cls-15" d="M206.62,791.22c-1,.79,2.36,9,7.22,19.63,10,21.9,26.62,54.24,26.62,54.24a95.54,95.54,0,0,1-5,14.77c-28-22-46-40.66-57.5-55-16.17-20.15-19.49-31.71-19.49-31.71,62.25-126.72,106.06-131.39,106.06-131.39l-5.17,83.75S209.5,788.83,206.62,791.22Z"/><path class="cls-13" d="M237.15,866.69s15.08-14,21.23-6.15,7.26,20.12,2.51,19.28-14.52-5.31-15.92-3.08-7.66,6.51-9.56,3.12S237.15,866.69,237.15,866.69Z"/><path class="cls-13" d="M240.46,865.09a95.54,95.54,0,0,1-5,14.77c-28-22-46-40.66-57.5-55,8.68-.64,21.34-3.74,35.92-14C223.84,832.75,240.46,865.09,240.46,865.09Z"/><path class="cls-15" d="M480.9,793.16s-3.32,11.56-19.49,31.71c-11.51,14.33-29.54,33-57.5,55a95.54,95.54,0,0,1-5-14.77s16.62-32.34,26.62-54.24c4.87-10.66,8.17-18.84,7.22-19.63-2.24-1.86-32.67-28.3-46.24-40.09L380,745.52,376.9,663S418.65,666.44,480.9,793.16Z"/><path class="cls-13" d="M402.18,866.69s-15.08-14-21.23-6.15-7.26,20.12-2.51,19.28,14.52-5.31,15.92-3.08,7.65,6.51,9.55,3.12S402.18,866.69,402.18,866.69Z"/><path class="cls-13" d="M398.87,865.09a95.54,95.54,0,0,0,5,14.77c28-22,46-40.66,57.49-55-8.67-.64-21.33-3.74-35.91-14C415.48,832.75,398.87,865.09,398.87,865.09Z"/><path class="cls-10" d="M294.82,649.87a10.62,10.62,0,0,0-5.69,6.88s17.79,18.3,29.43,18.57Z"/><path class="cls-10" d="M318.56,675.32,341.51,649s4.74,3.12,4.68,8.25C346.19,657.2,328.43,676,318.56,675.32Z"/><path class="cls-9" d="M314.41,673.38S296.89,824.66,303,843.1a126.65,126.65,0,0,0,10.69,23.43,6.21,6.21,0,0,0,10.75,0c4.66-8.08,10.74-19.77,10.74-25.7,0-9.61-13.3-167.56-13.3-167.56Z"/><path class="cls-10" d="M309.83,666s10.59-1.06,17-.41a1.79,1.79,0,0,1,1.37,2.65c-1.81,3.26-5.5,8.9-9.35,8.9C313.47,677.11,305,666.34,309.83,666Z"/><path class="cls-19" d="M310,615.33a11.81,11.81,0,0,0,9.23,4.38,11,11,0,0,0,8.62-4.38S317.91,613.71,310,615.33Z"/><path class="cls-13" d="M2245,1084.45a6.89,6.89,0,0,1,1.17,7.37l0,0c-1.81,4.89-7.71,10.33-14.55,15.75-.88.69-1.66,1.33-2.33,1.91l-.53.46-.4.36c-6.39,5.81-4,7.17-15.5,19-13.1,13.45-22.06,13.63-24.6,12.38-2.15-1.07,2.28-8.22,7.19-16.25.24-.39.47-.78.72-1.17l1.95-3.23c5.75-9.67,4.33-14.23,3.08-28.69-1-11.75-17.8-65.72-17.8-65.72l24.95-4.12s7.2,42.94,15.43,49.6c4.4,3.55,9.35,3.63,13.58,6.27.3.18.59.37.88.56A33,33,0,0,1,2245,1084.45Z"/><path class="cls-11" d="M2245,1084.45a6.89,6.89,0,0,1,1.17,7.37l0,0c-2.2,4.88-8,10.29-14.58,15.7-.86.7-1.62,1.35-2.3,2l-.53.46-.4.36c-6.39,5.81-4,7.17-15.5,19-13.1,13.45-22.06,13.63-24.6,12.38-2.15-1.07,2.28-8.22,7.19-16.25a55.43,55.43,0,0,0,23.31-16.92c7.9-9.94,13.21-22.74,18.6-30.14.3.18.59.37.88.56A33,33,0,0,1,2245,1084.45Z"/><path class="cls-13" d="M2044.09,1067.47c-1.59,7.68-12.55,6.32-24.78,3.24s-9.34.5-26.77-1.56-22.66-8.59-23.17-11.18c-.46-2.31,8.16-3.06,17.41-4.06l3.5-.39c10.44-1.24,18.13-7.92,27.65-13.38,9-5.17,22.56-26.42,22.56-26.42l23.9,2.06s-12.68,19-17.59,27.23c-2.89,4.85-2.79,11.3-2.47,16.28A30.33,30.33,0,0,1,2044.09,1067.47Z"/><path class="cls-11" d="M2019.31,1070.71c-12.23-3.08-9.34.5-26.77-1.56s-22.66-8.59-23.17-11.18c-.46-2.31,8.16-3.06,17.41-4.06l.09.18a49.12,49.12,0,0,0,24.91,7.94c11.83.37,24.39-2.93,32.55-2.74a30.33,30.33,0,0,1-.24,8.18C2042.5,1075.15,2031.54,1073.79,2019.31,1070.71Z"/><path class="cls-11" d="M2136.82,915.2l21.93,60.32,28.63,78.75a47.23,47.23,0,0,0,15.51-1.31c7-2,15.05-7.19,15.05-7.19s-7.51-84.4-22.28-132.92c-3.79-12.45-8.06-22.53-12.81-28.22C2159.61,856.76,2136.82,915.2,2136.82,915.2Z"/><path class="cls-18" d="M2160.22,819.83c14.68-4.62,56.41,1.74,98.31,10.25l8.89-14.43,90.68-6.44s29.44,66.53,12.77,108.68c-2.45,6.19-8.42,8.77-16.58,8.84v0s-54.09.93-71.6.81c-45.08-.32-95.18-31.66-101.68-33-10.64-2.21-15.05,19.07-25.86,41.37s-100.85,98.38-100.85,98.38-13.76,0-19.42-2.13c-6.1-2.34-8.31-5.33-8.31-5.33S2127.12,830.25,2160.22,819.83Z"/><path class="cls-11" d="M2268.83,690.83c32.15,18,97.37,55.3,97.71,55.07,0,0,24,9.24,37.72.27,22.86-15,35.35-55.54-6-90.84-20.63-17.6-35.35-22-37.39-49.84-1.11-15.13-21.43-65.18-55.8-60.81a52.43,52.43,0,0,1-8.67.51,32.14,32.14,0,0,0-17.45,4.37C2259.41,561,2220.5,683.61,2268.83,690.83Z"/><path class="cls-13" d="M2296,675.9c-.14.09,15.84,5.67,26.59,1,10.11-4.38,17.86-20.91,17.71-20.92-4.58-.24-9.59-4.29-13.28-30.61l-2,.68-32.9,11.58s2.3,10.55,3.77,20.59C2297.15,666.65,2297.79,674.72,2296,675.9Z"/><path class="cls-26" d="M2292.15,637.63s1.4,7.4,3.35,18c18.87-3.26,26.83-19.36,29.55-29.54Z"/><path class="cls-13" d="M2287.18,648.05s45-5.71,41-33.65-.87-47.49-29.74-45-32.91,13.92-33.85,23.57S2275.39,648.82,2287.18,648.05Z"/><path class="cls-11" d="M2266.3,577.66s28.58,25,48.12,27.11,27-4.09,27-4.09a76.35,76.35,0,0,1-18.29-25.15,13.75,13.75,0,0,0-11.28-8.18C2297.89,566,2271.42,565.31,2266.3,577.66Z"/><path class="cls-11" d="M2284.29,575.56s-9.68,9.23-12.76,16.11c-3,6.64-4,22.55-1.68,28.89,0,0-14.78-29.25-6.19-43.34C2272.76,562.27,2284.29,575.56,2284.29,575.56Z"/><path class="cls-15" d="M2257.71,741.79c.71,90.92-.14,71.92,9.75,80.61,2.38,2.1,9.11,3.38,18,4,27.86,2.05,76.9-2.2,78.79-7.34,6.56-17.78,2.06-23.35,7.62-50.6.58-2.9,1.29-6,2.13-9.45,4.6-18.71,9-25.06-6.65-55.28-14.2-27.38-29-49.63-30.35-48.84-38.12,22.27-41,3.31-41,3.31S2257.35,697.44,2257.71,741.79Z"/><path class="cls-18" d="M2158.75,975.52l28.63,78.75a47.23,47.23,0,0,0,15.51-1.31c7-2,15.05-7.19,15.05-7.19s-7.51-84.4-22.28-132.92Z"/><path class="cls-15" d="M2295.92,658.22s-39.12,6.35-43.82,23.14l-32.4,115.48s19.83,3.71,29.07-5.41,32.53-84.89,32.53-84.89Z"/><path class="cls-17" d="M2285.43,826.43c27.86,2.05,76.9-2.2,78.79-7.34,6.56-17.78,2.06-23.35,7.62-50.6l-13.18-38s1.92,42.18-10.59,53.18-51.05,21-57.16,30.27C2288,818.41,2286,822.85,2285.43,826.43Z"/><path class="cls-13" d="M2317.49,808.92S2290,802.6,2285.58,805s-15.36,11.22-16.74,14.31,9.89-2.28,13.55-3.23c2.38-.62,8.59,1.59,11.67,2.64C2307,823.14,2315,821,2315,821Z"/><path class="cls-15" d="M2337,654.9s36.91,2.54,49.57,20.46c17.81,25.22,52.76,132.44,32.2,146.56-23.16,15.9-104.89,3.46-104.89,3.46s-2.63-12.74,1.2-18.87,65.46-15.64,68.32-18.47-35.12-55.65-35.06-64.18S2337,654.9,2337,654.9Z"/><path class="cls-13" d="M2284.19,812.66s-5.81,7.39-7.71,8.27a5.64,5.64,0,0,1-3.11.64l3.93-7Z"/><path class="cls-13" d="M2285.58,805l-16.81,8a3,3,0,0,0,2.77,1.09c2.06-.08,7.28-1.94,7.28-1.94Z"/><polygon class="cls-9" points="2280.07 832.92 2147.54 831.99 2108.38 732.57 2240.7 733.5 2280.07 832.92"/><polygon class="cls-10" points="2146.01 828.12 2321.02 829.35 2320.99 833.21 2147.54 831.99 2146.01 828.12"/><path class="cls-19" d="M2181.35,782.66c-1-3.5,1.06-6.31,4.54-6.28a9,9,0,0,1,8.07,6.36c1,3.5-1.06,6.31-4.54,6.28A9,9,0,0,1,2181.35,782.66Z"/><path class="cls-27" d="M2865.52,1288.6l-2825.15-1a3.93,3.93,0,0,1-3.92-3.93v-3.39a3.94,3.94,0,0,1,3.93-3.93l2825.15,1a3.93,3.93,0,0,1,3.92,3.93v3.4A3.94,3.94,0,0,1,2865.52,1288.6Z"/><path class="cls-28" d="M750.26,273.87s22.37-61.41,75.87-54.59c0,0,77.67-102.35,160.5-13.64,0,0,88.05-22,153.25,19,43.48,27.34,57.84,56,57.84,56Z"/><path class="cls-28" d="M1037.44,143.23s12.11-36.15,41.07-32.13c0,0,42-60.26,86.88-8,0,0,47.66-12.94,83,11.2,23.53,16.1,31.3,33,31.3,33Z"/><path class="cls-28" d="M2112.41,404.37S2130,352,2172,357.78c0,0,61-87.36,126-11.65,0,0,69.1-18.76,120.28,16.25,34.11,23.34,45.38,47.82,45.38,47.82Z"/><path class="cls-28" d="M424.17,601.48s12.68-37.72,43-33.53c0,0,44-62.88,90.92-8.38,0,0,49.87-13.51,86.81,11.69,24.63,16.79,32.76,34.42,32.76,34.42Z"/><path class="cls-28" d="M401.05,495.1s6.34-18.86,21.49-16.77c0,0,22-31.44,45.46-4.19,0,0,24.94-6.75,43.41,5.85,12.31,8.4,16.38,17.21,16.38,17.21Z"/></g></g></svg>