<svg xmlns="http://www.w3.org/2000/svg" xmlns:xlink="http://www.w3.org/1999/xlink" viewBox="0 0 674 421.75"><defs><style>.cls-1{fill:none;}.cls-2{opacity:0.8;}.cls-3{opacity:0.5;}.cls-4{fill:#ced3e6;}.cls-5{fill:#fff;}.cls-6{fill:#585859;}.cls-7{fill:#39393b;}.cls-8{fill:#df615c;}.cls-9{fill:#5392f3;}.cls-10{fill:#d2dcec;}.cls-11{clip-path:url(#clip-path);}.cls-12{fill:#ea9b7a;}.cls-13{fill:#d96c63;}.cls-14{fill:#faaf3a;}.cls-15{fill:#c77e2e;}.cls-16{fill:#0875f7;}.cls-17{fill:#084fc7;}.cls-18{fill:#21b573;}.cls-19{fill:#217c58;}.cls-20{fill:#b11722;}</style><clipPath id="clip-path"><path class="cls-1" d="M300.39,217.24c-1.32,4-1.32,4.74-1.32,4l.05-115.11c0-.71-.05-.6-.05-83.95H557.94l0,195Z"/></clipPath></defs><title>ugc-net</title><g id="Layer_2" data-name="Layer 2"><g id="OBJECTS"><g class="cls-2"><g class="cls-3"><path class="cls-4" d="M343.06,123.19a145.55,145.55,0,0,1-66.32-28.1C247.45,73,186.15,35.36,127.68,54.1,47,80,46.66,154.72,67.67,195.34S237.66,354.9,430.8,336C603.64,319,637.32,125.18,545.14,90.1,465.19,59.67,437.91,137.2,343.06,123.19Z"/></g><g class="cls-3"><ellipse class="cls-4" cx="591.88" cy="94.5" rx="7.49" ry="8.07"/></g><path class="cls-4" d="M102.6,41.36a4.85,4.85,0,0,1,5.43,3c1.38,3.74-2.23,7.93-7.1,6.05h0C96.73,47.35,98.56,42.11,102.6,41.36Z"/><circle class="cls-4" cx="571.42" cy="22.4" r="9.76" transform="translate(457.5 582.8) rotate(-80.75)"/><g class="cls-2"><path class="cls-4" d="M132.19,33.67A9.86,9.86,0,1,1,120,26.83,9.86,9.86,0,0,1,132.19,33.67Z"/></g><path class="cls-4" d="M522.39,327.48a4.84,4.84,0,0,1,5.9,2c2.06,3.42-.72,8.21-5.85,7.27h0C517.74,334.45,518.56,329,522.39,327.48Z"/><path class="cls-4" d="M550,314.41A9.86,9.86,0,1,1,536.82,310,9.86,9.86,0,0,1,550,314.41Z"/><circle class="cls-4" cx="553.03" cy="7.46" r="6.01"/></g><g class="cls-2"><path class="cls-4" d="M575,116.26C575,62.61,530.35,3.82,474.75.27c-1-.07-2-.12-3-.17C392.09-3.61,386,93.6,313.9,104.57S186.72,60.18,100.43,96.29C22.93,128.72,1.94,311,229.64,318.28,411.83,324.13,575.05,276.33,575,116.26Z"/></g><ellipse class="cls-4" cx="432.17" cy="374.23" rx="175.71" ry="9.06"/><path class="cls-4" d="M551.19,348.86H526.84v25.32h28.47V353A4.12,4.12,0,0,0,551.19,348.86Z"/><rect class="cls-4" x="396.58" y="294.6" width="84.52" height="54.26"/><path class="cls-5" d="M328.48,348.86H529.8a15.92,15.92,0,0,1,15.92,15.92v9.4a0,0,0,0,1,0,0H312.56a0,0,0,0,1,0,0v-9.4A15.92,15.92,0,0,1,328.48,348.86Z"/><rect class="cls-5" x="386.23" y="294.6" width="84.52" height="54.26"/><polygon class="cls-4" points="386.23 311.26 470.75 304.49 470.76 294.6 386.34 294.6 386.23 311.26"/><rect class="cls-4" x="237.29" y="59.24" width="383.46" height="235.37" rx="11.29"/><path class="cls-6" d="M620.76,70.53v197H585.85V59.24h23.61A11.3,11.3,0,0,1,620.76,70.53Z"/><path class="cls-5" d="M606.4,70.53V283.32a11.29,11.29,0,0,1-11.29,11.29H248.59a11.29,11.29,0,0,1-11.3-11.29V70.53a11.3,11.3,0,0,1,11.3-11.29h347l.36,0h0l.26,0,.44.05.28,0,.13,0,.28,0A11.3,11.3,0,0,1,606.4,70.53Z"/><path class="cls-7" d="M597.38,59.47l-.28,0-.13,0-.28,0-.44-.05-.26,0h0l-.36,0h-347a11.3,11.3,0,0,0-11.3,11.29v197H606.4v-197A11.3,11.3,0,0,0,597.38,59.47ZM591.76,247.9a3.07,3.07,0,0,1-3.07,3.07H255a3.07,3.07,0,0,1-3.08-3.07V77A3.07,3.07,0,0,1,255,73.88H588.69A3.07,3.07,0,0,1,591.76,77Z"/><rect class="cls-4" x="251.93" y="73.88" width="339.82" height="177.09" rx="3.07"/><path class="cls-5" d="M591.76,77V93.08H251.93V77A3.07,3.07,0,0,1,255,73.88H588.69A3.07,3.07,0,0,1,591.76,77Z"/><path class="cls-8" d="M565.44,83.22a2.61,2.61,0,1,1-2.61-2.6A2.61,2.61,0,0,1,565.44,83.22Z"/><circle class="cls-9" cx="571.28" cy="83.22" r="2.61"/><rect class="cls-10" x="281.61" y="80.46" width="270.34" height="5.52" rx="2.43"/><path d="M264.2,83.22v2.56a.47.47,0,0,1-.7.41l-2.21-1.28-2.22-1.28a.47.47,0,0,1,0-.81l2.22-1.28,2.21-1.28a.47.47,0,0,1,.7.41Z"/><path d="M268.09,83.22v2.56a.47.47,0,0,0,.7.41L271,84.91l2.21-1.28a.47.47,0,0,0,0-.81L271,81.54l-2.22-1.28a.47.47,0,0,0-.7.41Z"/><rect class="cls-7" x="576.44" y="82.39" width="6.27" height="1.47" rx="0.65" transform="translate(110.97 434.16) rotate(-45)"/><rect class="cls-7" x="578.83" y="80" width="1.47" height="6.27" rx="0.65" transform="translate(110.97 434.16) rotate(-45)"/><rect class="cls-5" x="290.35" y="96.98" width="262.09" height="147.12" rx="6.42"/><path class="cls-4" d="M366.21,172.25H308.74a1.59,1.59,0,0,1-1.59-1.59h0a1.59,1.59,0,0,1,1.59-1.6h57.47a1.59,1.59,0,0,1,1.59,1.6h0A1.59,1.59,0,0,1,366.21,172.25Z"/><path class="cls-4" d="M366.21,158.75H308.74a1.6,1.6,0,0,1-1.59-1.6h0a1.6,1.6,0,0,1,1.59-1.6h57.47a1.6,1.6,0,0,1,1.59,1.6h0A1.6,1.6,0,0,1,366.21,158.75Z"/><path class="cls-4" d="M366.21,185.76H308.74a1.6,1.6,0,0,1-1.59-1.6h0a1.59,1.59,0,0,1,1.59-1.59h57.47a1.59,1.59,0,0,1,1.59,1.59h0A1.6,1.6,0,0,1,366.21,185.76Z"/><path class="cls-4" d="M542.77,172.25H485.31a1.6,1.6,0,0,1-1.6-1.59h0a1.6,1.6,0,0,1,1.6-1.6h57.46a1.6,1.6,0,0,1,1.6,1.6h0A1.6,1.6,0,0,1,542.77,172.25Z"/><path class="cls-4" d="M542.77,158.75H485.31a1.6,1.6,0,0,1-1.6-1.6h0a1.6,1.6,0,0,1,1.6-1.6h57.46a1.6,1.6,0,0,1,1.6,1.6h0A1.6,1.6,0,0,1,542.77,158.75Z"/><path class="cls-4" d="M542.77,185.76H485.31a1.6,1.6,0,0,1-1.6-1.6h0a1.6,1.6,0,0,1,1.6-1.59h57.46a1.6,1.6,0,0,1,1.6,1.59h0A1.6,1.6,0,0,1,542.77,185.76Z"/><path class="cls-7" d="M290.35,221.25H552.43v21.48a1.36,1.36,0,0,1-1.36,1.36H291.71a1.36,1.36,0,0,1-1.36-1.36Z"/><path class="cls-5" d="M526.69,229.72v-1.94h2.42v-1.72h-3.28a.85.85,0,0,0-.86.86v2.8Z"/><path class="cls-5" d="M526.69,233.16H525v3a.86.86,0,0,0,.86.86h3.28v-1.72h-2.42Z"/><path class="cls-5" d="M534.16,229.72h1.72v-2.8a.85.85,0,0,0-.86-.86h-3.16v1.72h2.3Z"/><path class="cls-5" d="M534.16,233.16v2.09h-2.3V237H535a.86.86,0,0,0,.86-.86v-3Z"/><polygon class="cls-5" points="305.61 231.88 305.61 226.44 310.33 229.16 315.04 231.88 310.33 234.61 305.61 237.33 305.61 231.88"/><rect class="cls-5" x="329.67" y="226.99" width="2.92" height="9.91" rx="0.84"/><rect class="cls-5" x="335.77" y="226.99" width="2.92" height="9.91" rx="0.84"/><rect class="cls-4" x="290.35" y="216.95" width="262.09" height="4.3"/><rect class="cls-8" x="290.35" y="216.95" width="134.48" height="4.3"/><path class="cls-7" d="M510.53,200.24h3v6.47h4V209h-6.91Z"/><path class="cls-7" d="M518.25,200.24h3V209h-3Z"/><path class="cls-7" d="M532,200.24,528.3,209h-2.9l-3.71-8.77h3.18l2.09,5.12,2.14-5.12Z"/><path class="cls-7" d="M539.59,206.78V209H532.3v-8.77h7.13v2.23H535.2v1h3.71v2.13H535.2v1.16Z"/><path class="cls-8" d="M505.66,204.55a3.61,3.61,0,1,1-3.61-3.61A3.61,3.61,0,0,1,505.66,204.55Z"/><path class="cls-7" d="M322.36,207c0,2-1.9,3.3-4.62,3.3s-4.62-1.3-4.62-3.3a2.69,2.69,0,0,1,1.38-2.37,2.52,2.52,0,0,1-1-2c0-1.87,1.75-3.08,4.26-3.08s4.25,1.21,4.25,3.08a2.51,2.51,0,0,1-1,2A2.71,2.71,0,0,1,322.36,207Zm-3.49-.12a1.14,1.14,0,1,0-1.13,1.08A1,1,0,0,0,318.87,206.87Zm-2-4.13a.83.83,0,1,0,.83-.89A.81.81,0,0,0,316.91,202.74Z"/><path class="cls-7" d="M323,204.9c0-3.41,1.94-5.39,4.66-5.39s4.67,2,4.67,5.39-1.95,5.39-4.67,5.39S323,208.32,323,204.9Zm5.84,0c0-2-.5-2.61-1.18-2.61s-1.18.62-1.18,2.61.5,2.61,1.18,2.61S328.85,206.89,328.85,204.9Z"/><path class="cls-8" d="M307.08,202a3.17,3.17,0,1,1-3.17-3.17A3.16,3.16,0,0,1,307.08,202Z"/><path class="cls-8" d="M309.83,210H298a6.12,6.12,0,0,1,5.83-3.76H304A6.13,6.13,0,0,1,309.83,210Z"/><g class="cls-11"><path class="cls-12" d="M340.3,130.49s-1.59,9.67-8.7,11.4c-5.75,1.39-11.16-4.13-13-6.3-.44-.52-.69-.85-.69-.85a8.76,8.76,0,0,1-1.06,0c-1.5,0-4.16-.33-5.21-2.17-1.48-2.63,3.93-4.42,3.93-4.42s-2.78-2.48-2.08-4.28,4.4-2.14,4.4-2.14-4-2.6-2.66-4.86c2-3.41,6.16.34,6.49.54-.27-.3-5.45-5.67-2.61-6.63,2.47-.84,6.55,1.94,9.23,4.71.43.43.67.69.67.69l.44-.31c1.34-.9,5.45-3.3,8.08-1.11C340.65,117.45,340.3,130.49,340.3,130.49Z"/><path class="cls-13" d="M332.87,136.43a.59.59,0,0,1-.56,0,.57.57,0,0,1-.15-.79,5.12,5.12,0,0,0,.86-4.23c-.94-3.61-5.78-6.12-5.83-6.14a.57.57,0,0,1,.51-1c.22.11,5.35,2.77,6.41,6.87a6.14,6.14,0,0,1-1,5.14A.53.53,0,0,1,332.87,136.43Z"/><path class="cls-13" d="M327.93,122.5a1.76,1.76,0,0,1-.79,1.54,1.82,1.82,0,0,1-.37.18,3.73,3.73,0,0,1-1,.23,4.47,4.47,0,0,1,.73.59,2,2,0,0,1,.43.67,1.47,1.47,0,0,1-.25,1.42c-.9,1.2-3,1.7-4.7,1.9a5.9,5.9,0,0,1,2.63,2.67,1.75,1.75,0,0,1-.22,1.72,3.26,3.26,0,0,1-1.22.9,18.6,18.6,0,0,1-4.58,1.27c-.45-.52-.7-.85-.7-.85a9,9,0,0,1-1.07,0,.56.56,0,0,1,.3-.12c2.09-.25,5.67-1,6.37-1.91a.67.67,0,0,0,.06-.67c-.39-1.08-2.42-2.51-4.18-2.94a.56.56,0,0,1,.15-1.11c1.39,0,5.23-.21,6.26-1.58.15-.2.11-.3.09-.36a1.9,1.9,0,0,0-.86-.78,14,14,0,0,0-3.34-1.26.56.56,0,0,1-.29-.17.55.55,0,0,1-.13-.51.57.57,0,0,1,.68-.42c.2,0,.6.15,1.1.31a12.76,12.76,0,0,0,2.56.09,2.16,2.16,0,0,0,.95-.26.65.65,0,0,0,.29-.6,3.62,3.62,0,0,0-.61-1.71.58.58,0,0,1,0-.64h0a.55.55,0,0,1,.91.06A4.63,4.63,0,0,1,327.93,122.5Z"/><path class="cls-7" d="M323.79,111.93a15,15,0,0,1,2.65,1.94c.8.77,1.31,1.15,1.86,1.66,0-.07,0,.06,0,0L317.44,69.47a.56.56,0,0,0-1.09.22l7.44,42.24S323.79,111.92,323.79,111.93Z"/><path class="cls-7" d="M333.23,137.51c-3.76,2.42-4.82.63-4.82.63l-1.9-10.82.15-.19a1.47,1.47,0,0,0,.25-1.42,2,2,0,0,0-.43-.67,4.15,4.15,0,0,0-.44-.38l0-.24a3.33,3.33,0,0,0,.77-.2,1.82,1.82,0,0,0,.37-.18,1.67,1.67,0,0,0,.69-.91,2.86,2.86,0,0,0,1.7.75,3.25,3.25,0,0,0,.54,0Z"/><path class="cls-13" d="M336.5,120.62a18.49,18.49,0,0,1-3.7,2.48,6.38,6.38,0,0,1-3.27.79,2.84,2.84,0,0,1-2-1.16c-1.79-2.4-.25-5.54.82-7.2.43.43.67.69.67.69l.44-.31c-.93,1.37-2.47,4.2-1,6.15a1.67,1.67,0,0,0,1.25.7c2,.21,5.09-2.09,6.12-3a.55.55,0,0,1,.79,0A.57.57,0,0,1,336.5,120.62Z"/><path class="cls-14" d="M394.62,109.44v0h0l0,.06,0,.14-.06.33-.15.73c-.06.25-.11.51-.17.77s-.11.52-.18.78c-.24,1-.5,2.12-.79,3.19-.58,2.14-1.2,4.29-1.93,6.41S389.81,126,389,128.1c-.44,1-.87,2.05-1.33,3.05s-.94,2-1.41,3c-1,2-2,3.9-3.14,5.77-.27.48-.57.93-.85,1.4s-.56.93-.86,1.38c-.6.89-1.19,1.81-1.82,2.68-1.22,1.77-2.57,3.43-3.91,5.09s-2.8,3.19-4.32,4.66l-1.12,1.11L369,157.31l-.58.53-.14.13.07-.07.1-.08a3.19,3.19,0,0,1,.44-.31,7.05,7.05,0,0,1,2.1-1c.18,0,.33-.09.5-.12l.25,0,.22,0c.13,0,.28,0,.41,0h.6a1.43,1.43,0,0,1,.23,0h.13l.07,0h0c.17.06-.16,0-.65-.21a18.55,18.55,0,0,1-1.88-1c-.72-.43-1.51-.95-2.31-1.52-1.61-1.14-3.29-2.5-5-4s-3.39-3-5.08-4.63-3.38-3.29-5-5-3.34-3.45-5-5.23c-.83-.88-1.65-1.76-2.46-2.66l-2.36-2.58-18.22,13.67.61.92.57.85,1.15,1.67c.78,1.1,1.57,2.19,2.36,3.27,1.6,2.15,3.24,4.28,4.94,6.38s3.47,4.17,5.32,6.21c.92,1,1.86,2,2.83,3.05s2,2,3,3a87.69,87.69,0,0,0,6.71,5.86c1.24.95,2.54,1.9,4,2.83a40.69,40.69,0,0,0,4.79,2.7,29.28,29.28,0,0,0,6.56,2.24l.5.1.53.09,1.09.15c.37,0,.78.07,1.17.09l.59,0h.63l1.29,0c.44,0,.91-.08,1.36-.13l.69-.1.71-.14c.48-.1.95-.2,1.43-.34a19.65,19.65,0,0,0,5.55-2.59c.41-.28.81-.58,1.2-.88l.29-.24.26-.21.21-.19.83-.74,1.67-1.5c.55-.5,1.07-1,1.61-1.55,2.15-2.06,4.13-4.28,6.06-6.53s3.69-4.62,5.33-7.05,3.19-4.92,4.63-7.45l1.05-1.91c.34-.64.66-1.29,1-1.94s.65-1.29.95-2l.92-2a105.84,105.84,0,0,0,5.79-16.18c.73-2.76,1.39-5.54,1.89-8.37.26-1.42.49-2.85.68-4.3.05-.37.1-.73.14-1.11s.09-.73.12-1.12.08-.76.12-1.15l.1-1.39Z"/><path class="cls-15" d="M337.4,140.48a1.57,1.57,0,1,0,1.43-1.7A1.57,1.57,0,0,0,337.4,140.48Z"/><path class="cls-15" d="M370.07,167.49a.67.67,0,0,0,.65-.51,51.27,51.27,0,0,0,1.1-11.64.67.67,0,0,0-.69-.65.68.68,0,0,0-.66.69,49.85,49.85,0,0,1-1.05,11.27.68.68,0,0,0,.49.82Z"/><path class="cls-15" d="M374.37,162.62a.66.66,0,0,0,.3-.07.68.68,0,0,0,.3-.9,55.25,55.25,0,0,0-3.29-5.81.67.67,0,1,0-1.05.83,56.79,56.79,0,0,1,3.14,5.58A.65.65,0,0,0,374.37,162.62Z"/><path class="cls-15" d="M332.57,153.52a.67.67,0,0,0,.49-.2c5.62-5.8,18.3-14.95,18.43-15a.66.66,0,0,0,.15-.93.67.67,0,0,0-.93-.16c-.13.1-12.92,9.32-18.62,15.21a.66.66,0,0,0,.48,1.13Z"/><path class="cls-15" d="M338,148.57a.62.62,0,0,0,.43-.16.66.66,0,0,0,.09-.94l-6.78-8.14a.67.67,0,0,0-.95-.09.69.69,0,0,0-.09.95l6.79,8.14A.65.65,0,0,0,338,148.57Z"/><path class="cls-7" d="M411.21,307l9.09-53.68.75-4.39-26.19-9.24-1.49-.53-6.23-2.2s-.5,2.29-1.28,6.24c-.09.48-.19,1-.29,1.5-2.46,12.7-7.06,38.87-8.32,62.3Z"/><path class="cls-6" d="M406.57,307c3.93-21.41,9-52.69,9.28-54.51a.7.7,0,0,0-.58-.81.7.7,0,0,0-.81.58c-.07.45-5.33,32.93-9.34,54.74Z"/><path class="cls-7" d="M464.19,219.81s2,18.7-2.28,29.11-59.32,5.05-73.35-4.32c-5.76-3.84,6.5-39.3,6.5-39.3Z"/><path class="cls-6" d="M385.57,244.7a16.47,16.47,0,0,0,2.44-.63,16.14,16.14,0,0,0,3.62-1.76,18.83,18.83,0,0,0,3.23-2.63c6.07-6.13,7.86-15.38,7.95-15.84a.71.71,0,0,0-.57-.82.72.72,0,0,0-.83.56c0,.11-1.88,9.74-8,15.57a16.7,16.7,0,0,1-2.51,2,15.46,15.46,0,0,1-3.46,1.65,15.12,15.12,0,0,1-1.54.41C385.77,243.67,385.67,244.17,385.57,244.7Z"/><path class="cls-6" d="M419.55,249.92a.69.69,0,0,0,.66.72h0A.7.7,0,0,0,421,250c.12-2.55.27-5.17.44-7.79,0-.46.05-.92.09-1.38.55-8.54,1.26-16.93,1.79-22.85,0-.48.09-.94.13-1.39.12-1.3.22-2.45.32-3.43l-1.41-.23c-.09,1-.2,2.14-.31,3.46-.05.44-.09.91-.13,1.39-.53,5.87-1.23,14.18-1.79,22.67l-.09,1.41C419.83,244.56,419.67,247.28,419.55,249.92Z"/><path class="cls-6" d="M417.53,240.91a19.55,19.55,0,0,0,2.47.94,11.46,11.46,0,0,0,1.4.35,10,10,0,0,0,1.34.18,4.86,4.86,0,0,0,2.37-.37,2.93,2.93,0,0,0,1.61-2.16c.51-2.64,1.59-13.52,2.31-21.22.05-.47.09-.94.14-1.38.11-1.24.21-2.36.3-3.31l-1.4-.17c-.09.95-.2,2.09-.31,3.34-.05.44-.09.9-.13,1.38-.73,7.68-1.81,18.55-2.31,21.1a1.5,1.5,0,0,1-.85,1.19,4.89,4.89,0,0,1-3,0,12.51,12.51,0,0,1-1.4-.38,15.21,15.21,0,0,1-1.93-.76.73.73,0,0,0-1,.31A.68.68,0,0,0,417.53,240.91Z"/><path class="cls-7" d="M457.34,307c2.18-19.93,4.7-46.59,6.13-62,0-.49.08-1,.13-1.42.62-6.81,1-11.11,1-11.11-3.38-1.4-9.51-.44-16,1.41l-1.41.42a195.16,195.16,0,0,0-23.87,9.32V307Z"/><path class="cls-6" d="M454,307c1.88-22.15,4.11-54.15,4.14-54.57a.71.71,0,1,0-1.41-.1c0,.42-2.27,32.54-4.15,54.67Z"/><path class="cls-6" d="M443.26,223.84a36.8,36.8,0,0,0,3.91,10.41,22.73,22.73,0,0,0,7.27,8.06,16.48,16.48,0,0,0,9,2.65c0-.49.08-1,.13-1.42a15.25,15.25,0,0,1-8.4-2.41,21.18,21.18,0,0,1-6.62-7.29,36.75,36.75,0,0,1-3.93-10.25.71.71,0,0,0-1.39.25Z"/><path class="cls-14" d="M386.63,218.63c15.24,14.23,51.28,21.8,79.07,8.27,3.05-8.33,6.4-38.06,7.3-46.94.18-1.77.32-3.54.44-5.31a233.93,233.93,0,0,0,0-26.09c0-.49-.05-1-.07-1.47C473,139.7,472.49,132,472,123.9c-1-16.1-6.39-26-15.73-27.51a38.32,38.32,0,0,1-10.31-3.11l-.89-.44a28.49,28.49,0,0,1-4.71-2.92H419.51A15.89,15.89,0,0,1,413,95.34l-.81.37c-7.4,3.19-16,2.56-17.8,11.48-1.11,5.6,3.17,17.11,2.72,40.46,0,1.72-.09,3.49-.17,5.33s-.19,3.51-.33,5.36-.28,3.48-.46,5.3c-.16,1.59-.34,3.23-.54,4.91s-.44,3.48-.7,5.28C393.54,183.54,389.82,206.15,386.63,218.63Z"/><path class="cls-15" d="M458,223.49a.5.5,0,0,1-.17,0,.62.62,0,0,1-.44-.76c11.57-42.42,9.24-85.54,9.21-86a.63.63,0,0,1,1.25-.07c0,.43,2.37,43.75-9.25,86.36A.63.63,0,0,1,458,223.49Z"/><path class="cls-15" d="M395.24,168.4a.67.67,0,0,0,.67-.59c1.38-12.27,1.4-36.68,1.4-36.92a.67.67,0,0,0-1.34,0c0,.24,0,24.57-1.4,36.77a.68.68,0,0,0,.6.74Z"/><path class="cls-15" d="M423.78,214.61a1.57,1.57,0,1,0,1.43-1.7A1.57,1.57,0,0,0,423.78,214.61Z"/><path class="cls-15" d="M423.53,222.2a1.57,1.57,0,1,0,1.43-1.69A1.55,1.55,0,0,0,423.53,222.2Z"/><path class="cls-15" d="M405.19,138.63c-4.09-4.75-2.56-15.32-2.49-15.77a.67.67,0,0,1,.66-.57h13.87a.67.67,0,0,1,.67.57c.06.45,1.6,11-2.49,15.77a6.87,6.87,0,0,1-10.22,0Zm-1.24-15c-.25,2.24-.93,10.42,2.25,14.13a5.56,5.56,0,0,0,8.19,0c3.19-3.7,2.51-11.89,2.25-14.13Z"/><path class="cls-7" d="M442.22,38.57c-3.89-2.52-16.11-3.78-16.11-3.78s-2-5.28-4.28-6.79c-5.15-3.44-5.78,3.52-5.78,3.52s-5-7-9.57-5S407.74,35,407.74,35s-6.79-1.26-6,4.53,7.3,8.31,7.3,8.31a12.72,12.72,0,0,0-1,8.55c1,5.29,3.27,5.54,3.27,5.54l28.19,2.52s5.79,0,7.3-7.3-3.53-10.32-3.53-10.32S446.5,41.33,442.22,38.57Z"/><path class="cls-12" d="M419.19,86.38v5.3A16.81,16.81,0,0,0,421.07,93c9.19,5.52,19.11-1.31,19.11-1.31V73.32L421.7,84.82Z"/><path class="cls-7" d="M419.19,86.23v5.45A16.81,16.81,0,0,0,421.07,93c7.83-3.1,13.52-11.31,13.52-11.31L421.7,84.82Z"/><path class="cls-14" d="M440.13,86.3A10.46,10.46,0,0,1,448,94.41c-6,6.31-11.36,11.78-20,13.38V95.12A22.34,22.34,0,0,0,440.13,86.3Z"/><path class="cls-14" d="M419,88.13s-5.53,1.18-7.67,8.25c5.57,6.78,8.54,9.33,16.71,11.41V95.12S423.49,95,419,88.13Z"/><polygon class="cls-7" points="415.89 186.58 419.47 195.23 419.47 195.23 421.08 199.11 425.62 210.09 427.81 205.85 428.59 204.35 430.36 200.95 431.13 199.45 432.89 196.05 433.67 194.55 435.43 191.15 435.43 191.15 436.21 189.65 437.86 186.46 437.83 186.11 437.57 183.58 436.98 177.83 436.73 175.29 436.14 169.55 435.88 167.01 435.3 161.27 435.04 158.74 434.45 152.99 434.2 150.45 433.61 144.71 433.35 142.17 432.77 136.43 432.51 133.89 431.93 128.15 431.67 125.61 431.08 119.86 430.82 117.33 430.22 111.39 425.83 111.22 425.7 112.21 425.44 114.22 424.83 118.78 424.57 120.79 423.97 125.35 423.7 127.36 423.1 131.92 422.83 133.93 422.23 138.49 421.97 140.5 421.37 145.06 421.1 147.07 420.5 151.63 420.23 153.64 419.63 158.2 419.37 160.21 418.76 164.77 418.5 166.78 417.9 171.34 417.63 173.36 417.03 177.91 416.76 179.93 416.16 184.48 415.9 186.5 415.89 186.58"/><polygon class="cls-6" points="425.44 114.22 431.08 119.86 430.82 117.33 425.7 112.21 425.44 114.22"/><polygon class="cls-6" points="424.57 120.79 431.93 128.15 431.67 125.61 424.83 118.78 424.57 120.79"/><polygon class="cls-6" points="423.7 127.36 432.77 136.43 432.51 133.89 423.97 125.35 423.7 127.36"/><polygon class="cls-6" points="422.83 133.93 433.61 144.71 433.35 142.17 423.1 131.92 422.83 133.93"/><polygon class="cls-6" points="421.97 140.5 434.45 152.99 434.2 150.45 422.23 138.49 421.97 140.5"/><polygon class="cls-6" points="421.1 147.07 435.3 161.27 435.04 158.74 421.37 145.06 421.1 147.07"/><polygon class="cls-6" points="420.23 153.64 436.14 169.55 435.88 167.01 420.5 151.63 420.23 153.64"/><polygon class="cls-6" points="419.37 160.21 436.98 177.83 436.73 175.29 419.63 158.2 419.37 160.21"/><polygon class="cls-6" points="418.5 166.78 437.83 186.11 437.57 183.58 418.76 164.77 418.5 166.78"/><polygon class="cls-6" points="417.63 173.36 435.43 191.15 436.21 189.65 417.9 171.34 417.63 173.36"/><polygon class="cls-6" points="416.76 179.93 432.89 196.05 433.67 194.55 417.03 177.91 416.76 179.93"/><polygon class="cls-6" points="415.9 186.5 430.36 200.95 431.13 199.45 416.16 184.48 415.9 186.5"/><polygon class="cls-6" points="419.47 195.23 421.08 199.11 427.81 205.85 428.59 204.35 419.47 195.23"/><polygon class="cls-6" points="430.22 111.39 428.04 114.64 425.83 111.22 425.45 114.14 428 116.74 430.45 113.65 430.22 111.39"/><polygon class="cls-7" points="433.89 105.94 428.04 114.64 422.43 105.94 428.04 98.67 433.89 105.94"/><path class="cls-15" d="M437.29,111.89a.64.64,0,0,0,.42-.15c5.8-4.62,10.74-16.57,10.94-17.07a.67.67,0,0,0-.36-.88.68.68,0,0,0-.88.37c-.05.12-4.69,11.37-10,16.08l-8.82-12A.67.67,0,0,0,428,98a.7.7,0,0,0-.54.29L419.28,110c-1.26-2.27-4.56-8.29-7.34-13.88a.67.67,0,1,0-1.2.6c3.5,7,7.84,14.79,7.88,14.87a.68.68,0,0,0,.55.34.72.72,0,0,0,.59-.28l8.3-11.8,8.69,11.81a.7.7,0,0,0,.46.26Z"/><path class="cls-15" d="M428.05,99.34a.67.67,0,0,0,.67-.67v-3a.67.67,0,0,0-1.34,0v3A.67.67,0,0,0,428.05,99.34Z"/><path class="cls-13" d="M412.58,62.92s-3-3.56-4.71,0-.39,10.74,4.18,9.56Z"/><path class="cls-12" d="M409.37,75.38s0,10.94,11.37,10.92,19-8.91,19.43-9.32h0l.13-2.3L441,62.73l.34-6.39s1.45-11.49-9.47-13.59c-8-1.53-15.47-.2-19.24,4-.12.13-.24.27-.35.41a9.82,9.82,0,0,0-2.15,5.36l-.36,11.46-.08,2.81Z"/><path class="cls-7" d="M422.44,55.72s4.78,3.56,7.62,1.29-3.78-4.74-5.95-4.56S421,54.91,422.44,55.72Z"/><path class="cls-7" d="M417.24,55.72s-4.77,3.56-7.62,1.29,3.78-4.74,6-4.56S418.66,54.91,417.24,55.72Z"/><path class="cls-13" d="M421,76.81a4.74,4.74,0,0,0,3.25-1,.5.5,0,1,0-.65-.76,3.5,3.5,0,0,1-3.5.54.51.51,0,0,0-.67.26.51.51,0,0,0,.26.66A4.2,4.2,0,0,0,421,76.81Z"/><path class="cls-5" d="M425.94,69s-6.94,1.4-10.45,1.08c0,0,1.3,5.17,6.47,3.87A5.17,5.17,0,0,0,425.94,69Z"/><path class="cls-7" d="M412.23,47.12c1.78-.63,3.07,0,5.86,1.18,4,1.77,8.52.18,12.49-1.85s6.36.79,5,2.65-1.21,3.36.29,5.72-2.84,3.47-.44,5.32a2.46,2.46,0,0,1,.54,3,1.64,1.64,0,0,0,1.85,2.17h0c1.29-.33,3.12-2.62,3.12-2.62l.34-6.39s1.45-11.49-9.47-13.59c-8-1.53-15.47-.2-19.24,4C412.46,46.84,412.34,47,412.23,47.12Z"/><path class="cls-13" d="M424.57,65.35c0,.8,1.65,1.44,3.67,1.44s3.67-.64,3.67-1.44-1.64-1.44-3.67-1.44S424.57,64.55,424.57,65.35Z"/><path class="cls-13" d="M409.64,66.75a8.38,8.38,0,0,0,.88,0c2,0,3.66-.64,3.66-1.44s-1.64-1.44-3.66-1.44c-.27,0-.54,0-.8,0Z"/><path class="cls-7" d="M423,61c0,1.1.49,2,1.11,2s1.1-.88,1.1-2-.49-2-1.1-2S423,59.87,423,61Z"/><path class="cls-7" d="M412,61c0,1.1.49,2,1.11,2s1.1-.88,1.1-2-.49-2-1.1-2S412,59.87,412,61Z"/><path class="cls-7" d="M436.61,72.54c.05.12,1.49,3.46,3.56,4.44h0l.12-2.3A7.88,7.88,0,0,1,436.61,72.54Z"/><path class="cls-12" d="M438.61,64.93s4.38-5.88,7.58-1.26c2.65,3.81-2.35,13.73-7.58,10.33Z"/><path class="cls-7" d="M439.21,72.23a.45.45,0,0,0,.45-.4A7.49,7.49,0,0,1,444,65.77a.45.45,0,0,0-.34-.84,8.42,8.42,0,0,0-4.93,6.8.45.45,0,0,0,.4.5Z"/><path class="cls-7" d="M443.41,69.5a.44.44,0,0,0,.35-.16.46.46,0,0,0-.06-.64c-.18-.14-1.8-1.41-3.15-1.07a.46.46,0,0,0-.33.55.45.45,0,0,0,.55.32c.78-.2,2,.59,2.36.9A.42.42,0,0,0,443.41,69.5Z"/><path class="cls-7" d="M419.43,66.47a.45.45,0,1,0,0-.9,3.11,3.11,0,0,1-2.69-1.25c1.8-3.7,3.59-7.44,3.6-7.47a.44.44,0,0,0-.21-.6.44.44,0,0,0-.6.21s-1.87,3.91-3.7,7.68a.44.44,0,0,0,0,.39A3.82,3.82,0,0,0,419.43,66.47Z"/><path class="cls-12" d="M528.38,107.06s6.07,6.12,12,3.74c4.84-1.93,5.91-8.65,6.14-11.17.06-.6.06-1,.06-1a7.63,7.63,0,0,0,.79-.52c1.06-.78,2.82-2.35,2.62-4.21-.27-2.64-5.06-1.17-5.06-1.17s.72-3.19-.69-4.12-4.25.71-4.25.71,1.54-3.91-.57-4.85c-3.19-1.42-4.25,3.38-4.38,3.7,0-.35,1.55-15.08-1-14.32-2.21.66-4.24,13-4.75,16.32-.09.53-.13.83-.13.83s-.18,0-.47,0c-1.42,0-5.6.42-6.36,3.33C521.47,97.88,528.38,107.06,528.38,107.06Z"/><path class="cls-13" d="M540.79,96.65a5.32,5.32,0,0,0-.53,3.27,1.55,1.55,0,0,0,1,1.12,2.93,2.93,0,0,0,1.33,0,16.15,16.15,0,0,0,3.94-1.43c.06-.6.06-1,.06-1a6.54,6.54,0,0,0,.79-.52.52.52,0,0,0-.27.07c-1.63.89-4.57,2.19-5.55,1.87a.56.56,0,0,1-.38-.44c-.27-1,.46-3,1.49-4.24a.49.49,0,0,0-.66-.73c-1,.73-3.87,2.52-5.3,2.07-.21-.07-.23-.17-.25-.22a1.71,1.71,0,0,1,.22-1,12.53,12.53,0,0,1,1.76-2.6.5.5,0,0,0-.75-.66,13.63,13.63,0,0,0-1.79,2.59,4,4,0,0,0-.42,1.24,1.81,1.81,0,0,0,0,.7,1.31,1.31,0,0,0,.91.89C537.71,98.09,539.46,97.38,540.79,96.65Z"/><path class="cls-13" d="M533.19,92.47a.48.48,0,0,1,.35.43,3.24,3.24,0,0,0,.44,1.54.55.55,0,0,0,.51.28,1.76,1.76,0,0,0,.82-.3,14.47,14.47,0,0,0,2.66-2.2.47.47,0,0,1-.12.27,12.33,12.33,0,0,0-1.76,2.61l-.3.18a3.55,3.55,0,0,1-.9.38,1.59,1.59,0,0,1-.36.06,1.57,1.57,0,0,1-1.36-.7,4.14,4.14,0,0,1-.62-2,.48.48,0,0,1,.62-.5Z"/><path class="cls-13" d="M526.07,98a16.34,16.34,0,0,0,3.93-.11,5.62,5.62,0,0,0,2.74-1.1,2.52,2.52,0,0,0,.88-1.87c0-2.64-2.65-4.11-4.26-4.75-.09.53-.13.83-.13.83s-.18,0-.47,0c1.36.51,3.91,1.76,3.86,3.89a1.49,1.49,0,0,1-.54,1.15c-1.32,1.17-4.71,1.1-5.91,1a.49.49,0,0,0-.54.44A.5.5,0,0,0,526.07,98Z"/><path class="cls-13" d="M536.73,107.53a.51.51,0,0,0,.39-.32.5.5,0,0,0-.29-.64,4.46,4.46,0,0,1-2.78-2.59c-1.17-3.08,1-7.34,1.05-7.38a.5.5,0,0,0-.88-.46c-.1.19-2.42,4.7-1.09,8.19a5.39,5.39,0,0,0,3.35,3.17A.43.43,0,0,0,536.73,107.53Z"/><path class="cls-14" d="M463,99.91l10.36,9q2.49,2.32,5,4.61t5,4.55c1.67,1.5,3.33,3,5,4.46s3.33,2.89,5,4.26,3.29,2.71,4.83,3.85c.76.57,1.51,1.09,2.11,1.48l.4.26.16.1a.16.16,0,0,1,.06.05l.13.14c.05.07.05.12.11.18a.93.93,0,0,0,.52.08,8,8,0,0,0,2.9-1.13,25.12,25.12,0,0,0,4-3,53,53,0,0,0,4.09-4.11,101.61,101.61,0,0,0,7.72-9.95c2.47-3.55,4.2-6.29,6.43-10.07a16.64,16.64,0,0,0,15.1,5.77A134.43,134.43,0,0,1,536,123.94,105.08,105.08,0,0,1,528.29,137a67.71,67.71,0,0,1-5,6.34,46.56,46.56,0,0,1-6.5,6.07,33.2,33.2,0,0,1-4.23,2.75,27.68,27.68,0,0,1-5.25,2.18,23.62,23.62,0,0,1-6.33,1,23,23,0,0,1-6.71-.85,25.37,25.37,0,0,1-3.11-1.1l-.72-.33-.6-.29-.57-.3-.55-.28c-1.4-.76-2.6-1.49-3.75-2.22-2.28-1.45-4.33-2.89-6.34-4.35s-3.92-2.94-5.82-4.42-3.76-3-5.59-4.49-3.64-3-5.44-4.57-3.56-3.1-5.32-4.65-3.51-3.14-5.24-4.73l-2.58-2.41-1.29-1.21c-.43-.42-.85-.81-1.3-1.26Z"/><path class="cls-15" d="M472.85,142.43a.6.6,0,0,1-.36-.12c-6.84-4.79-19-14.88-19.13-15a.62.62,0,1,1,.8-1c.12.1,12.25,10.16,19,14.92a.63.63,0,0,1-.36,1.14Z"/><path class="cls-15" d="M458.7,131.51h-.09l-4.82-.71a.62.62,0,1,1,.18-1.23l4.82.7a.62.62,0,0,1,.52.71A.61.61,0,0,1,458.7,131.51Z"/><path class="cls-15" d="M538.45,118.24a.64.64,0,0,0-.43-1.19c-9.07,2-13.59-6.68-13.64-6.76a.63.63,0,0,0-.85-.28h0a.63.63,0,0,0-.27.85c0,.1,5,9.62,15,7.44A.76.76,0,0,0,538.45,118.24Z"/><path class="cls-15" d="M533.79,118.41a.7.7,0,0,0,.29-.32l3-7a.64.64,0,0,0-.34-.84.62.62,0,0,0-.83.34l-3,7a.64.64,0,0,0,.33.84A.66.66,0,0,0,533.79,118.41Z"/><path class="cls-15" d="M528.44,111.7a1.1,1.1,0,1,0,.47-1.49A1.1,1.1,0,0,0,528.44,111.7Z"/><path class="cls-15" d="M499.63,140.69a.65.65,0,0,0,.34-.46,27.35,27.35,0,0,1,1.86-6.34.64.64,0,0,0-1.14-.58,28.54,28.54,0,0,0-2,6.71.65.65,0,0,0,.53.73A.64.64,0,0,0,499.63,140.69Z"/><path class="cls-15" d="M503.77,139.26l.11-.08a.64.64,0,0,0,.08-.9,11.79,11.79,0,0,1-2.21-4.24.64.64,0,0,0-1.25.26,12.84,12.84,0,0,0,2.49,4.8A.65.65,0,0,0,503.77,139.26Z"/></g><ellipse class="cls-4" cx="144.84" cy="412.94" rx="144.84" ry="8.81"/><path class="cls-12" d="M135.8,167.6l14.64,53.5-5.22-6a27,27,0,0,0,6.64,2.37,49.22,49.22,0,0,0,8,1c2.83.15,5.77.12,8.77,0s6.08-.35,9.2-.62h0a8.36,8.36,0,0,1,2,16.59c-3.21.51-6.48,1-9.84,1.38s-6.8.68-10.36.76a65.68,65.68,0,0,1-11.07-.61A45.65,45.65,0,0,1,137,232.77a9.09,9.09,0,0,1-5-5.45l-.19-.56-17.55-52.61A11.28,11.28,0,1,1,135.62,167,5.76,5.76,0,0,1,135.8,167.6Z"/><path class="cls-15" d="M141.44,361.54a1.92,1.92,0,0,1-.66-.12L64.14,333.79a1.93,1.93,0,0,1,1.31-3.64l76.64,27.64a1.93,1.93,0,0,1-.65,3.75Z"/><path class="cls-15" d="M61.61,361.54a1.93,1.93,0,0,1-.66-3.75l77.56-28.09a1.93,1.93,0,1,1,1.31,3.63L62.27,361.42A1.92,1.92,0,0,1,61.61,361.54Z"/><path class="cls-14" d="M148.25,410.92a3.31,3.31,0,0,1-3.27-2.87L131.14,304.69H73.21L59.58,408.05a3.31,3.31,0,0,1-6.56-.87L67,301a3.31,3.31,0,0,1,3.28-2.88H134a3.31,3.31,0,0,1,3.28,2.87l14.23,106.23a3.31,3.31,0,0,1-2.84,3.72A3.4,3.4,0,0,1,148.25,410.92Z"/><path class="cls-14" d="M115.57,301.38H74.19C61.07,301.38,47,294.2,45,281.25a246.16,246.16,0,0,1-2.61-49.51,60.29,60.29,0,0,1,22.86-44.41h0s8.26,36-2.13,85.76C67.11,292,115.57,301.38,115.57,301.38Z"/><path class="cls-7" d="M107,90.07S102,78.21,89,80.44C79.9,82,76,93.35,76.56,110.86c.78,25.49-7.84,40.85-7.84,40.85l11.44,2.6S109.29,110.61,107,90.07Z"/><path class="cls-7" d="M211.33,366.63H192.84s-4.28-20.52-5.71-32S185,295.82,185,295.82s-14.74,4.79-45.57,3C71.05,294.81,97,244.61,97,244.61c2.31,3.19,16.45,1,26.12,2.5,29.67,2.85,55.39,14.49,70.83,21.15a76.82,76.82,0,0,1,9.92,5.09c3.73,2.29,6.05,9.25,7.46,18.41C215.5,319.28,211.33,366.63,211.33,366.63Z"/><path class="cls-6" d="M195.13,356.74a.66.66,0,0,1-.65-.53c-2.66-13.2-3.56-29.63-4.28-42.83-.59-10.95-1.16-21.28-2.56-22.53-1.14-1-5.87-.22-11.86.78-11.91,2-29.9,5-49.75.34-10.81-2.51-18.76-7.76-23.62-15.61-8.39-13.52-4.57-30.28-4.53-30.45a.66.66,0,0,1,.8-.49.65.65,0,0,1,.49.79c0,.17-3.73,16.42,4.37,29.47,4.67,7.52,12.34,12.57,22.79,15,19.59,4.56,37.43,1.6,49.24-.36,7.07-1.17,11.33-1.88,12.94-.46s2.23,9.1,3,23.45c.71,13.16,1.61,29.53,4.25,42.64a.66.66,0,0,1-.52.78Z"/><path class="cls-6" d="M211.68,357.09h0l-20.55-.44a.66.66,0,0,1-.65-.68.65.65,0,0,1,.68-.64l20.55.44a.65.65,0,0,1,.65.67A.66.66,0,0,1,211.68,357.09Z"/><polygon class="cls-12" points="210.82 390.31 197.77 390.31 195.25 375.01 193.88 366.63 210.09 366.63 210.35 375.01 210.82 390.31"/><polygon class="cls-14" points="210.82 390.31 197.77 390.31 195.9 378.92 195.25 375.01 210.35 375.01 210.47 379.06 210.82 390.31"/><polygon class="cls-15" points="210.47 379.06 195.9 378.92 195.25 375.01 210.35 375.01 210.47 379.06"/><path class="cls-16" d="M243,410.92H193.66a7,7,0,0,1-.64-2.74c-.31-4.17,1-10.84,1.67-15,.08-.49.15-.94.2-1.36a14.8,14.8,0,0,0,.15-1.72c0-3.42,3-2.84,3-2.84,5,4.9,10.65-2.44,14,0,0,0,.14.09.44.33s.7.56,1.28,1.05c.84.7,2,1.72,3.62,3.16,3.92,3.53,10.58,5.85,16.26,8.23q1.08.45,2,.9c.48.23.92.46,1.34.68,4.64,2.51,6.12,4.9,6.45,6.64A3.87,3.87,0,0,1,243,410.92Z"/><path class="cls-17" d="M237,401.54c-1.27,1-4.1,3-6.36,3h-.3c-1.6-.13-7.48-3-12.27-5.65-2.74-1.51-5.25-3-7-4.18-3-1.95-3.46-2.69-3.58-3.21-.43-1.95,2.79-3.31,5.05-4,.28.22.7.56,1.28,1.05-2.8.76-5.11,2-5,2.64.27.58,3.2,2.81,10.18,6.63,5.33,2.92,10.38,5.28,11.5,5.37,1.52.12,3.76-1.26,5.21-2.35C236.11,401.09,236.55,401.32,237,401.54Z"/><path class="cls-17" d="M243,410.92H193.66a7.11,7.11,0,0,1-.65-2.74h50.41A3.87,3.87,0,0,1,243,410.92Z"/><path class="cls-17" d="M198.7,410.92h-1.47a10.78,10.78,0,0,0,2.66-7.9,14,14,0,0,0-5.2-9.88c.08-.49.15-.95.2-1.36A15.14,15.14,0,0,1,201.06,403,12,12,0,0,1,198.7,410.92Z"/><path class="cls-5" d="M216.52,394.64a.81.81,0,0,1-.19-1.6l3.08-.77a.81.81,0,1,1,.39,1.58l-3.08.77Z"/><path class="cls-5" d="M213.46,392.08a.82.82,0,0,1-.19-1.61l3.08-.76a.8.8,0,0,1,1,.59.81.81,0,0,1-.59,1l-3.08.76A.69.69,0,0,1,213.46,392.08Z"/><path class="cls-5" d="M219.61,396.43a.8.8,0,0,1-.79-.61.82.82,0,0,1,.59-1l3.09-.76a.81.81,0,0,1,.39,1.57l-3.09.77A.62.62,0,0,1,219.61,396.43Z"/><path class="cls-5" d="M222.69,398.16a.82.82,0,0,1-.19-1.61l3.08-.76a.81.81,0,0,1,.39,1.58l-3.08.76A.69.69,0,0,1,222.69,398.16Z"/><path class="cls-5" d="M226.05,399.75a.83.83,0,0,1-.79-.62.82.82,0,0,1,.6-1l3.08-.77a.81.81,0,0,1,.39,1.58l-3.08.77Z"/><path class="cls-5" d="M229.7,401.11a.81.81,0,0,1-.2-1.6l3.08-.77a.81.81,0,0,1,.4,1.58l-3.09.76A.63.63,0,0,1,229.7,401.11Z"/><path class="cls-17" d="M62.74,228.7s-.59,4,4.75,5.1l55.68,1.86a6.27,6.27,0,0,0,3.08-6.55S102.74,215.9,62.74,228.7Z"/><path class="cls-12" d="M123.93,247.11c-28.9,15.9-60.46,3.1-60.46,3.1A87.45,87.45,0,0,0,67,236.92c1-5,1.51-9.46,1.75-11.8,12.3-.67,42.43-2,54.24.85l.09,4.73Z"/><path class="cls-13" d="M102.58,239.49c-.21,1.49-.88,2.62-1.5,2.53s-.94-1.36-.73-2.85.89-2.63,1.5-2.54S102.8,238,102.58,239.49Z"/><path class="cls-13" d="M123.07,230.7c-12.31-.75-36.52-1-56.08,6.22,1-5,1.51-9.46,1.75-11.8,12.3-.67,42.43-2,54.24.85Z"/><path class="cls-16" d="M136.8,207.83a9.25,9.25,0,0,1-.41,1l-.19.35a27.32,27.32,0,0,1-5.95,7.13c-.42.36-.82.7-1.19,1-.74.6-1.37,1.07-1.8,1.38s-.63.43-.63.43,0,.06,0,.09c0,.21,0,.44-.06.68-.07.91-.13,2-.17,3.23,0,1-.07,2.08-.1,3.25,0,.87,0,1.78,0,2.73-16.33-7.3-50-2.7-63.51-.41.24-1.18.47-2.32.68-3.44a107.74,107.74,0,0,0,1.71-14,146.92,146.92,0,0,0-1.54-25.15c-.08-.62-.17-1.25-.26-1.87-.06-.41-.12-.82-.19-1.22-.46-3-1-6.05-1.61-9-2.67-12.82-.8-26.27,12.2-27.86.94-.12,1.87-.22,2.77-.32,6.13-.65,11.16-.87,12.56-.93h.39l25.12,7.29,2.39.7c1.37.44,2.64.86,3.82,1.28l1.45.54c1.22.45,2.32.9,3.33,1.34a28.29,28.29,0,0,1,4.86,2.65c5.51,3.92,4.66,8.34,4.52,17.07,0,0,0,.07,0,.11v.49c0,.36,0,.71,0,1.07,0,1.12,0,2.25.11,3.37.1,1.65.24,3.29.42,4.89.07.64.15,1.29.23,1.92s.15,1.19.22,1.78C136.92,197.06,138.17,203.76,136.8,207.83Z"/><path class="cls-17" d="M134.93,175.9v.49c0,.36,0,.71,0,1.07l-5.28,3.31a.75.75,0,0,1-1-.23.74.74,0,0,1,.24-1l5.59-3.51A.8.8,0,0,1,134.93,175.9Z"/><path class="cls-17" d="M100.13,204.18a.76.76,0,0,1-.55-.25.74.74,0,0,1,.06-1l4.91-4.42a.73.73,0,0,1,1,.06.74.74,0,0,1,0,1L100.62,204A.75.75,0,0,1,100.13,204.18Z"/><path class="cls-17" d="M135.91,189.42l-3.36,3a.74.74,0,0,1-1-.05.74.74,0,0,1,.05-1l4.13-3.71C135.76,188.24,135.84,188.83,135.91,189.42Z"/><path class="cls-17" d="M90.17,186.4a.74.74,0,0,1-.11-.59.73.73,0,0,1,.89-.54l6.43,1.51a.75.75,0,0,1,.55.89.74.74,0,0,1-.89.54l-6.43-1.51A.69.69,0,0,1,90.17,186.4Z"/><path class="cls-17" d="M67.23,199a.7.7,0,0,1-.55-.25.74.74,0,0,1,0-1l4.91-4.42a.74.74,0,0,1,1,.06.73.73,0,0,1-.05,1l-4.91,4.42A.72.72,0,0,1,67.23,199Z"/><path class="cls-17" d="M124.39,198a.77.77,0,0,1,.4-.45.73.73,0,0,1,1,.39L128.4,204a.74.74,0,1,1-1.35.59l-2.64-6.06A.72.72,0,0,1,124.39,198Z"/><path class="cls-17" d="M136.8,207.83a9.25,9.25,0,0,1-.41,1l-.19.35-3.59-1.13a.75.75,0,0,1-.41-.33.77.77,0,0,1-.07-.6.75.75,0,0,1,.93-.48Z"/><path class="cls-17" d="M116.52,208.36a.72.72,0,0,1,.57.19.74.74,0,0,1,0,1l-4.44,4.89a.72.72,0,0,1-1,.05.74.74,0,0,1,0-1l4.44-4.89A.77.77,0,0,1,116.52,208.36Z"/><path class="cls-17" d="M113.91,197.08a.72.72,0,0,1-.5-.33.74.74,0,0,1,.23-1l5.6-3.51a.74.74,0,0,1,.78,1.25l-5.6,3.51A.72.72,0,0,1,113.91,197.08Z"/><path class="cls-17" d="M117.47,175.8a.69.69,0,0,1,.18.57.73.73,0,0,1-.81.66l-6.57-.72a.74.74,0,0,1,.16-1.47l6.57.72A.74.74,0,0,1,117.47,175.8Z"/><path class="cls-17" d="M107.92,161.55a.75.75,0,0,1,.37-.47.74.74,0,0,1,1,.3l3.12,5.82a.74.74,0,0,1-1.3.7L108,162.08A.76.76,0,0,1,107.92,161.55Z"/><path class="cls-17" d="M130.25,216.32c-.42.36-.82.7-1.19,1l-.86-2.2a.72.72,0,0,1,0-.52.74.74,0,0,1,1.38,0Z"/><path class="cls-17" d="M69.85,205.12a.71.71,0,0,1,0-.59.74.74,0,0,1,.94-.45L77,206.32a.74.74,0,0,1-.5,1.39l-6.22-2.24A.73.73,0,0,1,69.85,205.12Z"/><path class="cls-17" d="M72.9,213.53a.69.69,0,0,1,.54.25.73.73,0,0,1-.06,1l-4.95,4.37a.73.73,0,1,1-1-1.1l4.94-4.38A.79.79,0,0,1,72.9,213.53Z"/><path class="cls-17" d="M81.87,220.48a.74.74,0,0,1,.14.58.73.73,0,0,1-.85.6l-6.51-1.11a.73.73,0,0,1-.6-.85.74.74,0,0,1,.85-.6l6.51,1.11A.73.73,0,0,1,81.87,220.48Z"/><path class="cls-17" d="M87.31,158.62a.77.77,0,0,1,.09-.59.74.74,0,0,1,1-.22L94,161.39a.74.74,0,0,1-.8,1.24l-5.56-3.58A.83.83,0,0,1,87.31,158.62Z"/><path class="cls-17" d="M125.2,162.84a.71.71,0,0,1,.59,0,.72.72,0,0,1,.45.94L124,170a.72.72,0,0,1-.94.45.74.74,0,0,1-.45-.94l2.21-6.23A.77.77,0,0,1,125.2,162.84Z"/><path class="cls-17" d="M122.23,154.73l-3.41,4.37a.74.74,0,0,1-1,.13.73.73,0,0,1-.12-1l3.12-4Z"/><path class="cls-17" d="M88.86,215.16a.61.61,0,0,0,.45.4.55.55,0,0,0,.31,0,34.78,34.78,0,0,1,22,1.17,37.8,37.8,0,0,0,14.9,3.19c0-.24,0-.47.06-.68v-.09s.23-.14.63-.43a35.73,35.73,0,0,1-15.14-3.11,35.33,35.33,0,0,0-22.88-1.19A.61.61,0,0,0,88.86,215.16Z"/><path class="cls-17" d="M114.57,152.21c-1.41,2.19-4.31,4.66-10.19,4.23-8.11-.59-13.45-8.33-15.32-11.51h.39Z"/><path class="cls-5" d="M105.94,166.57a4.45,4.45,0,0,0,.72.1,6.27,6.27,0,0,0,5.4-1.93c3.9-4.26,2.3-14,2.23-14.39a.6.6,0,0,0-1.19.2c0,.1,1.58,9.55-1.93,13.38a5,5,0,0,1-4.41,1.55c-7.87-.64-16.67-20.6-16.76-20.8a.59.59,0,0,0-.79-.31.61.61,0,0,0-.31.79C89.26,146,97.61,164.88,105.94,166.57Z"/><path class="cls-12" d="M130.42,158.72A43.81,43.81,0,0,0,135,180.83c-.09-1.48-.13-3-.11-4.44v-.15c0-.15,0-.3,0-.45C135.08,167.06,135.93,162.63,130.42,158.72Z"/><path class="cls-12" d="M84.22,168.86c-2.89,11.12-13.42,20-20.63,17.26-.08-.62-.17-1.25-.26-1.87-.06-.41-.12-.81-.19-1.22-.46-3-1-6.05-1.61-9-2.67-12.82-.8-26.27,12.19-27.86,1-.12,1.88-.22,2.78-.32C83,148.63,87.53,156.06,84.22,168.86Z"/><path class="cls-12" d="M85.7,160.38l16.89,61.74-6-6.94a30.45,30.45,0,0,0,7.66,2.74,55.89,55.89,0,0,0,9.23,1.18c3.25.17,6.65.14,10.11,0s7-.41,10.62-.71h0a9.65,9.65,0,0,1,2.34,19.15c-3.71.59-7.49,1.15-11.36,1.6s-7.85.78-12,.88a77.69,77.69,0,0,1-12.77-.71,53.28,53.28,0,0,1-13.41-3.7,10.49,10.49,0,0,1-5.8-6.3l-.22-.64L60.78,167.94a13,13,0,1,1,24.71-8.24C85.56,159.91,85.64,160.17,85.7,160.38Z"/><path class="cls-13" d="M93.26,220.15a.49.49,0,0,1-.44-.26.5.5,0,0,1,.19-.68,21.06,21.06,0,0,1,7.71-2.47.5.5,0,0,1,.54.46.51.51,0,0,1-.46.54,20.5,20.5,0,0,0-7.3,2.34A.42.42,0,0,1,93.26,220.15Z"/><path class="cls-13" d="M99.39,217.92a.5.5,0,0,1-.26-.08A13.08,13.08,0,0,0,94,216.22a.5.5,0,1,1,.07-1A14,14,0,0,1,99.65,217a.5.5,0,0,1,.17.69A.51.51,0,0,1,99.39,217.92Z"/><path class="cls-17" d="M114.45,185.38c7.47,1.51,10.74-6.22,10.77-6.29a.6.6,0,0,0-.33-.79.6.6,0,0,0-.78.33c-.12.29-2.94,6.88-9.42,5.57-6.81-1.38-19.51-14.78-19.64-14.91a.6.6,0,1,0-.87.82C94.71,170.68,107.27,183.92,114.45,185.38Z"/><path class="cls-7" d="M102.7,136.75s-12-2.26-15.37-14.36c-3.22-11.52-.74-17.5,2.61-23.72,2.52-4.69,10.51-11,21.73-8.75s19.79,8.11,21,17.42C135.05,124.76,121,146,102.7,136.75Z"/><path class="cls-14" d="M87.9,124.26a.62.62,0,0,1-.54-.32,27.11,27.11,0,0,1-1.08-21.39A19.54,19.54,0,0,1,97.92,90.27a20.88,20.88,0,0,1,7.84-1.45.63.63,0,0,1-.06,1.25h0a20.07,20.07,0,0,0-7.38,1.38A18.19,18.19,0,0,0,87.46,103a26.41,26.41,0,0,0,1,20.36.64.64,0,0,1-.23.86A.71.71,0,0,1,87.9,124.26Z"/><path class="cls-13" d="M126,124.45s3.9-3.08,4.93,1-1.87,11.34-6.41,9.13Z"/><path class="cls-14" d="M122.15,132a6.2,6.2,0,0,0-4.09,4.49,5.88,5.88,0,1,0,9.08-3.67,5.75,5.75,0,0,0-2.15-.92h-.06a1,1,0,0,0,.16,1,4.83,4.83,0,0,1,1.73.85,5,5,0,1,1-7.86,3,4.82,4.82,0,0,1,3.65-3.78Z"/><path class="cls-12" d="M114.14,141.94l-1.64,10.21S104.85,160,90.88,146c3.75-2.79,5.19-9.26,4.75-13.45a20.25,20.25,0,0,1,2.8,2.2,11.37,11.37,0,0,0,1.17.82C103.29,138,109,141.3,114.14,141.94Z"/><path class="cls-7" d="M114.14,141.94l-.78,4.84c-4.19-1.87-11.6-5.86-14.93-12.08l1.17.82C103.29,138,109,141.3,114.14,141.94Z"/><path class="cls-12" d="M129.74,122l-.63,3.09c-.22,1.06-.43,2.06-.64,3-1.54,7.07-2.82,10.86-4.88,12.28-10.43,7.17-27.4-7.35-27.95-7.82h0c0-.84,0-1.66,0-2.47a64,64,0,0,1,3.16-18.78,14.41,14.41,0,0,1,12-12.18c6.46-1,11.32,2.77,14.36,4.43C129.74,106,131.53,113,129.74,122Z"/><path class="cls-7" d="M99.14,104.87s7.3-14,21.86-10.12,15.34,10.68,15.59,14.06-7.54-2.61-7.54-2.61-.26,6.77-2.86,4.68c-3.19-2.55-6.76-8.07-6.76-8.07s-8.67,8.53-16.91,6.23C97.84,107.73,99.14,104.87,99.14,104.87Z"/><path class="cls-13" d="M117,135.76a4.86,4.86,0,0,1-3.25-1.38.52.52,0,1,1,.74-.72,3.59,3.59,0,0,0,3.55.88.52.52,0,0,1,.34,1A4.43,4.43,0,0,1,117,135.76Z"/><path class="cls-5" d="M112.67,127.26s7,2.08,10.67,2.08c0,0-1.83,5.2-7,3.38A5.35,5.35,0,0,1,112.67,127.26Z"/><path class="cls-7" d="M125.71,112.64s-1.83-.18-1.53,1.58,4.25.69,6.2,4.23C130.38,118.45,132.27,114.74,125.71,112.64Z"/><path class="cls-7" d="M117.6,111s1.75.54.79,2-4.18-1-7.36,1.48C111,114.53,110.73,110.38,117.6,111Z"/><path class="cls-13" d="M114.43,123.67c-.17.84-2,1.17-4.14.74s-3.7-1.46-3.53-2.29,2-1.17,4.14-.74S114.6,122.84,114.43,123.67Z"/><path class="cls-5" d="M135.16,124.22l-5.67-1a6,6,0,0,1-.15.71.36.36,0,0,1,0,.11l5.71,1a.43.43,0,0,0,.49-.35A.41.41,0,0,0,135.16,124.22Z"/><path class="cls-5" d="M120,119.38a8.46,8.46,0,0,0,0-.87,7.2,7.2,0,0,0-1.91-4.05,7,7,0,0,0-3.67-2.07l-.07,0a7.16,7.16,0,0,0-7.94,4,5.82,5.82,0,0,0-.3.79,6.21,6.21,0,0,0-.2.74,7.08,7.08,0,0,0,.92,5.2,6.55,6.55,0,0,0,1.13,1.39,7,7,0,0,0,3.5,1.85,7.15,7.15,0,0,0,8.44-5.55v0A6.76,6.76,0,0,0,120,119.38Zm-8.42,6.15-.1,0a6.31,6.31,0,0,1-4.79-7.42,5.84,5.84,0,0,1,.27-.93s0,0,0-.06a6.3,6.3,0,0,1,5.5-4,6.18,6.18,0,0,1,1.65.12,6.3,6.3,0,1,1-2.55,12.33Z"/><path class="cls-5" d="M132.72,116.46a4.53,4.53,0,0,0-.59-.28,6,6,0,0,0-.75-.26,5.11,5.11,0,0,0-.53-.13,7.21,7.21,0,0,0-1-.14,7.85,7.85,0,0,0-1.19,0,7.2,7.2,0,0,0-5.47,3.59,5.78,5.78,0,0,0-.4.83s0,0,0,.05a7.48,7.48,0,0,0-.36,1.19,7.17,7.17,0,0,0,4.95,8.29l.4.1.2.05a7.12,7.12,0,0,0,2,.12l.32,0c.29,0,.58-.1.87-.17a7.45,7.45,0,0,0,1.53-.59,7.15,7.15,0,0,0,0-12.65Zm2.85,7.6c0,.13-.06.27-.1.4a5.05,5.05,0,0,1-.18.55,6.39,6.39,0,0,1-3.94,3.76,5.61,5.61,0,0,1-.92.22l-.27,0a6.39,6.39,0,0,1-2-.08l-.19,0-.11,0a6.18,6.18,0,0,1-2.64-1.43,2.91,2.91,0,0,1-.31-.3,6.25,6.25,0,0,1-1.64-5.64,6.47,6.47,0,0,1,.44-1.35,6.28,6.28,0,0,1,3.06-3.08,6.36,6.36,0,0,1,2.67-.6l.46,0a7.5,7.5,0,0,1,.81.11c.2,0,.39.09.58.15a7,7,0,0,1,.76.29l.57.29A6.33,6.33,0,0,1,135.57,124.06Z"/><path class="cls-5" d="M97.35,117.68a.47.47,0,0,1-.15-.06.43.43,0,0,1-.12-.59c2.84-4.43,9.66-.45,9.73-.41a.42.42,0,1,1-.43.73c-.06,0-6.19-3.61-8.59.14A.44.44,0,0,1,97.35,117.68Z"/><path class="cls-5" d="M123.09,120.35a.44.44,0,0,1-.27-.19c-.91-1.4-2.85-.77-2.87-.76a.43.43,0,1,1-.27-.81,3.38,3.38,0,0,1,3.85,1.11.43.43,0,0,1-.44.65Z"/><g class="cls-2"><path class="cls-13" d="M129.11,125.08c-.22,1.06-.43,2.06-.64,3-1.93-.46-3.32-1.42-3.16-2.2S127.14,124.75,129.11,125.08Z"/></g><path class="cls-7" d="M115.92,119.48c-.23,1.15-.94,2-1.58,1.84s-1-1.16-.74-2.31.94-2,1.58-1.84S116.16,118.33,115.92,119.48Z"/><path class="cls-7" d="M127.26,121.78c-.23,1.14-.94,2-1.58,1.84s-1-1.17-.74-2.31.94-2,1.58-1.84S127.5,120.63,127.26,121.78Z"/><path class="cls-7" d="M121.41,124.86a4.31,4.31,0,0,0,1,.09.48.48,0,0,0,.35-.18.48.48,0,0,0,.1-.37l-.73-5.35a.48.48,0,1,0-.95.13l.65,4.77a3.86,3.86,0,0,1-1.85-.81.48.48,0,0,0-.61.74A4.71,4.71,0,0,0,121.41,124.86Z"/><path class="cls-7" d="M100.31,128.64c-.08.12-2.29,3.31-4.67,3.9h0c0-.84,0-1.66,0-2.47A9,9,0,0,0,100.31,128.64Z"/><path class="cls-12" d="M99.83,120.26s-3.34-7.09-7.68-2.93c-3.57,3.43-.45,14.88,5.75,12.43Z"/><path class="cls-14" d="M91.62,126.37a6.18,6.18,0,0,0-4.09,4.49,5.88,5.88,0,1,0,6.92-4.59h0a.94.94,0,0,0,.16,1,5.06,5.06,0,0,1,1.73.84,5,5,0,1,1-7.87,3,4.83,4.83,0,0,1,3.66-3.77Z"/><path class="cls-7" d="M97.65,127.78h0a.48.48,0,0,0,.53-.43,9,9,0,0,0-3.73-8.17.48.48,0,1,0-.52.8h0a8.06,8.06,0,0,1,3.29,7.28A.47.47,0,0,0,97.65,127.78Z"/><path class="cls-7" d="M93.83,124a.52.52,0,0,0,.32,0c.47-.25,1.88-.81,2.65-.44a.5.5,0,0,0,.65-.22.5.5,0,0,0-.23-.65c-1.34-.65-3.3.34-3.52.46a.48.48,0,0,0-.2.65A.49.49,0,0,0,93.83,124Z"/><path class="cls-7" d="M104.13,108.25s-4.49,12.19-4.73,14.64c-.34,3.35-4.77-8.12-.31-17.93Z"/><path class="cls-7" d="M179.14,366.69H160.66s-4.28-20.52-5.72-32-2.18-38.79-2.18-38.79-14.73,4.79-45.57,3c-68.33-4-42.42-54.2-42.42-54.2,2.31,3.19,19.63,7.59,29.29,9.11,29.67,2.85,52.22,7.88,67.66,14.55a77.49,77.49,0,0,1,9.92,5.08c3.72,2.3,6.05,9.26,7.45,18.41C183.31,319.35,179.14,366.69,179.14,366.69Z"/><path class="cls-6" d="M163,356.81a.66.66,0,0,1-.65-.53c-2.66-13.2-3.56-29.63-4.28-42.84-.6-10.94-1.16-21.28-2.57-22.52-1.13-1-5.86-.22-11.85.77-11.91,2-29.91,5-49.75.35-10.81-2.52-18.76-7.77-23.63-15.61-8.38-13.52-4.56-30.29-4.52-30.46a.66.66,0,1,1,1.29.31c0,.16-3.73,16.41,4.37,29.46,4.67,7.53,12.34,12.58,22.79,15,19.59,4.56,37.43,1.59,49.23-.37,7.07-1.17,11.34-1.88,13-.45s2.23,9.09,3,23.44c.72,13.16,1.61,29.54,4.26,42.64a.66.66,0,0,1-.52.78Z"/><path class="cls-6" d="M179.5,357.15h0l-20.56-.44a.66.66,0,0,1-.64-.67.65.65,0,0,1,.67-.65l20.56.44a.66.66,0,0,1,0,1.32Z"/><polygon class="cls-12" points="178.63 390.38 165.59 390.38 163.07 375.07 161.7 366.69 177.91 366.69 178.16 375.07 178.63 390.38"/><polygon class="cls-14" points="178.63 390.38 165.59 390.38 163.71 378.98 163.07 375.07 178.16 375.07 178.29 379.13 178.63 390.38"/><polygon class="cls-15" points="178.29 379.13 163.71 378.98 163.07 375.07 178.16 375.07 178.29 379.13"/><path class="cls-16" d="M210.83,411H161.48a6.85,6.85,0,0,1-.65-2.74c-.31-4.18,1-10.84,1.68-15,.08-.49.14-.95.2-1.37a14.3,14.3,0,0,0,.14-1.71c0-3.43,3-2.84,3-2.84,5,4.9,10.65-2.45,14,0l.43.34c.28.21.7.55,1.29,1,.84.71,2,1.73,3.62,3.16,3.91,3.53,10.58,5.86,16.25,8.23.73.3,1.4.6,2,.9s.92.46,1.34.69c4.64,2.5,6.11,4.9,6.45,6.64A3.86,3.86,0,0,1,210.83,411Z"/><path class="cls-17" d="M204.79,401.61c-1.27,1-4.1,3-6.37,3h-.29c-1.61-.13-7.49-3-12.27-5.65-2.74-1.51-5.25-3-7.05-4.18-2.95-1.95-3.47-2.69-3.58-3.21-.43-1.94,2.79-3.3,5-4,.28.21.7.55,1.29,1-2.81.77-5.11,2-5,2.65.27.58,3.19,2.8,10.18,6.63,5.32,2.91,10.38,5.27,11.5,5.36,1.52.13,3.75-1.26,5.21-2.35C203.92,401.15,204.37,401.38,204.79,401.61Z"/><path class="cls-17" d="M210.83,411H161.48a6.86,6.86,0,0,1-.65-2.75h50.41A3.87,3.87,0,0,1,210.83,411Z"/><path class="cls-17" d="M166.52,411h-1.47a10.87,10.87,0,0,0,2.65-7.91,13.92,13.92,0,0,0-5.19-9.87c.08-.49.14-.95.2-1.37A15.14,15.14,0,0,1,168.88,403,12,12,0,0,1,166.52,411Z"/><path class="cls-5" d="M184.34,394.71a.82.82,0,0,1-.19-1.61l3.08-.76a.8.8,0,0,1,1,.59.81.81,0,0,1-.59,1l-3.08.76A.69.69,0,0,1,184.34,394.71Z"/><path class="cls-5" d="M181.28,392.14a.81.81,0,0,1-.2-1.6l3.09-.77a.81.81,0,0,1,.39,1.58l-3.09.76A.63.63,0,0,1,181.28,392.14Z"/><path class="cls-5" d="M187.42,396.5a.81.81,0,0,1-.78-.62.8.8,0,0,1,.59-1l3.08-.77a.81.81,0,1,1,.39,1.58l-3.08.76A.64.64,0,0,1,187.42,396.5Z"/><path class="cls-5" d="M190.51,398.22a.81.81,0,0,1-.2-1.6l3.08-.77a.81.81,0,0,1,.4,1.58l-3.09.77Z"/><path class="cls-5" d="M193.87,399.81a.8.8,0,0,1-.79-.61.82.82,0,0,1,.59-1l3.09-.76a.81.81,0,1,1,.39,1.57l-3.08.77A.71.71,0,0,1,193.87,399.81Z"/><path class="cls-5" d="M197.51,401.17a.81.81,0,0,1-.19-1.6l3.08-.77a.82.82,0,0,1,1,.6.81.81,0,0,1-.6,1l-3.08.77Z"/><path class="cls-18" d="M247.24,243.94V248c0,2.36-1.42,4.27-3.18,4.27H22.59c-1.75,0-3.18-1.91-3.18-4.27v-4.09c0-2.36,1.43-4.27,3.18-4.27H244.06C245.82,239.67,247.24,241.58,247.24,243.94Z"/><rect class="cls-19" x="19.41" y="245.24" width="227.83" height="1.88"/><path class="cls-19" d="M240.59,262.84H32.41a1.69,1.69,0,0,1-1.68-1.69v-8.9H242.27v8.9A1.69,1.69,0,0,1,240.59,262.84Z"/><rect class="cls-19" x="45.07" y="315.08" width="186.17" height="7.26"/><polygon class="cls-18" points="31.65 412.28 67.69 262.84 55.03 262.84 18.99 412.28 31.65 412.28"/><polygon class="cls-18" points="244.41 412.28 208.37 262.84 221.03 262.84 257.07 412.28 244.41 412.28"/><rect class="cls-14" x="37.97" y="205.44" width="3.95" height="29.81" transform="translate(-32.91 8.59) rotate(-8.71)"/><polygon class="cls-12" points="39.64 205.31 35.73 205.91 36.59 202.93 37.04 201.38 37.93 202.72 39.64 205.31"/><rect class="cls-7" x="40.06" y="232.92" width="3.95" height="2.17" transform="translate(-34.95 9.07) rotate(-8.71)"/><path class="cls-8" d="M44.15,236.52l-3.38.52a.26.26,0,0,1-.3-.22l-.22-1.45,3.9-.59.23,1.44A.26.26,0,0,1,44.15,236.52Z"/><polygon class="cls-7" points="37.93 202.72 36.59 202.93 37.04 201.38 37.93 202.72"/><rect class="cls-15" x="39.78" y="231.39" width="3.95" height="1.55" transform="translate(-34.67 9) rotate(-8.71)"/><path class="cls-15" d="M36.93,207.21,40.27,229a.3.3,0,0,0,.34.26h0a.31.31,0,0,0,.26-.35l-3.35-21.82a.3.3,0,0,0-.34-.25h0A.29.29,0,0,0,36.93,207.21Z"/><path class="cls-15" d="M38.45,207,41.8,228.8a.3.3,0,0,0,.34.25h0a.29.29,0,0,0,.25-.34l-3.34-21.82a.3.3,0,0,0-.34-.26h0A.31.31,0,0,0,38.45,207Z"/><rect class="cls-18" x="42.8" y="205.45" width="3.95" height="29.81" transform="translate(-0.72 0.15) rotate(-0.19)"/><polygon class="cls-12" points="46.71 205.45 42.75 205.46 44.05 202.64 44.72 201.17 45.4 202.63 46.71 205.45"/><rect class="cls-7" x="42.85" y="233.1" width="3.95" height="2.17" transform="translate(-0.77 0.15) rotate(-0.19)"/><path class="cls-8" d="M46.55,237H43.12a.27.27,0,0,1-.27-.26v-1.46l3.95,0v1.47A.26.26,0,0,1,46.55,237Z"/><polygon class="cls-7" points="45.4 202.63 44.05 202.64 44.72 201.17 45.4 202.63"/><rect class="cls-19" x="42.84" y="231.54" width="3.95" height="1.55" transform="translate(-0.76 0.15) rotate(-0.19)"/><path class="cls-19" d="M43.74,206.93,43.81,229a.3.3,0,0,0,.31.3h0a.31.31,0,0,0,.3-.3l-.08-22.08a.3.3,0,0,0-.3-.3h0A.3.3,0,0,0,43.74,206.93Z"/><path class="cls-19" d="M45.29,206.92,45.36,229a.3.3,0,0,0,.3.3h0a.29.29,0,0,0,.3-.3l-.07-22.07a.3.3,0,0,0-.3-.3h0A.29.29,0,0,0,45.29,206.92Z"/><rect class="cls-16" x="34.57" y="218.37" width="29.81" height="3.95" transform="translate(-175.64 238.34) rotate(-81.91)"/><polygon class="cls-12" points="53.53 205.87 49.61 205.31 51.3 202.7 52.17 201.35 52.63 202.89 53.53 205.87"/><rect class="cls-7" x="45.55" y="232.95" width="3.95" height="2.17" transform="translate(33.39 -4.36) rotate(8.09)"/><path class="cls-8" d="M48.83,237.05l-3.39-.48a.25.25,0,0,1-.22-.3l.2-1.45,3.92.56-.21,1.45A.26.26,0,0,1,48.83,237.05Z"/><polygon class="cls-7" points="52.63 202.89 51.3 202.7 52.17 201.35 52.63 202.89"/><rect class="cls-17" x="47.02" y="230.21" width="1.55" height="3.95" transform="translate(-188.81 246.84) rotate(-81.91)"/><path class="cls-17" d="M50.38,206.9l-3.1,21.86a.3.3,0,0,0,.25.34h0a.3.3,0,0,0,.34-.26L51,207a.3.3,0,0,0-.26-.34h0A.3.3,0,0,0,50.38,206.9Z"/><path class="cls-17" d="M51.91,207.12,48.81,229a.31.31,0,0,0,.25.35h0a.3.3,0,0,0,.34-.26l3.11-21.86a.31.31,0,0,0-.26-.34h0A.3.3,0,0,0,51.91,207.12Z"/><polygon class="cls-8" points="54.81 217.24 54.61 218.84 54.42 220.29 54.13 222.49 53.95 223.93 53.66 226.15 53.48 227.57 53.19 229.81 53.01 231.21 52.72 233.47 52.54 234.85 52.24 237.13 52.07 238.49 51.92 239.67 36.38 239.67 36.23 238.49 36.05 237.13 35.76 234.85 35.58 233.47 35.29 231.21 35.1 229.81 34.82 227.57 34.63 226.15 34.34 223.93 34.16 222.49 33.88 220.29 33.69 218.84 33.48 217.24 54.81 217.24"/><polygon class="cls-20" points="54.61 218.84 54.42 220.29 33.88 220.29 33.69 218.84 54.61 218.84"/><polygon class="cls-20" points="54.13 222.49 53.95 223.93 34.34 223.93 34.16 222.49 54.13 222.49"/><polygon class="cls-20" points="53.66 226.15 53.48 227.57 34.82 227.57 34.63 226.15 53.66 226.15"/><polygon class="cls-20" points="53.19 229.81 53.01 231.21 35.29 231.21 35.1 229.81 53.19 229.81"/><polygon class="cls-20" points="52.72 233.47 52.54 234.85 35.76 234.85 35.58 233.47 52.72 233.47"/><polygon class="cls-20" points="52.24 237.13 52.07 238.49 36.23 238.49 36.05 237.13 52.24 237.13"/><path class="cls-7" d="M246,160.42l-13.25,56-.35,1.48-.89,3.77a3.61,3.61,0,0,1-3.52,2.79H138.68a3.62,3.62,0,0,1-3.53-4.45l14.49-61.29a3.63,3.63,0,0,1,3.53-2.78h89.26A3.62,3.62,0,0,1,246,160.42Z"/><polygon class="cls-6" points="232.7 216.45 232.35 217.93 139.67 217.93 139.67 216.45 232.7 216.45"/><path class="cls-14" d="M174.65,169.83a9.07,9.07,0,0,1-8.53,7.2,5.8,5.8,0,0,1-5.85-7.2,9.07,9.07,0,0,1,8.53-7.19A5.8,5.8,0,0,1,174.65,169.83Z"/><path class="cls-7" d="M166.53,168.46c-.15.79-.55,1.44-.9,1.44s-.5-.65-.35-1.44.54-1.44.89-1.44S166.67,167.66,166.53,168.46Z"/><path class="cls-7" d="M170.28,168.46c-.15.79-.55,1.44-.9,1.44s-.5-.65-.35-1.44.55-1.44.89-1.44S170.43,167.66,170.28,168.46Z"/><path class="cls-7" d="M166.87,173.34a3.19,3.19,0,0,1-3.23-3.13.39.39,0,0,1,.31-.37.26.26,0,0,1,.33.24,2.64,2.64,0,0,0,2.7,2.63,4.24,4.24,0,0,0,3.69-2.63.39.39,0,0,1,.42-.24.26.26,0,0,1,.17.37S170,173.34,166.87,173.34Z"/><path class="cls-8" d="M215.91,203.41c.08,3.72,6.38,8.38,6.38,8.38s7.32-4.66,8.21-8.38c1-4-3.64-5.27-7.05-2.23C220.7,198.14,215.83,199.38,215.91,203.41Z"/><path class="cls-6" d="M202.58,192.62a8,8,0,0,1-7.76,7,6.14,6.14,0,0,1-6.21-7,8,8,0,0,1,7.75-7A6.14,6.14,0,0,1,202.58,192.62Z"/><path class="cls-6" d="M156.7,156l-15.43,68.52h-2.59a3.63,3.63,0,0,1-3.53-4.45l14.49-61.29a3.63,3.63,0,0,1,3.53-2.78Z"/><polygon class="cls-5" points="182.56 224.49 179.85 239.72 188.79 239.72 191.5 224.49 182.56 224.49"/><path class="cls-5" d="M166.46,237.1l1.84-2.58a3.47,3.47,0,0,1,2.84-1.46h24.52a3.48,3.48,0,0,1,3.08,1.87l1.24,2.36a1.66,1.66,0,0,1-1.47,2.43H167.82A1.66,1.66,0,0,1,166.46,237.1Z"/><path class="cls-5" d="M115.37,239.71H189l.8-2.78a2.72,2.72,0,0,0-2.62-3.49h-68a2.74,2.74,0,0,0-2.63,2Z"/><rect class="cls-8" x="177.1" y="113.07" width="37.15" height="24.59" rx="2.29"/><polygon class="cls-8" points="210.02 133.98 207.04 145.2 201.85 134.65 210.02 133.98"/><path class="cls-5" d="M203.9,123.55c-.66,4.2-8.5,9.46-8.5,9.46s-7.56-5.27-8-9.47c-.46-4.56,4.94-6,8.32-2.52C199.31,117.59,204.63,119,203.9,123.55Z"/><ellipse class="cls-4" cx="618.53" cy="413.34" rx="55.48" ry="5.48"/><rect class="cls-7" x="580.05" y="367.78" width="74.86" height="5.93" rx="2.41"/><rect class="cls-6" x="581.28" y="302.09" width="72.55" height="12.53" rx="2.06"/><path class="cls-18" d="M599.49,248.79s-28.85-5.7-36.9-25.83,21.39-35.23,36.9-24.42C616.09,210.1,599.49,248.79,599.49,248.79Z"/><path class="cls-7" d="M616.65,301.68a.52.52,0,0,1-.51-.45c-2.77-18.7-13.91-45.6-22.77-64.87-9.61-20.9-18.67-37.58-18.76-37.75a.52.52,0,1,1,.91-.5c.09.17,9.18,16.88,18.8,37.81,8.89,19.34,20.07,46.34,22.85,65.16a.53.53,0,0,1-.44.59Z"/><path class="cls-7" d="M598.41,246.84a.54.54,0,0,1-.46-.27c-12.55-23.38-32.93-40.33-33.13-40.5a.52.52,0,0,1,.66-.81c.21.17,20.74,17.25,33.39,40.81a.52.52,0,0,1-.21.71A.57.57,0,0,1,598.41,246.84Z"/><path class="cls-7" d="M599,248.52a.54.54,0,0,1-.4-.19,100.21,100.21,0,0,0-24.77-21.19,61.93,61.93,0,0,0-11.5-5.55.52.52,0,1,1,.32-1,63.43,63.43,0,0,1,11.68,5.63,101.57,101.57,0,0,1,25.07,21.44.51.51,0,0,1-.06.73A.5.5,0,0,1,599,248.52Z"/><path class="cls-7" d="M596.44,242.39A.52.52,0,0,1,596,242c-7-20.65-4.45-45.74-4.42-46a.52.52,0,0,1,.57-.47.53.53,0,0,1,.47.58c0,.25-2.59,25.12,4.37,45.54a.53.53,0,0,1-.33.66A.51.51,0,0,1,596.44,242.39Z"/><path class="cls-7" d="M598.21,246.48a.52.52,0,0,1-.51-.44A72.49,72.49,0,0,1,599,215.67a48,48,0,0,1,4.41-11.45.53.53,0,0,1,.72-.18.52.52,0,0,1,.18.72A48.3,48.3,0,0,0,600,216a71.69,71.69,0,0,0-1.23,29.89.53.53,0,0,1-.43.6Z"/><path class="cls-18" d="M629.93,254.05s29.14-4,38.37-23.6S649,194,632.9,203.89C615.65,214.45,629.93,254.05,629.93,254.05Z"/><path class="cls-7" d="M618.88,300h0a.53.53,0,0,1-.52-.53c.12-9.63,2.22-20.6,6.25-32.6a214,214,0,0,1,13.21-30.52,281,281,0,0,1,19.07-31.47.52.52,0,0,1,.73-.12.54.54,0,0,1,.12.73,279.09,279.09,0,0,0-19,31.35c-8.68,16.67-19.07,41.06-19.33,62.64A.52.52,0,0,1,618.88,300Z"/><path class="cls-7" d="M631.16,252.17a.48.48,0,0,1-.28-.08.52.52,0,0,1-.17-.71c14-22.78,35.53-38.61,35.75-38.77a.52.52,0,0,1,.73.11.52.52,0,0,1-.12.73c-.21.16-21.56,15.88-35.47,38.47A.52.52,0,0,1,631.16,252.17Z"/><path class="cls-7" d="M630.49,253.81a.51.51,0,0,1-.36-.15.52.52,0,0,1,0-.74A101.47,101.47,0,0,1,656.41,233a62,62,0,0,1,12-4.93.53.53,0,0,1,.26,1A61.6,61.6,0,0,0,656.85,234a99.88,99.88,0,0,0-26,19.69A.57.57,0,0,1,630.49,253.81Z"/><path class="cls-7" d="M633.39,247.84a.45.45,0,0,1-.2,0,.52.52,0,0,1-.29-.68c8.16-20,7.07-45,7.06-45.2a.53.53,0,0,1,.5-.55.52.52,0,0,1,.54.5c0,.25,1.11,25.45-7.13,45.65A.52.52,0,0,1,633.39,247.84Z"/><path class="cls-7" d="M631.38,251.82l-.12,0a.52.52,0,0,1-.39-.62,71.46,71.46,0,0,0,.53-29.91,48.07,48.07,0,0,0-3.64-11.46.52.52,0,0,1,.93-.48A48.31,48.31,0,0,1,632.42,221a72.71,72.71,0,0,1-.53,30.39A.53.53,0,0,1,631.38,251.82Z"/><path class="cls-18" d="M618.71,216.09S594,200.11,594,178.43s32.91-24.81,43.32-9C648.46,186.3,618.71,216.09,618.71,216.09Z"/><path class="cls-7" d="M615.26,271.6h-.12a.52.52,0,0,1-.39-.63c4.36-18.39,4-47.5,2.88-68.69-1.19-23-3.43-41.82-3.46-42a.52.52,0,0,1,.46-.58.53.53,0,0,1,.58.45c0,.19,2.27,19.08,3.46,42.09,1.09,21.25,1.48,50.47-2.9,69A.52.52,0,0,1,615.26,271.6Z"/><path class="cls-7" d="M618.62,213.92a.53.53,0,0,1-.52-.47c-3-26.36-15.65-49.66-15.78-49.89a.52.52,0,0,1,.21-.71.51.51,0,0,1,.7.21c.13.23,12.88,23.7,15.91,50.27a.53.53,0,0,1-.46.58Z"/><path class="cls-7" d="M618.53,215.68a.54.54,0,0,1-.5-.35,100.31,100.31,0,0,0-15.16-28.86,62.65,62.65,0,0,0-8.62-9.42.51.51,0,0,1-.08-.73.52.52,0,0,1,.74-.07,61.68,61.68,0,0,1,8.76,9.55A101.25,101.25,0,0,1,619,215a.51.51,0,0,1-.32.66Z"/><path class="cls-7" d="M618.44,209.05h0a.52.52,0,0,1-.49-.55c1.11-21.78,12.8-44.13,12.92-44.36a.52.52,0,0,1,.71-.21.51.51,0,0,1,.21.7c-.11.22-11.7,22.38-12.8,43.92A.52.52,0,0,1,618.44,209.05Z"/><path class="cls-7" d="M618.57,213.5h-.11a.52.52,0,0,1-.4-.62A73.61,73.61,0,0,1,630.52,185a49.84,49.84,0,0,1,8.37-9.13.53.53,0,0,1,.73.09.53.53,0,0,1-.09.74,49.5,49.5,0,0,0-8.2,9,72.72,72.72,0,0,0-12.25,27.44A.51.51,0,0,1,618.57,213.5Z"/><path class="cls-16" d="M648.88,268.8l-.87,2.28-.54,1.45-1.56,4.14-.55,1.45-1.6,4.26-.54,1.44-6.88,18.27H598.76l-6.87-18.27-.55-1.44-1.6-4.26-.55-1.45-1.56-4.14-.54-1.45-.86-2.28a2.39,2.39,0,0,1,2.24-3.24h58.17A2.4,2.4,0,0,1,648.88,268.8Z"/><polygon class="cls-17" points="648.01 271.08 647.47 272.53 587.63 272.53 587.09 271.08 648.01 271.08"/><polygon class="cls-17" points="645.91 276.67 645.36 278.12 589.74 278.12 589.19 276.67 645.91 276.67"/><polygon class="cls-17" points="643.76 282.38 643.22 283.82 591.88 283.82 591.34 282.38 643.76 282.38"/><polygon class="cls-7" points="607.49 314.61 605.4 321.33 576.39 414.83 570.73 414.83 589.12 323.24 590.85 314.61 607.49 314.61"/><polygon class="cls-7" points="664.55 414.83 658.88 414.83 629.01 318.56 627.79 314.61 644.41 314.61 644.84 316.71 644.84 316.71 664.55 414.83"/><rect class="cls-6" x="580.05" y="354.89" width="74.86" height="5.93" rx="2.41"/><ellipse class="cls-4" cx="195.8" cy="47.56" rx="27.12" ry="26.78"/><ellipse class="cls-16" cx="195.8" cy="44.08" rx="27.12" ry="26.78"/><ellipse class="cls-5" cx="195.8" cy="44.08" rx="22.04" ry="21.77"/><path class="cls-4" d="M217.85,44.08c0,.58,0,1.15-.07,1.72a22.07,22.07,0,0,0-43.95,0c-.05-.57-.07-1.14-.07-1.72a22,22,0,0,1,44.09,0Z"/><path class="cls-7" d="M195.8,46.34a.56.56,0,0,1-.44-.22L184.54,31.74a.54.54,0,0,1,.12-.76.55.55,0,0,1,.77.11l10.55,14,12-5.19a.55.55,0,0,1,.73.28.53.53,0,0,1-.28.71L196,46.3A.54.54,0,0,1,195.8,46.34Z"/></g></g></svg>